<mxfile host="www.draw.io" modified="2024-05-02T01:31:02.894Z" agent="Mozilla/5.0 (Windows NT 10.0; Win64; x64) AppleWebKit/537.36 (KHTML, like Gecko) Chrome/124.0.0.0 Safari/537.36" etag="x5K_BgmxkE3meO7dKlla" version="24.3.1" type="device">
  <diagram name="第 1 页" id="FWoaKJIzPTudpY3LU-Iu">
    <mxGraphModel dx="1050" dy="625" grid="1" gridSize="10" guides="1" tooltips="1" connect="1" arrows="1" fold="1" page="1" pageScale="1" pageWidth="827" pageHeight="1169" math="0" shadow="0">
      <root>
        <mxCell id="0" />
        <mxCell id="1" parent="0" />
        <mxCell id="COKu5k5BRvisHS9Ge0iB-3" value="" style="shape=image;verticalLabelPosition=bottom;labelBackgroundColor=default;verticalAlign=top;aspect=fixed;imageAspect=0;image=data:image/svg+xml,PHN2ZyB4bWxucz0iaHR0cDovL3d3dy53My5vcmcvMjAwMC9zdmciIHhtbG5zOnhsaW5rPSJodHRwOi8vd3d3LnczLm9yZy8xOTk5L3hsaW5rIiB2ZXJzaW9uPSIxLjEiIHZpZXdCb3g9IjAgMCAyODggMjg4IiBoZWlnaHQ9IjI4OHB0IiB3aWR0aD0iMjg4cHQiPiYjeGE7IDxtZXRhZGF0YT4mI3hhOyAgJiN4YTsgICAmI3hhOyAgICAmI3hhOyAgICAyMDI0LTA1LTAyVDA5OjE2OjM5LjQ5ODI4NyYjeGE7ICAgIGltYWdlL3N2Zyt4bWwmI3hhOyAgICAmI3hhOyAgICAgJiN4YTsgICAgICBNYXRwbG90bGliIHYzLjUuMywgaHR0cHM6Ly9tYXRwbG90bGliLm9yZy8mI3hhOyAgICAgJiN4YTsgICAgJiN4YTsgICAmI3hhOyAgJiN4YTsgPC9tZXRhZGF0YT4mI3hhOyA8ZGVmcz4mI3hhOyAgPHN0eWxlIHR5cGU9InRleHQvY3NzIj4qe3N0cm9rZS1saW5lam9pbjogcm91bmQ7IHN0cm9rZS1saW5lY2FwOiBidXR0fTwvc3R5bGU+JiN4YTsgPC9kZWZzPiYjeGE7IDxnIGlkPSJmaWd1cmVfMSI+JiN4YTsgIDxnIGlkPSJwYXRjaF8xIj4mI3hhOyAgIDxwYXRoIHN0eWxlPSJmaWxsOiAjZmZmZmZmIiBkPSJNIDAgMjg4ICYjMTA7TCAyODggMjg4ICYjMTA7TCAyODggMCAmIzEwO0wgMCAwICYjMTA7eiIvPiYjeGE7ICA8L2c+JiN4YTsgIDxnIGlkPSJheGVzXzEiPiYjeGE7ICAgPGcgY2xpcC1wYXRoPSJ1cmwoI3A1ODRjMmZhOGVkKSI+JiN4YTsgICAgPGltYWdlIGhlaWdodD0iMjE4IiB3aWR0aD0iMjE4IiB5PSItMzQiIHg9IjM4Ljg4IiB0cmFuc2Zvcm09InNjYWxlKDEgLTEpdHJhbnNsYXRlKDAgLTIxOCkiIGlkPSJpbWFnZTVkMGY4NDA2NTMiIHhsaW5rOmhyZWY9ImRhdGE6aW1hZ2UvcG5nO2Jhc2U2NCwmIzEwO2lWQk9SdzBLR2dvQUFBQU5TVWhFVWdBQUFOb0FBQURhQ0FZQUFBREFIVnpiQUFCSTNrbEVRVlI0bk8yOTdaYWt1SzZ0UGJNZ0k3Sy8zcXMvRjdyR1dIV3FNNktnOHYwQkFubGFrbVVncTdyM1Bob2pFekFHVEFRUFU1SU44Zkx4Zi9BQnowYW5mSERxalZTSHk2Vk1sK3V5UVpWN1pXdjlqM1VmMHdETUl6Q1BYekNQQXg3REhUTUd6Qmd3WWNBVCsvSmpuWC9naGhram5yZ1Y1WHIraVJzbURKZ3hGdnVMbHErcUkrMnoxbS9yNWdIUDl4dW1hY0R6L1k0Zjd6ZGdHb0gzRitBZDVkL1h4RHovVGNhMDlRYzFyZXhEcmZ4T2xYbFpsMzFYWmRaNnI1ejMzU3JqY2oxdjFlMnpMK0hhNC92OTE5dUErVmMzNGYvWi95Q0xRZlBNdXdiUGdubkJ0VDM4eSs4T2MrVXUvSXZzMy8zUmY2cTFRVHZ6NFgzaUIvK1MzUGUvSGJ6VDlobW4vNy8ySS9WaXFiWWRVelMyei96Zy94ZDVjRDFxTms5RzNlbUZsbmw5ZjVzdTJjZFBNeXV1K21kWURqVHJ3ejBEZ0xXL0M3L0EvNm54VlpkYitkbEFkTzNmejdmWjlrOEE1dlhTdmVVVjdWZTRrTjUySnkraWtVRDAzRXV1OXl2TmcyeWV5SjNKZmphdGVwbjkvS1BWN1o5bFg4d1VyV2U4ZmpiV1RjYTZhQjllbVdjbnJuMEc2ck9VNzBoYzJPVTJ6bzI2bitVeFhBcVdsV3JQSHR4THovOE1PeGFuMVlyV2dpNkNMVk9mN2JPQVZQWXpYY2tqS2pnM3ZyelcraDlXdkJiWkVVL2hNdS9DQTh2YTBUL0JoYlNzSDdaMlAxclBCZC9xdE9ScjhKTmNRK0E0WExYcTVSdHo1SmhUUThtaTlWTXZZUFlCa2gzT2pYMWNVd25Yd1BYUDgybnp5WkFvKytSZFg1WnI2UzIzOW5YZ3M0dlVwY2VOekFERWRhNVFVY3VkZE5XTlk3V3RIT1ZuNTgxNzIyYnFoWFY2RXlFdCs1a3FGeVZFOUJDbnR0VXhXc3R0OUw2b21jcWlMOVJUeVU3NFhpWmduSUZoQW9icEI0YXBEVXNHQ0s5c1hBZEVpY215QjFVTE5qZkJzZTZaVGF1YnBQZUxORDhyMDlIVS9LY0xRalQwQ3JUT1c4L2xWd0I0Sk5PWUE4NVh0QWk2MWwzUlU3c0pOalNSaW5sZEM4NW5QODdIbFVYWGJTbmNaOFY5bnFzNEc1RHRHL0d5dWVOMkhXdTl0VjBtY1daYUM0YlBWS3VqZDQ4c2ZIcUFibTFmVXRkTDYrN29aUnBicXRZTFV2SUxic1ZWRE1tdlNPUGJicUh0S3FaUys5eFpyYTBGMmRHc2MvTzdFTGV4TjlIUk81RDRqR1hjdjE2bEc2dS9SZEhtNEUrYjVUcDZhZjBvaHV0VnNHZ2J4MHAxV25aYTk1L0ZPLzJaMmNxV3E3alZXMVA3a2dqNXdhNmpubysrTDJ2WjJvYzF6L1ZUMTd6bkpySWJlY1F5WUdiTmcrcGNCM1k3R1dKQjU4VnFGbXk2TEhKRnJXczZFVFBxT0kzTmNnVjk2T3p5czJwbmJjOEpqWXk2eWFNeWdPVTZhbVhEZWRmeGFHeVgybG5MZm9hYXRhQ0pZRHNHM0pocXMzeVArcG9ac0ovdnVNN3I2WXo5V2JJSnBVTHpNVm05WlQxZmYzek4wdnBoK3JGWEhjWjExM1BZR1R5bzlUSS9ZQ3EyWVZlMDFhL1ZZelYwcGFzb3o2UnR5NU1UcTBXQVpWU3RkZk8wNm9iWGpzNDJ0cDQvTy9yc1dXdmRaNW1HTGFlYVBtZ3RNT1NpRitCR3FxZnJXT3UwWmNIcnVMNDFMQXRBSXdiTW1EQlVRRWw1dWIwUHFBYXYxUS9HcHV2enRyeGNRYWpjeGkwK200WXlQb3ZBeVNpVkZRNDB2QXJmb3Rnc2NobVBRT1lkSjJOOGdRSUxUSmw5ZUFwWGJqc1d5cVBOK294R1dxZGgwbldzOVpZcThuNjk0emZXditqZHE3cWxXaTFRalFUZGZvaTZQSUpOYjdlYzFybk9ZMVl4QnRKeUc2djRyRWZSV3U2bHBXaHBpOVRNcytncGEydDdodUF6MUV3Z09oL3JyZDllWWp2dEtzcVdESlNsYmd3alErTWR1MWYxcEptcit6Z05PeXlSNmtRd3l2cWxtYkdjRGllQVk4ajB2T1UyenRPNEF6ZU5lVmZRVWpTdTIwcDZwRjFIaTlxV3kzZ1ZaRWZBc0ZSTnJOOVZyUGVlamRGNmN3SVJiRnhQTEdwTEE3d1hvRkRtY1o2QkFRcWMybVhVS3NhQWlIdW9JZHdQSFlPYjZndGI1OHV5c1pyZjNoZGlaUnUxMitpQndCQjVaUWpxZFltRjlXNFFQWDhHc3N4N1BNNjg2eU9DVFN4S2h2Z1E1a0N6MnNNeFdtWWJOT3A2b21GQmFsekw0MWJ2QithUkV4eTVPRTJVS1hJZmRTYlJVakN0aVBicENHUjduVW1CTjFrUVRrTTlHbVNMMHhBRGtYRWZJL0I0Ry9kWW5zdjRHWkJGOGQ4WnkxeW9udmtRWHRkWGE3bU5Gb1JaTUxVZFVEMFpqalVQR2k0N1RoT1lOQ0JaOTdIbG1tYU0xVTFuSGxuTjVta3MxYXlsV2xZNUduVmhiTmMwM1RsdEFkUURXUzlnVnIxVy9WYXlveFc3OU5reFJUdHIyZVNMWlVHbzlETFZTWkVTcnJiN1dHWXI3VFMvcDNCbjRqUHRLb3B0eXBaUk16M2Y0enF5blhJbFBiQmFrSDJXaW1YY3dLd0tudXZTT1FhYUtGZXJySzhsOGZHU0pyR2FUb3JvQWNXOTdxT1Y1TkFkNFZ6dUR4Uk9BS1dtMjN4V3pUSi82S3lucDNDV0FkUngyUkhJZWdCcndkRnpVZmZBZHR4R1BLZ2tVaHN2emM2dW5VN2xYL0RJMUxhUHBOc29zZG84V2ttUmFhM3V1NDlMMCszc282emJtemFieTZ5R2x0bkpFVXFDckdwbVpocDdBZXF0bTFLeUt5RTdBOWdaMSt6Szk0UFliYXdWTFlJcUd1M3hNeXlwZXA2cWNWSkV1NC9MSnJ1U2FHQUFXOUYwd3FRblRxdFQrQnF1WVN1YjV3V3lhWVV0cldZSTFyWFd3NW1hb0hIeW93VlpWc1VpZGJQcS9KUE1odFozSFQzZ0xNV1NzczlRc3lNMjJxbzJyQm05TWo0cjNVU2QrTERtWlhrNWpKMDg4YXg0bnN3Y2FsVzZsYnJmYkZreG9PZzNPNnRNRmtBcEZRUHE1TWRSeU02azh2ODkxczQ2NmpTK1dFdk5mb1hhUVIxejhsVnRWNjkyVWdTQXFXcGV3aVFhMHVXWnFKaVlqczFxTlJ2YmF0YnJKc0tvQjJkN28vVXhaRmxYTVFJc2dxc1ZXeDExQ2ErL2VFZThKNC9GOEVScVp0a0U0TzFnSzF0bWRYMFlxc2FwL3YyL1AvYVI1NWZEN050SWVUYmp5TU9yeERSd0Vwc0IrTndFU0xRdVZEV0p5NjZFckRVNCtFakNRcmJKQUhjMVhEd0VxK1U2Nmphd095bHdlYkdiek12ZnU2cC9CWGhSMytLd2o0R2NWMVViMW1kcGRLcGZ4MmNBTmxlU2t5SXl2MjlmdTVZTVlHUkZMTFlkZTMweEFxbFo0VEptL3ZTdndHUi9DU1lGR0JCRFppVTl6Z0IyVlRid08zellNb0NkVDViVVdVZnIrT3crV2pCSnZaNWtTY2JsUHBMMnA4SE13MVNyV2srcVh5dlhjcHE1ckdLUGJZT0dMVFVEWWpVN0MxUExiZHhNUXlabVFkYXJZcEhyeU9zemxsVW5yOTZSSjZwYk5WcUtsazNkUit2T1dPOSthR1NLZEdMUDB6SXNxNHpKY2lORnZKRWhYcHpINnowVGQ3R1lGdjFtQjlUczZyK2c5WG5JTWlwMjVXaDg2eTRmcVpwWTY2MVh4NjFVTkMrbEQ4UnFkaWJ0SDRIVU81ZzVlRVJuZVZPV0RNdmFYVWY5NUhVbUtSTEZjSkZwTnpGNkR3aUFyZCtzU29BQW53K1ZDeG03akMzSWVsVk5sMm5MdW84TVNldEM1SFVXWk5rTHVhMkFwYUpaNTJuRlo5WkRuNEFOM0V6em4yVTg4RnBkeDVhcWVhbCtEWmNGbERVdVV0YXppOWt5QmsvY3hsTE5ISmZ4U25leHFXWlhRQmFwbUQ3WTBiak1TbnhrNy9vTXlsVXVwZDdqbzlHV1NORzBlY0Nkc2N4VEM0QTlVSGxVMDdWdG9tbzYxYy9qSC9la3lGZ2tTNkp4a2VVSUV0dU5aTE1VVFpJZ1JXd0c1TlRuU2pXcnpJSk1MSUtzUjhVc3dJNm9XY1pGakN5amRGRjlyNWIzNFI3dHFNN2VSRnJIeTBKbUthVnNxd0I4V1plSDZRZkdjZS9BYmlWRnhETEpFczk0dlY3VzhWbGxWOFJtKzRGeWtKbHFacG1rOEk5QzVxblkwVFMrQjF2cmd0VGJYZWxPOGxiZXhUeHROY3F5cXpxcSticmlkclJpTjI4N2p0TlUyVGd1MlVkUnRXVlZuQlRwaWNjeThWbzVPb1JHaWtSdW81eHJCaFFFNVdWajJuVk1OYnNLc2dpdzdGMVdiOS96c3RPb0xPdEtXblc5STJaR2huZ0RqVE1kMWY2UlN4dG9YZFF1NzFyV0xpU3IycHFCSEFhZDZpK1RJbDdhM292SCtvZGRXU1AyYVNpV1RvSUFOUXd3bHJPUTlRQUtZRkV6RHpLeHM1Q2R5VGJ5SFZYRGRqYkxLR1o5di8ydWFUMHk1R2o4WlFFM08rWEFFc3pyRG10ZDUwZ21rc3NIVlM3VGRiU0lKRVdXYXJaaVplSXhiVDM5YXZ5Z0o3REhaNFcxbE96S1AzMDhBT1dvZk1zMGZERG00YXpUNjg5MFZudEpqeU14bXFkbWtjcDUyM3MxdkxjSVc2NmRCUkpuSHFXY3l6eUFyZmxJMmEzdm5wTWhBcDJoYWpvcE1neDFuOXF5dTF6bjlXd0FxczFTTU10a1hUUGJpTTdsWHNoU3JpTm5ISUU4WkphcjJBdVlybmNrd3hoWkQyUjl4N3J1d2MvTU51V1I5N0xCbVVkUUp1VkFxV1RhblpXcFFJYzlLYkx2b2dUR2V4MmRaNzBqUlBRSWtHWGFrWjV0d1dFQnBOZTE5bHNWY25xZWxja0NUaC9NaThHdVN1dWZ6VEFDUHl0ZUd6KzhMMkFDWHM3ZUlMUkZ5WTlJK1hwZFJYMFJXcGxSNVQ2TzQ3eTkwVml5ajh0OHJXN2xxVnd6L0txSTA0cTNXem5aeG5Kalg5VzRUa3Z0S3JQZS82RXRBczVUTmdUbHZYRmFLd2x5SkQ2VDVZd2I2ZTNEdHpINFNiRnExOEh2bFNTT1JNdWUyMmlwbWJVdlN5RjV2WFkzeVgzY2Q3OTNYdGVINlh2ZVRKdVZCREZqTTBxRUdEc3E1ejBWcytwazNFVnJINlpTdFZ4R3ZjTlc0c09ETE90ZWVTNFZsMXZBSFJudDBkdTNWcThmdjNlNGp2cHczZEJGQVBHWVNYM0E2RTNJZXZ1SjFnODBYZFZzMjJRcTAvekxibnpvOWpybjMzb0ZHSDFyMitEaFJsb2ZWT1l0dDh5RnpIdHFtamZPdW9WWFE2YnJuMG1BUUczUGF0YWJFRWtNd1pxT3hHanE4Q1p3VnVlMUJ4RFA2M3A4UFh0S1ptMC9xbldVcU9FNGJhbWVmNmFNTFJ5M0dNUmtXOWs2a0xqS09scDJoYUtsTEZPeDVaWjRLWHd1TzNnUk51M0srTTNhVjRmcjZDbmE2d2g0RUw2T2dMaWNJOVpZenFyYlNtSUEvbmRseFdBV1pKT3hua0dYQzR6Y3huM1hWaHhtZzFlUDhtQ1E0Z0hEUzdNNmdJcmlMNnQreHByZ1JXNWo1RDYyRWhwV1Bhc0IzbjdPZ1BQcXpJdFphdWJWN3grV1ZjVm9hL2NTR0VBTFBBRXVWRGVyRFMwRjg5TDF2Si9KV005Z0dlcUZhUjBsUWdtUnJIbXhXalRVYWpsc0RaaE83Uzh6b3c5TUN6WmRkc1NOTEJZOHQxSFhPK295Um5aMFVQRlJhejBRbW9FczBZOVduZGJCRWZiakFIeE1DZGc4TlFQS3ptVnZHMW5mQWxUSFpicGZ6d0x2Z0xYSE40NXFYcittWUtqTHJGL3Y5Q3dUbTFteFhjcU45SDRLMTFNenF5Nk1PdDQ2M3JZRjJaVURocTM1S0ZZNzE1ZFcxYlJPOVJYS1ZSeHF0ZU1kaHJEcEkvS3dLK3R1YktsWkZPL3BhZUF1OWxxa1JwR2Q3Z2J3M0x1TXVtWDNINXAxUlhpQVpNcy8yMXBwK2JQVzM1ZFdLNXF4V1ZHSGdOTXVwWFlsM1NRSlF5S1d5VUpHNnpuTHFBRXp5bDhtQUhlcmtZdGw0ak1wNHllbHBaNzN3NExXcjhiTTFzL2pldkdyVjNiSjlad2RTWCswZzFuc1o4TW41cWxVVnMyTzlhZU4wZW1PS0QrYUFqckh4UXhoeTNSYWV4M1JNTlp6bk1aVDdUNGVNSDRWbkZkbW1mVW9qQzUzMVhBSy9JR2VST0RwNi9obzF2RXpZN05XZXQzN29zK01VenpUbjZhMmpQSTdxWStvMGVIOXdnWGFMR1dLQmh0NzI3RGJxVWVKUk5uRzVEVWdUejliWmRiVUc3RnY3UmVnUHJSZWF5VkV2SGpOM05iTENuTFdVZHZQVGw2STlRREM5VWZrMU95NkFjYVZvdWt1UUcwYVBGRzZWelhWMmN0eDNVbWhiRjU2WGl5VDh2ZTJHZFM2S09raDYvUXVwam1kSE1tODc0UHJMdk5sSHhxUDJ1K3lLUGtSYmVPVmhkdDZFTFhLVy8xbWxyVitiQ0tySG1jVnFKWDBPSmgxNUFMcmMyY1gwalZTdDlmUlgxY2RMQk92ZWRzRXNWZ0IzbDNWQytNelg2SDJaaGh2c05yK3lveWoxTmZUOUhDdW54N0taQS9ZQ2lCNzl0V3lTSjFhWXhSYnltYk5aL1pyYmVOYktobkMxN2FYbWZ3T21FQzU4WnIzWFVYbmIyMWpwZlF0NDIwTjJEeTFpbUN5RDJXbjlQVzBjREc5WjlGK21XVnVyVmU3alZmK3FvdTJTTm1zK2JPUUdXTWR2ZS9UY2lFOTk3SGFSeFkyYlo3cnlER2J0WTFXTDFZekFUcXBabXdSVkY1OHBvRmlCYlAyTlZrdjRnRitNbXpldTBHQXVCL3RaMXVrWmoxdVkzUTNaOHQwRjhRM0NWUFIwb2tRM2huaXJHUXpPZUladzZaak1wbXlxbGtwL2daZ09wYXlmbnlDWWZMY1JzOTl0RWJ0RjBwbWpkNlh0djhVTy9PY1dCU2ZYV1dSd2xnSkRBdXVYalc3S090b0ZiYmdPeHF6eWJZYmJGR2lnODF5TGExTUl5c1kxUEpNeTBVVk8rMmVnY2xTS1hZeEk1VTdiZHcvK2VtV2ljOWExdFBvNkFLM1BzTW93Mml0NS8yMklMc2c2K2h0YW9GbHVZK1ZHa2F3Y1Rqa0tSZXZZOWRLbEV2NjJNVDkwa2tRcHh0QzNoMVNsVk4yMFZJb1BSOHBuUVd4K1VLZUkvYXBrSDAydmEzR3R6cUhvM1I4SzZacWRVaGYrMXFETUJraXU4d2tRMEx6WUxQYUYzM3VHaXc5dFZ4RkFlNk8rZ2JzdUpEMmVNVDYxMTZXM2VUY3htVzdzZHJudHU0SVlEOWR3U3k3eWtYc1VmV01HOWZxTC9QV3R3WVhXM1U2c281ZU9oL0k5YVhCV2E3TWd1MGRlT0ZFUjQ4N3FiZnhFaUI2bXNnMHpoak5oSVlGVXhTM1daQnF3UFFQV25SWkJySlRIdWxueFZpdGZyTFd0dHE4aTErclVROXduc3RvcVJzZlg1dWY3ak8zYVBXbHRlSTFONWxpd1BiYTI5bXFWVXk3aWxFQ0pQRkVnaDZqS01zVEFaTk5nbGgxZUovMnViNzBLWlVGbmU0N2pMbzZMclVzUUwyd1pUdVBXd2tPYTF0ZW40SE0rakJ6N3hwSTlhTUI5dmZQUUlXeG1waTY2RjlINTlHYTZFYXZJZUlFeUVISXl1YlpJenFPcWxuVTZWMjltVmpzNnZ6Q0lkaCtsYkwxdW5DZXk2am5NMnBtN1N1Q3JPOWxIbTU2WDR6NzBZRDZ1L1NnYXNFbWZtdVk5dWVMUjd1R1VrKzdpRUFhc25rRXBzSFBEaTY3c21PeUNDclozdnB4ZUMrTys5OWxQUjNUbVNTRzVUSm0zTWNJVWcreVk2K29TcVgzWDZsY0E4ZVpSM1lsOWJaNjNRZ1VUMndYbWNob3hJZ0dUS0NUOTRMTUtFSFUrMGlveEFRckxyTlZMSElST2J2b2pqWlpmem5HYVV5Zi9kSUVpYWRTWnhyVnlqaEc2dFBqUG5weG1GWC8rSHZnbW8vSkFQNmpNcDVpV1hGYnhVZzJFNWtaY21XTkFOSGJKRWFDQ0R3MVlQdGZSczBldURWaDVFUkk4UzdIclBWZXd6OU5RQms2ZlZkc21kZkliQ3ArYk16citobG9aZm5VaXhhTFBabG05UkZyeUJnNC9aR21QbDdyZlNXV2d2RjhOT0lqTzl4cWxDYU1wb3UzYk01Z3RXT3paUi90VENXQWN1aVZibit2WmFGTHdTYmY1dEh4UWFjT2JyVEZXL2FnaU9hdGZYdytaRUNRRE9GVDFOYzdVTDY5SWVxMDV2MVlidVYyRE8reEdnWk9HdVNOMEo4UngyY0MyZmhsbVJJb2U5a09SajdUMkhZdGdiMy9yRXFFOUpxWGVXeWMrK2ZhbGFsOExtdWw1YVA1VjJNZGI2K1hyNEZNNzdFeWpzZkV0RnA1cjBwaENMMERXcVA5dDRFYTNsUFVPblY5eEdpN0dxNFNwaDQxNDNWVzBrUGN4aW8rMDA5V3M0dmNlMzZmMnM4bUpqREpBUmt1N3dydzlwVXBiMEZtYmRmS01uNCtaSHF2cmxuQVdiQnhRb1RyWlcyYVVUN0hwdFA0YkhyMFI4c0l6bzl4SDM0bGlxV2hzbUkxS1h2Z2hpZnVSVHltMTNuQWJkT0o0ak45cmxmWmlQaUdWSlcvb0hZWHJXaGJ5cjA4czVkS3kxcTI3MHlYZThCRVdjWW9SanNKbWZHWmoveXhlc2JxMVlMSXFwOXQxOWEzcHRWTkp6MHlEWWdPTUM3ZTJwN2FMOVA3SG1CK0JqSXVzNUlnVy84WkFQQ0xlYXhwOWp4Nyt0RUV4R29iRFpqVlc4cVJ1dDVKajVMcGZWcHQ4T3A0S3RSS2lrVHJEa0tXdkFhTGFrY1VDS2hWcmRjcUZidkM5RUJqMExRUWtYS0lsT1UyUG5FbnhkTHJibmpnN3JxY0hMY0IvR2lNd0laZm1KNXZHYnNZVXVabHJvQmpWd0lmeTlyUFVjaWlmclVEa0xXdTF6RmMvSWVhNVRxT1JybWNEWmZyRVNUci9EeUMxTWQyRy9YOE0wamRsMmw5di9ONkh3MmlSdXp6bTY4czRNNUNtSTVyUmMyODRRbUFyV3F5cmJkTmREekxXZ2tRWGQ3S1BMWTZzb0VVWkZaVGV4WHRESEd2TlBVT1pDVnJYNkVTSUdiTGttWFd3NkFLckVMaHhpWGpxR0d5NHlrNzR4aW43Z2RTT0xWZS9YenUvc3VlYTRNdFYvRXpGQzZNM1RSazFtaFdoazhuUW9BYXVCN3JjUis5cElpbGNsSHlJd21aRVhwMDFRZTJGMVkxcmRXLzNxcXZ0K043U3JGK29FNXJ6L1hUeTFhZDRFOFNJUUxHRTNmTUdQSEFiVTEwTE82Z3pEOXgzOVRzb1pZZjYxUzdrYXh3VzlrS21hbG1WbHhtelFQWHdtZkdhRHFsRlFFRzdQR1pyTlBmK3RueGpGWmREekJldHR6RkE1QzFBT3U0bnpTclpuTkFubmkzUFBWeFdPS3pjVlJ4bW9aSlE2WG45Y0ZHcWhzQkowSXk3UEdXUUxLb2o2OW1UeU9qT0cyZ2x2TlYzOXEwcC9STk5kTi9uaDBGTG4xQnlFWEg3aU9iQm95WHZSN1Vub2IxcFBXbGpJRzdFREp2M3F1ZldkMXkvNnk2VWJlaGxMOGEwK3JqMUdybUFTUExHa1FObUN6Zm5ma1JlTDU5VVNwMkx4UkpYRCt0WmxaQ2hOUDdZYXEvVUxNaFZqT1p2MExKVE1WUzYvVDhwQmN5UGFIY2g2YkxldXhveGxHWFh3aFpGckRNYWFvNlkxTnhqTEtvQjhJNkxROHlWck1YVmlZR2FNUUN6VjJWODkvYit1ZXNZN2RSSUJMZ25wdktqUXFZZStFeTZyanJ1YnFiMmswc1ZHMGU4SHkvbFM2ajlUdlZnSzFvWHBrMXI0MEI0ODlpb3ZuQ2RJekdWNGdIRTd1T1BYYkVaZFRsMWkzZm0wK29HRSs5SnZhNGpwbTZWaEtEaitVQmw0WHNWZUFac0lBaVlMMFpaVkl1ME9sNUJ2Sk5UUWZnY1FjZXczMkx4MFM1TkhCYXpmYjFZeEdYN2ROZDlSNGJZT3M4UWZiOS9hWWdleWxCOC83WXNtTWFzd3BZd2ZhaUNudE1aeDk3dDdNYTVkV3hvTXZjN29HbWlyVUFPd0ZiVVMyNkh4M3R6V2hCOXR1ZGxDeUNURU9qUVJMM1VBUEk4M2ZnNHcxNHZyMnFCTWZkZ091MmxmRzhCZG51T3Q0TGQvSDV1QlhKandxeWQ4UlFaY0E3NDA0eVlCV2NSOVhwU0lQWU1qR2FudmV1UHIwdWdDd0NMT3N5Tm9DclhNZHNqTmJUWGRnTjJSdVZLVmdxbDFKZzAvRGRhWnQxbmFkbUdpZ05YVGwvQzVWc3p6aVdrRDNmNytRdU9wQmxFeUl3Nm1UR05ucHVvcjdRS2xYN2JNdW9HZGZyOGFlQUxoWExLRm4wc1FUckt0Qzh1ajJLWnNIMmlnVXNjUlczeEllT3Q2eDVEWTJsYkt4dSt1K1BmUnFyMlYwQlY3cU0rL3k5Z3F5S3plYjdsbDE4dk4vM3hNYzBBTyt2T1ZmeGlEc1pXUVNYck9NcGdEeHMybVdzaUEwYTVlMnJWY1pYbmxXV2lNVThkN0hsUGxyTDF2NjV5R3AyYTF2dkZDM1lySGhzSE5hM1grbDR5Z0pNSzVLR2psMUlCZFJXUjgvZmdXOS9mTUczNFhkOHcrK2JtbjNEYnh0Y1Mva08wOS9yOGxMbmptLzR2WUtzaU0ydWlNZU9xbHZXR0M3cmdpdjJaOEVtWUdrcU9UNDc0blllamRXU0xxSlVpWlFzcTJKSFFQdXRzVTMyZm1JcG1BbFlTOFY0bVZWc3hBS1JUS1dPelA5Ui83My9BVHp1TzFoLzQzZjhqZDgzZ1BhLzMvQTNmdHVnKzl1QVRBQmtGWHU4MzdZK3NoL3Z0LzZFUndSWUZrSkx1VGk3YU0zckwvWU5pMnU3MlF0dDVEMGFvNit1bzRvR3RJR3pZRXVNN0lqQXVrTE5HdkNaNmYyV2w4eW5yZUVMQVJzUngySlc0cU9sYXF4bWY1UmwzLzhBdnYzeDVvQzF3S1VCbEhJQlRpRGJZVk1Ka1RVVzYzWVRrU3kzNm5uV2s0MWsySUR5U3pWaGswb01tU1dGdllxV2RTVjF2ZVN3cVNPQVdaOUoxTXlFaDkxVU5FKzhXZGswWU1CRmJxS25haTNRL3NRRzJkOS92aFlBYWJqK3htK2J1c202UmJWK0s0QVR1R1Q5Yzc1dmJtS1I3RGdDR0pjaG1MZTJid0dvZ2VKcGRPZCtzL1l0Ri9jcmxsK2YwWkJka2FYMHJ0Z0RvK3BiWVBXcTJRbklBTlQ5YUQyZThnYWRVakFnY0JPMWlubVFlV3JtcGZjWk5JSHMvMXNnazdnc2dxdGMvM3VoWkRwTzA1QTkzdTk3SEpaTmRPREMrUjZ6SUFOeUY1SllkVng5OGZOVkUvMEVsTFg5Q2JQTzRTeHMwWHhVRmpYVFU3U3drM29kUVdTcEYrQUFOcUx0SG1xd3JHWFo3ZzhxSTdkUmxPemI4RHYraTcvd0RiL2h2L2dMWC9HWDRUcit2Z0hHcnFOQXRzVmxqeHNlNzdkRnhTUU9lMWR4R0tmdEVTd2pVUmJWeVNvWkwyc1I4dHhGcWF2LzlQNmFzRi83R29ETlBGZk9nKzJvcXhoQmxnSE1xRFArN3RXbFIxZjBnNW1zWElBeGZLb0ZtS2Rja1lKSlBWRXVubDhUSDgrM1YveDMrR3VENkwvNEMzOURvRnVtKzkrZjFUcnRPbjdEYjNqT2QzejcrdHZ1SnI3ZkY4QXkvV0c5TU9scGF6dGV6OGJoVStzdXplN2lpTnp4TFd2QmVQQ0NiYXJPVmU1aUJyQU9WUnQvQzk2M29mM0tBalNHQzRnQmkrS3dLTkhCQUFhcC9ZOC9sZzVwU1h6OEZ6dG9Xc2tFc0FYQU5tUi9QMzdINC8yRzk2Ky83NEJwOVlwZ2d6RnZUYjM1cU15TDNTempDNExWak91MmxPd0swS3gyWmVyMHFwcE1qNnJZQlc0akFJeS9lVDliaTFMVnFtZkU5SU9Xdk16akVqUHhsZ1ZhQkpoYUo2N2lZN2dYY1pZR1I2dVl3R2RCOWw4RjVmTnh3N2V2ditQNzE5K1dPT3dkTldEZVVLb3pnRVhyb24xbHpicFl1ZjI2ekhJN3ZUYXpaZUhQdHBYTGVsVXRtbnBsWGpzeTY2VEthNkJveFE2c0o1aWxmRlIvRm1BTVZqUnVrZUg3USsyTFlyS1B0MTNGbmlnaGt6aUwzVVdCYkYrMklmdjcvLzZHYjE5L3g0K3Z2Kzl1b3Y3THhHVXdwanh2TGJmcTlDcE02eUt4WXJrb0xzdTAveXJMS0VwVzFUTFRhRDRxYTlnSUM3U0ladS9wNXA3MHZRZVlnTlZRTUFIcytiWWtQUGFPNUZ1aFpxeHVHcWdTTk9WQ3pyL2oyOWZmRmxmeDY5c0MwbGZVYXVhNWpERG10UjF4dFhxZ1k5T3dlRXFtNTdPQVpXNE9aeTF5YjdQelZ3QjJVczJXYXV3NlJ1L3ZpTlNNNTczK3NCNzMwQ2o3ZnQvZFJOMlIvSTFBczJPek9pWVRHQVd5Ly83bnI5MVYvSW9Tc2g3UTlKVG5leXdEWmhZeUx6YUw2dldBbGxuWFl4blFlUG1JZS9qSmFyWnN4b3JXVWpNcGkyRHpzb3NacUJ4RiszNWZub3grM0hmMWtyNHRnVXVBMHlNN0JLcS9GVkE2VVNJWnlRS3lyNjg3WUF4YUpqYlRVNTYvMm5xQWkyRGplZ2ptVzhmcnJlUFpGYUJaWmRuNnJYYTAxaFhWV29wbU5ZRGZ6Y0hEcWJTU1pSV0wrOFpVb2tNQTAyREZvSld4bWxZeTdTNXVhZi9IWDN2UzQ2dFNNZ3N5RHpUUVBKQy95QTdlSlF2N1RNaWkvZmVBMUZPMzlabGt3T2dGS3dQWUpZcG03ZVJNRXNSS2ZtaWdMQldqUk1memJjOG04dHVuSXJlUjU2Mll6SVRzUDRqVnJBV2FubVpNdTIyNjdFcnJjUnZoMUwzU1ZjelU3d0dObDgrNmlaK2lhSDhrZDJLNWpSNWdNcytnc1Z2b2pQRGdPSXhIemN2SWVnMmNmcHlGUWZ0S01WbWxaUC81Qy9qNlVpcVpCVnNVbndGdE5XdmRJVGt1dXZDT1dxbFQ3M0gxK3BaOXBxc001RDlIUFgrRnUzamtzeDlsa2tudmUyb21aYTJub2hNS3hwM09ucHNvYVh6UGJaUXlIWnZwRG1nZGs1bVEvUWNsWUJab01nVmkyTHpQVXkrMzRpQ3Jmc3YwemJBbjNkOENyT2RDKzdmQUZzMTd4OG1zcTZvR0hkWUZXSHFabGN5S3phd1JIMXJCYUREd3g5djZjT2E5Zk1CU0QrNWxGZU5Cdnd5V250ZnVZcG40ZUxGVmpFSHJ5VGEyUGsrWjUxVDZFZkFzMDl0ZDRZWWUzY2ZQaGkzalRwNEY3SENNeGpCNU94MVJ1NDhNWENiVGFLaVpKRHdFTWxZb1ZyR1dxbG5BY1QrWm1maXdYTWRXUnpXTXFmOXA3OU5NZ29LM3RXSXB2Wnl4aSs3UUtic2lkbXUxNllpeVplZXpiVWpValdNMEx4RmlBYWJWakYxSGh1eFBiS3FtNDdGOXBIeXBadnpRcGVVcTZqaXVIT1doNGpYcGpQN1BYMlhpdzRPTVlmUFMrbnlCZUFCNHJyaDhqcjN3eWJZWjRIN2kzYnV5WDZsc1J4WHM0aHZTV0NoWnE4SFcrRVpXTTRhTFZTMEJtUVpHdTRiVzgyR3NadnI5SDA4RjdEZW9FUi92cjdXYjZFSDJGVzIzTVpQNmJvSFVxMnhaOXhKcS9SbTM2WXo3bU5uMmJGZklFVGN5czEyclBHbDFqTVk3Yk1WblVWcmZnK3hlUTFZbVAyekl2aEdJREpmbk9qNXd3L094UEVlRzkzczdmVytWczVweE1pVCtsR3ZJWkhvRW5OYStlVDFnWDF3dEFLM2xWamxRMzJBaU8rTCtSdld6Z0dXV28rTjQ1cnFPWHRheHBXWkEvTjRQcjJOYWQwSVBPcEVoc05XUVdTQkdrT2w1ZWRSbEd5RDgxUmdnN1AxcDRGcHVZMCtIOFJVd25kbFg1TUxDbUxlV1c4ZG8yVkhBc3NjN0E1eFhsajIyV1UxLzhHeWVtc2s4dTQwSnlKYjNLOHBJai8xOTlqcHIySUxNeWo3dWlaTnkvam5mOFhpL0xhOGQwS1B3TlVTZXN2WEdaOWFkdkFYR1ZRcVdWVFVMcnM4Q3pySXJBV1ByQlM2N1RlOTZjNVA3TnVmdjBBSXU0emFTQ3ltalBmUndLZ2FEM1VWTzhXZEdoaFN2OGw1ZlBiQ054T2Y0aStjOTZEelFBRnZOckpTOUJVYlBuZFBiSjVkNTIrdjVER2dXZU5aeTFucHVLcEdIMExJak1FWDd2ZUNta0IvcnlLckdzT21NSS9leHJiREprQ3ArKzIvWkliMnJIQVBvdmZhTnQ5L0tIc3RMZEg2ODMySjRHQ0N2akdHRE1lWFA3YWlMSi91d0VpcDYvcWpieU1zdCtIZytLbVBMcUpqMytXVXNjM1BwTGV0dFE4UGFNWnFsYWg1c2dmdjRYWTFiOU1BUzhQU1BSdFN2NHE2VmpiZXZYY2JYR2lDclg4eGFmMGJSdkMvcWFQcWVselhNZWptelQvM0haUWltUGNmSjFQL3NXTTBydjFMQkV2Vkg4NE1VeThSb2lXZlBQc1lsTHB1Ry9mZkhMTENzSDVTUVgrVVVPT1UzekN6bzlycktaWHkvdDlYTTY0eTJGSTB6anBGcEVNOWNTQlpzZXYrODd5dkJnekhsZGh5eHo0elZvdjFlQWRpQk5zZWo5eTAxazJrMG1KaVNIM1ZjeHIvYTR2K2dSS2xXM285T1VKM0NaWHp4NGJKZ3lpcGFyNTJGam1HVE10NC9sek5FMlQ4WTg3eHZhemxyUno3RFhtdTE3ZXo2RHJQSE9scWQyQm82L1lVRXo1L3BSMTNraDliM0gxd3ZmN1oyL3hHL3NWU21GU1NwcDRIU3Y5cTUxVkcvNkZMOXFxWVhpMlVVemNveWJtYTlNTlI0dDJIbTRyS0EwdXU4L1J5SjFZN0NaaDB2ZS94ZUpZcytzMDl3OFQ1TFlkc3hXaWJqcUdNMHBXN1RBTXpqbCsxeEZ3MEsvMnp0N2g2VzhkdnVLdkt2YW82bXl5anZ3cS9VekV0dTlQNFZKb0JGVi80QjRDS2c5UHBlMDlEbzVhdGdpOHFQQXRaN0ErbXh6M0pialdQa082eGx5by9Jc051NFR2V3JCL1pmd3VRa1IvbXp0VnJadkI5cHIzLzRiOWgvVTNxV1gzVXgxQ3dEV1plU2ZhakM2Q2RsSGVDeTZwYXR5OXRFNVJaRVY4T1diWmRuVjdpV1Y0RjB3WDdpWkVpa2FrR01waUhUUDlqSG9KVEpqWHZsQnJMTHVQOUkrdzRZcTluK2crekdUeVo1c1ZtM21nbGtHakFPa2hpK0VZZGcwNSs3dnN0SGlaRG93dkJ1b0QzQWVmdTUwajR6aHZzWlNsWWQwaHU5YjMyUTFxdm05S2lRMFlhc1RtanNhdlFrMTArN2tSbzJ5NFY4YW9DMW11bE1ZeTlNcmRFZkJXUjZSZWFIMGsvQUpwdkxOcGJhV2V1dDdTT1kzcHh5R1BPOFg3UE5GTDlPRjcyWC8yY2tVeTYwL2lGWU1xVVk3ZU50aWNtZWIxOHdqN3ZyTnl0QTlLOWs2cXloVmlaeEk4c3kyNFVzWEVkUHpYcGhnMU1Hd0liTUFzeFNNLzJEZlNkZ3M2d0ZtRlczQnpKWDFSUkVvM01TNDJ5WFQ5WURrQWR0K2dVUzFXbmo1dmJaYTh1cDAybjlNUzdaeFhtVW1HdzArNzQ0Z2FHVEhUb2JhZFV2WWpFMXJkUnNHczY1aHMzWURDZ2hpeWl4WEVncHZ3QTJUK0g0KzR5V3MrcTIxZjNZb1ZJUWZUR0FHanpJREp0UGdmY0VnT1VtZTVWZHVTOEFJLzUwMWlSUy9COGoxc3ppa3NKZk9xVHZCV1FNbTRaSUs1VlZwbFZMZDFUcjVVck5ydmhSZHRNNExtdXAyaXZ0akpjL09XWmo0Tmh6OGR4Q1Y5bFd3Rlo0Qkt4aG01YU5IenNnODJ3NmVMSFBIUXJuQW41Qis0dmRtVmxIM1U1eUh3VXVZQUhNVXJFeXF4aDNORE5zbkw3ZmxhNVV0UTNHbjZwbUFwZWU2bldXTVdEOFFSK0FqWGxscUNJWHNxVmMxZndPMkpkeExzQWFDVGF4SGlXTDdKYXNWOFB5Ykt6ZjdRak1QU0NMTlVIN1dPY1pybVYrS0ZSc2dxOW8zTkZzcGZ0blVpOVdPdDMzWnNkbVk1OWlXWkRCcXN1cC9Fd1N4SE1aRDJZakdTUXBtNXhweHBwdTR3TFpsN2NuaG5IZVZHc3NnSnN4RER0WWc5SDRFZWZBbTlDQVFhNU41OFJuL3JFL0taK0c4S2JnQVhwRXJjY1BHaG5DKzU1SG1aWnd5VWxwYUVTRkpsSTBhM1JIbFpvM29SdXhKengwYkRac2FyYVBBbkZTK2tBTUdDL3pkRE1Mc085ZVpmbDQxenF2S0pNaEhiQ3htNmczMFczTlFCWW1ObEJEOXZiWVZFd1ViSkMvRmE0QlV3SFNRRkR4OGhIemxHMnVBSHphNVlNTjZ6elVIOVk4Ny9WYXl0d1RWNDZQVmRFRXBHSkg2azR3RGN0OGRiRVRBQTlTTkI3NHkvMW9yWFErcXhsbkdxZHBLTlVNYUx1REdkZXhNS2JTZzB6S1hvMTFCMkRqWGVpcXJaak0ya2JQYTlqRVhkemN4aDJ5Mjl1akFrekRKZCtHbUZZMFM4bU9nbGREVlJxRHhPbzJXS0JSV3lZTUdBYjdwbW1wcFZieWxvM2YvckFHTzVZN2xwT1VxUVhZWkNpYTdpL2paSVlYaTFucGZNNDBsbW9tdnEyaFprY2dnMW9HVUE2ellqaThaSWhlOW1LMEJHeWVVTExycUNFemJ4UjBDRDNQc2RuYjZpNHF5RzV2endJd0RSZERKMVlyV3piVGt6ZDlqZDYyTWdIcVdjR3BZWnd4Rm0yY01WUnQxdHRIN20vVHRRVXdQaWxJOHhxM3c3YTdqQm93VnJSU3dlcWtDQStsaXRMNVBFcGZxMWs2Q1FMRUY2NEhISUE2NmVGbEhEbExJZXNGTm9ickFHeGVYTWJBOFRZOGRmK1dtSXdodStPaGJuczdjQUMyc3Yxd05YaGlWN2lTR3FhNmJER0dDbGhneklLb3Q0dmJrRHVuOGFFOFlFdWVOVmg2eW9CcFJhc2hLb2RRc2N2b3BmT3R6bWxXczgxdFhCcmxxQkpxa0x6a2lHdFduMWtVbzJuWmFjSEcrekJnWXhlUjQ3T1dwV0Q3QUZZWFVTQzdEWS90Vzc3aEFhMW9BaGRESithNWxHV3pjdUI1cXNFd3lQWHBRV1VCS051eHduSGI5TGE5Q3IwcG1nMlppdEdVb21ub2FrWGJsVWxEeG5HYWRobTlaWGRhcWRtTEgyZEZZRUhWQWRVM1Yxcm13YWZqTkFzMlhWZlhGL3VBcTJ3Y24yV2FwZXU3bWNZSFh0K2V1TDg5TmlVYk1lT0c1NlppZWg3WVl6VHRTaTZIdURaQndna1JWalhyV2wzS1M2RVlpbld6dXcxRFo3VzdGVGRxRzcvaE4zZWxGNmN4ZEphcTJTNWtDWjFPMTNNOFYrOVhmUkJSU2gvSWdaVjFLNnVWVmg4YW5PVUlOc0JPbW9nUlJaYXF5WHgwdmd6alNHVkt6YjZzMlVWSmVvaXpQMkRDSGMvS2JXUlhFdGd2UmdadlA5eHhkOUs2c0ZzdW9zQ2tyMW5lbjFZenJXU3lqVDRIdlgxUHU2c1l6VG9wYnFSdUlLdmFvM0FSeXppTklhb2Y0Tnc3cDYxWVRkekd5bHF1WUZiUm10NUFUNStaTG1lMzhkVll6NDBCM0hqTlNvSzB6QVZNL3FiTlpSekcwbGtYeU1vNDdYaHlKTHBBR2N4V25GUW1RVXAxMDlmdFRkV3gxcVBZajdSbHFNcXRHMFVyR1RKZ0ttTzA4aVRzZzh2SEtnZG94V2xXTXNTRnlGaldhdWE2amVWWnQ1VXFreHdCVUQ0NTNmSTVNK2JKVXVSQ0hqU0dTcys3c2RrQzIyMG9mUThObVhZZFBVV3o0N1U2V2JLdmk1U0JSbm5RUloxeEV6MVZzOVlQbU5UNjJYUWJ1UTJwWklpbmFMeEQ2eTVnS2RvZXEya2xLK01zMjBVc3QrY1B6MDJDUkc1Z0JqWmVEak9PUjAyckdDL3pPbTdFYTFsc1pSdDd6Y28wU2dMay9xeWlZb2JNY3lPQk1nUDVtV24vVmlaUnJrbkFCazlESlVESlZMdU8wajdMWmV5SzBaNk5FV1dSMjJoQnA4SFNpWkU5TlY4bk9GejFVc2VxMU14dWJBemJGYUowcWJIdng3RWJZQ1pGMkp2eXppSHFwRWE1UEJndVl3OWtzYkxaYW1ZcFFhUU81WVZkcHVkdHRYcWExK213L2wvS2F1amtXRnJST0c3ajg0cGNYR0R4ek9sazZnMzBCYzhuVlNjdGFzaTBjdFVqUDByd1pQL1ZWODZ4bVRYa0ttTy9GQ3hwZ1BXbFdNcDJZRGRzVVd5MmxlMXVvNzRGM2h6SW9sZ05pRlhOY2l1WDVkd1g0Nlh6SXplUm9aSnlEenBwRDRPbjI4MXFGblVGQUk3cjZQbkJtV1FJeDJwNm9MSHVHM3VpSE4vb2pRTFJBSnA5WjVabFhNZVV2Y0R2L3dKMi8rM1ZXT2RaTm52UllWNDh4blhNOVA3SDVqWXVveitXYitPR1ovR05abU8xWmZjTW5hOXNub0w1TVpHZnp0Zlhwd2NYbDdQcnVLOWZYRWdHajl2bnVZOThYbTR5UkRkYzc5QlN0d2l5VXZWc2w5RnpJNHUyckc1allWWnErNnhpeVFWbzdrZW40M3ZndWlqQm9hM0ZLOGRoZ0tOdVUrVTIzbGVJK0Z2TEpFVDBOd3JVL1dxMXN0VWZ0TmVKN1hsZmxwb3hkQnFjTXRrUngydnNQbkliR0VEUFJrK0t2VExMNTlYbEpUQjFCcExoMmorWThtc3Q5cW5jeGkzYjJMSXNjRHhpd3EzRW96azQxODRwZXpFTm1kV3BaZFZMbWdXT2RSaGVWL3l4MjFqZUhuYzNjYW9nczRFcjAvd2VXSjZpUlRGYW1maUlzNGtNbmJST3d5VmdNWWhzR2pZOXYzKzBkZnpHRmlaRE1pNWs1RHFXeXpWSSt6NzJyM2d2cDNxVm1sMzBraGR0Sm14ZTM1ZE96V3Z3UEdBOHFCakVWNnBMNXhtNWhqeTEvb3AxdGR0bytScmwwS3NZTWk5ZU85T2h6Y2JYaVFCb0tacWdOZEcxcDRIYmwwdmw4dFRLZ2kwcUI1YjdXZk5rNUlTQXZPdG9MZXV2ejhvMHluNHI0RmJJcWlkYnIzQVQ5VlRtSzlmUkdzMmhPNXNGTnF0aEhtQ2pXcmJnWk9CUWcyS1Y4eUc5N1J5MzBmdjJibXVNWmtIbUQ4dnlzNUJXOWpGU00yM1dNQ29QcnQwbDdBZXVQR2JPUmZSczFBMjBqQ0dRazFxV1kyWFRxWDQrd1NyUlVhMHZnWlA0ckhvQlMyOWM1bDJVZlBGdTlrSVZXOGJRQWJiN3lKQnBOWk9wb2RwdVVzTXBpNVFPTU4xR08yb3ViNDhXWkY2OEJ0UWpSaXk0SW5XTHN1TVNoK2wwdnAvNDZBUE9pOUVpdFpNMkZlZVM3YkRXSjh1QXlUcE85OXVKa0RyaFlhbllObThPdWVxOHMyVHYrREpmcVZyMmVEcFc4dzdBYnVOSTg0N3JHUUhWV25iL0lyZXg5azN1U3RXeWtHVTd0YVhjbWdmaTU4M3M1RWNaaCtsaHliS3NreVA2V21mWDBWTTVMNlpiamxHQzJPMDY2cE10WWFuNzFPbzZYbWUwWHhlQWNoMFRTWkR0ekp6bG5ndHpBKzNGMkdHUHRXSXlQUy9IZVNtclhmMEg5U1lyY2h1WFEzcTN6RkxoZHVqcVIyaXNOSDl2cHphYmRVTzIxSXlCdXdIVmNtK2NkY2FxRG10OUFtV1o3VUt5dXRseFdmMDF5WEgwUE84LzdSTlhNWlVxdDNiUkExMFhiRjdLUDNJZFdkRUNkL0hTdjQ4dFByUGNSanVTM2xWTmd4VkJGb09YZXpwYm16WGtpdnZKMkRXc0ZTNWVsamFjQVc1RytUemJhRjNnMWtaaWtmdG9nVlhYR2JmOWFHQ2o0NGZtUWNaMU1qSExpT1dSL25lcTY4SW1CK2YzZ1hobXdhV1hqUXdqdDAxUHVkeGJ0djdlSGhqR0NiZTdkZ2R0dDVHbnBmdFlRN1lQMDdKZHllWFVhbmR5bWNiS1ppbmF2cWM0RnRObFVjaWszVDZPMVNKM3NkeEhHYXMxeHpwR0o4ZFRMK05ZcnQ4QjA5dnovamY0ZXQxRngwM2Exa2YxUE9pV0JxMzJvaXBveUNMaWRTTWFjSG5uWXNIMEJ2K2RqSTIvTGExdlpCc3Q2T3lrU0FsZk5EVHJoc2Q2V3JYUzZYSXhUOVc4WjgwWU9rbkVNWEQ3OWY0STFDMS96VVhnN2ZHaDR6cHk1WEs1YjRTSXBXWXlId0hYYmEzcnZCY3lWajZBWUFNV2FEN1V3YU5PWjcyam9BOHdBNzhGVkFTWjhaWXIzMjFzcWRrRS9wWXR5THgzakhobGdQMTB0bWZzTHRZWng3a1luVFJnd0FNN3FMTHMyWUpmVHIweVZvME1ZYXNWcHdac1dmWWhLLzFvWTNnVnExajI1Q3k0ZWtES3FObmJlZ3ozZDZzMWRBZXQ1eWFnb1dGVjR6SmVSMjdqMG4vbVJkUDg3ZVdBc3lCcnVaSldjbVJadHUrY3VwUGFTdW52Zldqek9qSkpqM2ZjWGNjN25vYWFsYkhhOHJYa3NwRGhWOXphd0FNdDZrdGo4L3JROUg3NldqMEJrN3F3QmJnSVBEMGZYY1JpQXBrQUpzQzFIaXBObndPMWk5c255NTU2c2N2b3hXL1Z0dnRva051d0ExSGZGdjFnZ01zMFNCb3lQZDlPbUN3ZnB1eGJXMzFoUDR1YnNsWTFkaGtIVEhqaWpyMVBiU3ptbC8zNjRkTVJxQ3dMUWVOMXJWak5TL1hyL1UyMHpQTlJlNFp4M2p1c3g0OWxHQlpEeGhlV3dQQm1yT2RYV3I1VE9UL0wxbnJBTkxMUm1HZkE5SHhXMFNJbE05VnRVYkxibTR6T3I5M0dzci9NSHpIQzhPeURqblZHMG42T1RjbzFXSllidVgxazg3eTl4QmZ3Qmt2c2VDMXgyZ0xZaUhtZDM5M0paZHVsZkdtTEZhdjVJMFo2T3ErWDlnY1hkcll2VGVxMlV2MTYyMHZpTXdzeUM3Yk1SV3lwV1JZMG5yZmF5Zk5IWWN1NmlWYjVDSHhaMzNKbGRWSzNPcXhaaWJ4RWlCNnlwU0ZyS3R5OFFqYko5RWZ4TWQ1VTE4azhmdG5lcEMydnFOOEJFMVdidC9ubEt4SXdyQXk0VHBUdzE5Y2VvdFV5TnhuUzA1ZW02M3VRNldVeFhzN1lGNjFxUUI0MnFXdS9tSG1IYTIrY0R4cU1LYy9MOGF6bEZteldzcFZkVEt1WXpIOHZ4amJlMUZ0Y1JIMHNpUFF5cXhHN2xQdWJzMnFGMDlzVkNqZlBHS1lady9RRHc0VHRGNU5lbkp2WHh3amc4UVBUc0lBNGo5ODM4QjdEZllQaGdkdW1Za0FObUNSSDlIOTJKYk5ndGVxNXlSQnJJMTFtQVNaVEwxYlQrN0gzbjRST3ZnbUowelJjdkt3dlhPNGpZelhUc0htZzhUb2dWak5wRDg5Zm9XZ1diSC9DZ2V4alU3UGJmWUZMSzlnQ2haZlNyNmRXUDVvVm4ybklHTGh4bm5GNy83N0I5YUkvVi9HNmpNLzJaZjJjWG9mbC9NWVptS1lmbU1jZkdNYTVBTzZ4UWJiUDYvYzV5cnpPUXJJcktTWXdjWElrWTVYcjZGSHB1WkhzUW5xeG11VkM2bU42WU1vdmVwaS9Zeld1NzlQUWtHbkFnUDFDMDRDeHFsblF5SmMrSXE5b2tURllNbjlGbkJiOWJlQTlxcEg2V3MyMFd1M2dsR01idlk1cnJWVHl2ak9CVEk4azJWekkrVkVDOW80RkxBYXQ1WTZ2bDhUTENMeU93T3NkK0JoLzRIRmZnSHZjYjFzYkJUS0oxOFJxejZ6dWM5TmpJdXRtdEdNMWdFQ0xWV2lrWlR2bThpRHo5cG4xZC9rM3FTcjNrZWM5eGJDZ1l5V1RhVThTeEJzQ1ppMW4xUXp3czRnUmJGclZSbXlaUnExbVdzRTRIWitibG1YYUZmUWd1K0dCKytPSllmcUIrMk5Wc0lmNmJEVnNyR3phNUt1WHowSnQ5eklDYjlNQzNEQzk0L24ydXRWZjNNaHlSTWgrYmQ0QVBJcjErM051V3RXT0RUUnVQaVlqRmlsZkJObGV4KzVYTzJ3YmVDTTJWWk5GYjZvaHM4Q1M2UWo3UithOSttRTdqZmtqTVpvWHE3R0x5SzdqcW1hMzlUWGZTd3oxS0JSTHcrYXBGMCsxeTlncTA1RGQzbi9zS2lhUWViQUJPZEFHTlg5ZnRuMjVMN1BEOUIzRDI0emhQam5Ecm01ckEvWjUzY0ZkSHZaNHFqOThUSWJOeXhSRzR4OGpsL0ZTODlSREs1YUc3SjJtbnN2NFR1VXdwajF0eTZpWm5qOFNwMm5nL254ZjM2Zi8zUHJOUnN3S3RqSVRLTGZCTXVGUnE1blh0NlpmbFd0QjlxcmhlbUMvb2MzclBJTVdlUW9XYUJPMjcvTmxYdHhKNEFlQUoveExmWWROQThZZDJuSU5NM0RzTWxwQU5qdXN0WEhkS0NFaTY3bExvQld2ZVdiOSt1S2UvRjFWVFp0M2NYdVE2WG45cDJNMEdGT2U1Mk5iYmZDbVorSTBFN2p2KzQ5VzNQZDNSSE5zMXF0bU1YQkdOOEE4NzVBSlhCbzREWmpNeStmYUFzMVFzdzIyZFIrdkU1Q0ZUVWFNUk1PenhIb1VMZzJhNWVyMTlxdFpsbkVqaDNFMkJ4ZC9HV2NmTm4yeGU4b2wwOGhkdERLTi9PVm4wL3A2bnFIU1paZW8ybmU4L3ZuMzlzc3c0akxlVmJKQ3U1RkgxSXlUSHZYMHVTVStLc2hrS3NBSllCblE5R2ZEYWlaVEFYY0Y3aFhBT1BmQkpoM2EreUg5cEFoREo1M3djbTAzQnhWcmF5VkU5STVaNVdTKzUzZ0RKbUJBOFpTMVRvcUVJL3Y1c3hEWTlEd3JHSkxMTU9aYngyOHBtVGQvQ0xidmV5cC9kUmtsbTZqQnN2ck4ycGxHSHp6dWV4UEk3aG9taHF3VnExbWY4N2pXMWFDSm1na1g3SUppdVEzZmhqeHNBSERIdy9UQWVsTDdBTnFEaXRtaXBFaXJiMjNmcGo1bXBoMnNiT0pPaGk2a05vWk52Z2lyTEZLeXEySXpubnFRY1JrblJEYkkxcC9GZlh2aTl6Ky9iWkRkVmR4VXB2RDNER0UyMCtoQnhTN2pEWSsxRTFvbFBrU3hQSFZqMklDNlAwMGcwd2tSK2Q2MG1qa2d2WTZBdUpIemZjU0lmUWp5b3VhQWxZRThhOVhWblhFbHZWaHRXV2ZIYTNVOTM1MWNHa2FkaFFveVVUVjVLMWJvUXJKbEFNdENGcmsxMW5JdlpMd2NLdHJ5QSsrdmI4L2xnVTRGbVU1OGlGdFlROWV2WnNEK0dnUU4zZzNQZGJUSEdwZk5LR094akF1cGxVMmJCRStpWk5wRmpKNnVVWi9uSzRCNS9JSDcrQUJmZ2d2RGU1L2FHWnV4Lys2YUdhTzFZTXVNZ2RUejJtWHNWVkFBR0laNWN4ODFjTU80WE9uek5QVEJKbVlCbG9Fc28yaFhxQmt2bTdEdEtqWklYeGxCcHBNZ2UvOVdLeGFyMVF3b1I5ZnZnSEVDWk1Jd3phWExxQk1mV1JkU1BtdSszam05ZjhldVlxMEV5cnJ0ZlFTQTc4QWJNQS9EZG83MzlaWGpTNXoyS0dJMHk3SUprVlF5SkRzZTBsS3hGc2pOUklqeWhRVXlQVnBFd3dZQVZmK2FaZUppUkg5U0I4WVV6cktuWkhyK1NJekd5eHRrMzRGeHhwZHhMbjdjM1lLTTFhcWxYanhkbWxBK0FlMDl3eVpxOWlLUWlNdW9JZkpjU0U3elI1K3pWcjQ3MWVYdllsai8xdGp1NVIwWWhtVUE4MjNZYzR4UDNGZDMwbjlsdVRhdFd0cGtpTmJXNURQSkVIMndhUDZNbW9tSnFyRUxPVTI3MGdIcmlCRUxOb2JMc3BIV0g0M05aRjg4ZndZMlhhNEFFeFdUNFZVYU1oNEl2UDhVWkRzbVk0dmlOVm0vQWJmR1pzWG5MUzZqd09hNWtGSlh3QVJxUmRNd1dUYzNpZVAyeHUvSFU0bVUxOGZpUW83ampIbjl2VzRkcnkyN3M5MUhCa2tETjZQK29mbWltVDBnUkVrUnZkenFhN01zSThjQ25JN1htckJaeGdDT3hyeDhMSjhCV2hxMnhVWFVnQTNqdEtuWTh0aEwrZTVGRFZjbXNlRXBWajVlRTdkeEdmMVJLQTcvY1ZlSzFJMUdpZkRucVZWUFg5Y2N4K2tNcGN4UHkvSXdMYW8yREFKWStWa01qZXR3T1hUOXUycHM2YXhqZE9GN2luWjJtQldQa21aVjY0TU5NRHUxSjVxUDNNYnNmZWd5TlZ0LzJ0Y0JiQnNrUE5pajVma1pzVmFhSG9CYk56Szl2VHhUOW1MQm9sMUpEVllyemM4Mm8weGlTRmVOL3N3MVZJUFRsbkc1Uk9iSlZyWEpnV1p2UnFsY0dqaFp2elVwRTZONUI0bktva3prR2V1QkRkQ3BmOEIwSmIzNW42MW1XOW1xWE1BR0Z3QVhNSDVpbVNGamwvSG14R1l0OXpGU3VLWHBDbFoydnpWWTNxQ0FYa1hUNjNXL3FBQW05UVEyY1VjSnVwZHBqOVU4VlFQcWE1ZmRSTzFLYmprRnRYM2FWOHdxR21CRGx0MFhXL1RzandmYmRwd3FHN25zc1JwQmtvR3NKN3pzQnExVUxnQ0ZlZ0Z3QWRQOVdQVUlldHRsYkxtUll0WUZaNW1HY3BqbTNaR3dZQUl0ZSs2bE5aSWZhdnVSbG5YNTZoWlcrNVJZYlM3cmpPT2lhanJCS0hxMlB3SkQxeGJzbUt5TzNaYUdqcnh4ajFuMWU5ekZxSzRWcDdFTENkaXdjVFp5ZXlvN2NpVXR5Q2FxSHFtYUZaU0hVeCt1NWJ5bTdjYWhBUU9XMFFyeUdVbi9tQWNjWnhmdFZ4R1VLbWJCMVlyUGxqcnFBNUlMbW8zaGdscm1xZWMrRGlpL2k0SEtCK3dwZjcyZnU3RThyMjd1ZlhGN2QvZHhUYmc1cXFhdno0SHFsdytMcmpmS0krNmN0MDIyZjYzWHJHZDhOR3hibVFPYldBbmJzdWZGR3QwQVhEMXViRDF2d1FXWXJpR3dxOWRXUHV3UXNJcnBaZitkSFBHb2UyMGxPTzM0akxmYjB2cGlyQ293MXJGNUtsZ2VjTDhoem1xcUFDcm1MZkRWOGtEN2w4K0c0ZG8zM2QxRFVUZUdVMSt6WGZuMkNKYlR6NWV0NXQwcDl2V3FYMDNGYXdCY1pZdmpObUQ3R0VhZ2VMT1dXZ1hBdmlpc1Q1REJBaXJsQWhDcWw1eWZ3Q1NmaHdVWUwxcy9IQmlsNXRsdHJKVXFCaTVLR0ZTV0JTdmFScFkxYk5xZG5JMjYxckZrZVhVWmRaeW1YVWJ2Mm1iSStIclZhdGdFTGFORXJaSDlubmxQbzdicVdyQUI3WmlOclFadU9kSTI0VjhWYlowU2c3WE56eVpjZ0sxZXdONHZ0Y3pyckdEN3Q2T3RCekU5a0N5b3JQbHVpNFF3VXFxangrTExTQUVVYnNlRGtaVXQxOWtlZjVYcTF2ZHJvT2FsYzBWMnNOY0tlQkwrYnhZMkFLRzZBUjV3V0dGTGlqNkJKZFpTTDVuMkFMYXZxeUd6VXZxV21zaytMUGpLTzNHZEhIRS9ncmtEVEQyTUt2UHcxeFdXZ1M4d2ZlNFRYWjh0VDJ5N2luNEZYRWVzRnpZQVRwS2tCZzRJb0FzYlZZTWw3VmltdTNxVjVYbkFkTGtkcjlXWlJiMk5CbW92MytmWmpxalpOQXo3dXhjamdMekUwWExndHNwRjIvZVd1WWM0OTRiaXlvMzhwd0lXM1NGNllOUHpjcUY3d0VtR1Vsc0xQSzdQY0FGdzR5OXB2d2VZbkd0YjJlcFlqTlZNNnVxcG5tY1FMelh1MHVCK0xwbVhCSWFPa2IzTFUwWjljTUtKdDRtZ0RNQzdLdWV3SGNxNmMxMEJYL1JnWE1ZZGpMYUp0cE1MMkVxU3lMd0ZuSHNlQ2xndXI4dHN1SXBwcDRMdDYyMFZBempkWC85S0N3TW9kVnY5WTl0NU5lcnA3MlVlditCai9JRVhlV1pNZHhwN1E2T3NoSWJ1VXBIZHoycCtWSDhEVFdITVorSDdKRE1QVWFZeDI5QmxraHBla0ZqWHMyTTFhNWxoVzlwcnF4dmdBd2Y0MEZrdXBnZm5hTHFOTVdBeVpaRGE1V1Vta09PblNNMFluRWp4c2xaOXQzeGhDd2hhaVRSY09rVVAyTmxIMlplZURsUTJHdXU4dW5vS2JLOFkzOC9wM0dBTHE5bXV5WWZlT29EWjEzVkExYUo2MXJMVlFXaXBHMkFESjh0V2hqSlNQSzQvR0pEcE5tUUEyOHRhcXRkTysrdnRyU1JIRkoreExjSCtWTTNYOVViTTQ0eHArTEg4aUpYbEttb2xrd3ZmY2htaDFsdGRMWHI3RVV1U2c4dll0ZVQ1OWJMNUdJRjVWT2RBMXlLL3lvQWZZTFkvQ3ljWjByS015clZnaTFRdGNpRXpzQUVJMVEyd2dkUEwyL25Sazl5VzFTcFh3Nlhid29vazZ6THhtYlcrM2JmRzZqWVorNmxqdGNna3V5YnpNb1ppeG9nSmMva1RFUXhVcEdTc2Ftd0RTb1ZqOTVIM0xTTkR2SFY2ZTBjLzVQcktLbGpoUGh2YkhQSk9JK2lzWHZGTTZsNjJQUW9iYnkvN1dOcFlBZ2VVTVp3MlZqdlBLdEFjdUtTdDViVHRKdTVsT2ZmU3lrQmFuZEpYMkl6UmpPOW1ETXN2dTR6Zmw1ZWthcUFFSklGZ1F2MXFkakhwVU5hS1ppVXhMRVc3bzM2Nzh4MDFjT3B2R3BiWWN2bFZtcjJ6T29Lczk5bEtNeG15N3l3VFU5bXVaZWpTQmJDVisyN0R4c2YyUUYvcXFYME41WG16MnJXTXQ5ZnVWQVl3S1c4blFmSlpTUDFkV2xsSDNWYXZyOHhMa0Zod3lVVTVRQ00rTGhmdDlHUDdFWXJ0WWhlNFpyWE02clkwY0MrM09xT0JFaGFwejdEZFZka2JTdGhXWlJPM2NSNUw5MUN1Rlg2RzNISWJXMm9telhXdEp5UHBYZlM5c0VYYmNOM1dzUUVidVAxY2ZQQXl4dnRqVVBSOGJ4TEVXcitYMlRFWWIxTzMxMCtFWkUzY3graFpyWGtjTUk4L2xqZE9NVlI2MlZJMGdlRWRKWEJzN0JZT0tHR3kxSTduRFRXVGM5VFQrak1ZMWJ3UDJlR3hqa0FObjNYUi93ell2R056dWI0TFcvSGpXZU9SRXp6ZkU2UEp0TWZGNU8yaUlWcHNHVmRTQXlYemtoQ3g0clFCaS9zNGpQT1M1dGV1b3diT0c2RWhZRWxjWmltYVRtcEU3dU9keW5UY2RxL1ZUTTZ4Zk9VUWp4UmQ2dkcxcDVldHhGN29Pbm83MG1aZDNGeldBa2R2MTdPTjUzWkc3aXhiejFoTHk3eUVRaFNuSFZHeDFyYVJrbG5uNG4zdmxsSnhFbVJZd1pMUkU3YjdPT054LzRFM0dkZG9xWmpWQkk3TkpLYVQrdnJyWXRkUkZFMURKdk9OMkV6T0xaTUVpWlRQdTU0T1pSMzVnSHE5bDdDd01vUDhyZ1ZybXd4c2ZGeXZ6WFkyS084eXRsUWhHNmQ1eVE1cmZYWmJ1MFBiVHBJY01mMmRzUHNZcWRyMys1cnE5MXpGZHpVdmNNbFQxZ0xuMG9EZE9PdllpdE40YXFpWi9MWjFTODA4eUtKSHhBQmd6SHp3VVYvWVhtY295cnpsVE9kMjBVQUROcXROVmx1aTlwNnhLTTdwelRUS3RCV0wrZXRzeU03WWJIemVZdHA5WE9yT0NycGExZVp4L1ptbTFtQmVpY3QwK2w5Y1I2Lyswc0E2VG90Z3V3TWZiOERqRGp6ZlhvdE1vNzRkeWVmQUxxUCtmQ3pJUEZaU2ltYkIyRktXakZJZFNmdnJObVZ1QUh0NzgzQkgrOUhIMSszamJTSklaSnFONC94MXRpc3AyM245YWoxbXZmOUNmMDhDMkZKZXF0cGp1SzhxOW4xM0lVWFpXT0gwODJFQ0Q1ZUxqVFRsUGpOMklTa0pvbDNHSis3bHpZSFVpN09NSG1UZXRiaGQ4eTNYeVIreHNaOTVsS2p3QUxvS05xc05kbnZQM2VXdG0wMVBJa1RLczY1aXV5OHVpdGU4cktPZkdHa1pmeGU2ekZLMUIyNjQ0MW03a0VEOXl6NGp5bkdQR2tydmVURXZJV0s1ajhxdC9INEhubTlmOExqZktyRFlmZHpQZmI5bDZmUDJJTE5EbElaNUlIcHA4eFkwWjJIalkxdHQwTzNJV3NhRjVzL0Nna3Z2NjdOVUxLcVRkU1BQeEd2bGR5ODN3TnY2VTdUTHo5ZmU4TUNNUlRFV1NKNEFWdGprd2hlNHhHVmt5Q3cxRTlPZ2VhbCt5allLWkJ5WGlhcEZjWm1HekFLczVUR2xzbzZ0SkVLVXZwZnRJNENzN2FLNm1UanZiT28rVXZvV1lIcDdUOFdrVHErS1JkdDdiWStneWlTRHJKc1dxNW9rU1I3ck8rdG5qSGhBZmpWemlkZWVid0R3QStPbzN0SWlYNk9YYll5YXgwa1JkaDJWdW1uSUhzTzlna3k3am1jaE82Um95L25FTVkrVlVkU05FVmdzZ0x4aFZ4blk5REhQV090aXM4NC9BNWc5UGU0cVJ0dGI2N2pkUFJuV01pRlNiOGVmdTE3V0NqZGhCbkFEaHVWeG51Y2JnUGNmR045VzJIVHlnN09OODdiRDJxeGtpS0ZzSDI5TFRLWWhFMkEwWlBYTCtOcVFaUURibW50VTBUZ1dXODY5QnU0ellkUEgxTWQxVHpaNW9VWHVWcm1jVFlqWUlQWEdjbHpIV3MvdHJOdDhQRmFObjdEUWQzajUvbGJYRVE4SWJNTXdBWGhpbm43Z2p2VlZieG9PempaYThabVlGNmV0ODkvdmtzTGZZN0k5RGl2Qjh0ekg1WHhpeUt6cmtqK3JRNHBtM2UyOHhFVUxObXViVmp1OE8wZlBIZHZhYjNaZEQyQzZmZ3V5bnUyajlkenVYamQ2QXIvcXV2UlUyT293WUZrVzExSERkc09TV2wrZWpQaU9ZY0RpU3JMcnFKTWcxdGVqM1VhWnJ0dC9iSmxGbmNJdkliUEE2b1dNenp1NmZwdjlhTjRJam4yOW5jNzNZTlA3OEtEelZJMjNQV05uNEFJeUdjZGMwcU1uSHV0WnovTmVlMXNtMzVGWXhsV2ZWWDBMdGdFRDVtRUczb0JobWpGUFAwcmdXcER0SnlJbmg0LzE4aExBdElwWnl0V2paQzBWaXo0VDJiYXBhSzFzSGdPbWx5M1lJbkF5THFSMzNQWjU5TWRoMGc1dExjRDAvQldRSGUyanM5cWZDeFBHYlJzTm1hVnEzbWZQRjU2R1RYNXUvWTRuSHNNZHc3RCtuc0FLSE83QU1DM1FBU2hmeHFyc1ExMkdBaGV3QURhUHc2WmlTNExtQms1MlBLcjRMQWRaQ3pDM3c5cHl0eUpDby80ekw0YXErNy82WFVodi94RndtUXNybzE3U0xtKzc2QUszUWFrdi90NllLNXM4OGV4TVZuYS9HZHJIc0Y4QlVOWjk0TFplMm91NkZjQ05XS0FETnZDcS9ZMTYvc3YyR2dJTldKbmsrRnpJV3QxSjV0b3NmRjUya2VldC9ySjZYN0VMNmRYUjYzcnNTc0RxK2V0aXNqT1FXYkJuVGNkcGRSSnJWN3lzUFhEZkZQcEc2NWI5NzhBQktOKy9NdFh0MSsvM0VMaGtYeDVncmZHTHNuMEVXUTlnWmQ0aWFWRjJMNU1wWk5pT3FCcnY4NGhkQVJndld5cGt4MHlSeXNWd25JVW5xM1JzSEtPSjFRbVRuZ0VDTjBFTDRrcnV4MW92YlBXdUZSbGRYN2V0aG1GUzh6MlFjVG52Vjg0NU90L291anowaExYVmg5V2JscmNzbzJwSDdVZ001bTNiQzVsOGhieXVOK2JLZ1hwZXpTd3I0N1VsanVNUklrZStwLzFtdTF6aUF2QisvVVNKaGhLQUhZelNGZXdaOFhFRXNzejFIWDR5ZklGWnlxTWIwVXBnSEZXMUhoZXlkUTdsdWhpeURHQzhueWd4RVdVR3I0RHNyTzNmeFE0U2Z5WmNSOHE0SFpudngzSlBsKys2Zk5pMDFlWmxhcXViN1ZKZUExbjJHbHdTZlIybUpWN2JrWDZ6cythMXhhcFRsMS9qS3ZLK2VqcVRyYlpsdG8vMjg5bHF4bE9naGtXZlMvVGRlQzZwQmxtZmk3MlArcUl2M2NkWTJiZys3MGUyNFdQeHVXYktENzJwdUFYT0VYZnZLSlMydTVsWE1lQTRaTlkrZWx5NENLVE1NYUkyMjhmcE8xN0wvSzRBNlR0cTN3eDVQL1crN0NlK3JXV3JZemtMbWZWUVp3OWtyWE0wYVdpZG1OVGhPMWlVbHBlcDV6N2FqY3UvTGp4am42MWs3ZU8zRXlSSFFDM0w4aEQxam4yMFZFMURWY2JsL2E0K0E2ZVA3Wm5sMW1YVTdTcklzcUtRSG9MVkM5dFZTWXpQdEI3SU1uWWVrbk11bzdhcjNFWXJUbXZWczJJc3ZsWTRtWExVUFBkUmptMnAyOCtHRE9oSTczc3gwV2ZGWHpiWXgrSHRkWmRpWll2VCtOSCtJalh6TEg4TUg4eGU4OVJsV1ZlckdydVF1N3BOTG14aUk0N0g4cnAreG9Wa3lMeHRvK05ZeTYxdHVxOWFMeWFTc3N4SWtON1JIMmZ0aU11WVdaZUp1N0pxNW0zZmFrL2ViVDZ2Y0Y0Q1EweW41blc4NWczcFloZnpUTHQwRytTNHNvNFZpOWZiKyt4NzNxeTE3c3V3TldXKy9FdHJxWWlzai9aWEEzRk5JRi91c3dlNjQ4ZlBaQnE5OVQxMmxkc29GZythTFM5c080TTNVa2R5M2U4bDIzSTlYVi92bDlmSnRvc3JPRmJyUFhlUzErbjI2SFhlY25aZGRUdlJYL2hSZFlsR2R2eHN5NmhadkgwN0FXSzVoZDQramxvcjAvZ1pONkRJV3VyRzdpVlFLaDdnZVVkbDdCWmxMcjNoVURYSVZuK1l2NDdyZU11dGNtMWZvcFU5N3RRVkY5TS93YTZCb2gxN3hZbU9uTnZZYnNmMTMwbDhSNC9HL2ZtS3ArZEZrY1JFcWF3L3ZlOHNaQzFYMVZ0L0JqS2dBUnJ3N3dib3MyS3ozanF0K3RtK3VZeWRkUnQ3dkJncjlnR3NJVkcrV2xpd0xmTmpDTVh1SXZxeFdKUWNpZFo3YmZiT0lXTk4wSUJyWEtJcmdmM1piaElmODhqRmZIVUsvcWpiMkZQMzZ1NFpWalY5d1Z2enNvMzFWKzdYaHZXNmRyZmR5cGFsUUFPTzM5MzVpNVU2cll2c1Z5anBtV1ArbTVVL1k3MWpEajFWODlaYjg2Mkx1WVl5bCtxMzFsdm5jcVg5czN1VVQ5aFoxVHNLampmUzR3cjdwOERjU29TYzJSL3ZPM3ZSUjVEbHRzL0haa2RBVENzYWNDeSt1TUt1VGxlTC9hb0xOMDUyL0h5MytJeWR1ZnRmbFpsdXVZN1JrOUkveTdwQSs3ZmJVV0M5aS84elFiM3k1dktyYmlndDkxSGIwVGpyYXRBL0M4SmZEdHEvN1E3K1dYWjFIOXl2ZERPdkh1MlJyV09ORUxuYWpvTDR5MEU3YXI4SzBNOXlZLyszV21iVXlSbkxRTi9iZDNiRS9qR2cvVk1DL2MrMC8rbm5lUGJDL0V5WDhWZkVaZHIrZjRCUXVrTjQyc2RoQUFBQUFFbEZUa1N1UW1DQyIvPiYjeGE7ICAgPC9nPiYjeGE7ICAgPGcgaWQ9InBhdGNoXzIiPiYjeGE7ICAgIDxwYXRoIHN0eWxlPSJmaWxsOiBub25lOyBzdHJva2U6ICMwMDAwMDA7IHN0cm9rZS13aWR0aDogMjsgc3Ryb2tlLWxpbmVqb2luOiBtaXRlciIgY2xpcC1wYXRoPSJ1cmwoI3A1ODRjMmZhOGVkKSIgZD0iTSAzOC44OCAzNC41NiAmIzEwO0wgMjU2LjMyIDM0LjU2ICYjMTA7TCAyNTYuMzIgMjUyICYjMTA7TCAzOC44OCAyNTIgJiMxMDtMIDM4Ljg4IDM0LjU2ICYjMTA7eiIvPiYjeGE7ICAgPC9nPiYjeGE7ICA8L2c+JiN4YTsgPC9nPiYjeGE7IDxkZWZzPiYjeGE7ICA8Y2xpcFBhdGggaWQ9InA1ODRjMmZhOGVkIj4mI3hhOyAgIDxyZWN0IGhlaWdodD0iMjE3LjQ0IiB3aWR0aD0iMjE3LjQ0IiB5PSIzNC41NiIgeD0iMzguODgiLz4mI3hhOyAgPC9jbGlwUGF0aD4mI3hhOyA8L2RlZnM+JiN4YTs8L3N2Zz4=;" vertex="1" parent="1">
          <mxGeometry x="50" y="200" width="290" height="290" as="geometry" />
        </mxCell>
        <mxCell id="COKu5k5BRvisHS9Ge0iB-4" value="" style="shape=image;verticalLabelPosition=bottom;labelBackgroundColor=default;verticalAlign=top;aspect=fixed;imageAspect=0;image=data:image/svg+xml,PHN2ZyB4bWxucz0iaHR0cDovL3d3dy53My5vcmcvMjAwMC9zdmciIHhtbG5zOnhsaW5rPSJodHRwOi8vd3d3LnczLm9yZy8xOTk5L3hsaW5rIiB2ZXJzaW9uPSIxLjEiIHZpZXdCb3g9IjAgMCAyODggMjg4IiBoZWlnaHQ9IjI4OHB0IiB3aWR0aD0iMjg4cHQiPiYjeGE7IDxtZXRhZGF0YT4mI3hhOyAgJiN4YTsgICAmI3hhOyAgICAmI3hhOyAgICAyMDI0LTA1LTAyVDA5OjE2OjM5LjQ5ODI4NyYjeGE7ICAgIGltYWdlL3N2Zyt4bWwmI3hhOyAgICAmI3hhOyAgICAgJiN4YTsgICAgICBNYXRwbG90bGliIHYzLjUuMywgaHR0cHM6Ly9tYXRwbG90bGliLm9yZy8mI3hhOyAgICAgJiN4YTsgICAgJiN4YTsgICAmI3hhOyAgJiN4YTsgPC9tZXRhZGF0YT4mI3hhOyA8ZGVmcz4mI3hhOyAgPHN0eWxlIHR5cGU9InRleHQvY3NzIj4qe3N0cm9rZS1saW5lam9pbjogcm91bmQ7IHN0cm9rZS1saW5lY2FwOiBidXR0fTwvc3R5bGU+JiN4YTsgPC9kZWZzPiYjeGE7IDxnIGlkPSJmaWd1cmVfMSI+JiN4YTsgIDxnIGlkPSJwYXRjaF8xIj4mI3hhOyAgIDxwYXRoIHN0eWxlPSJmaWxsOiAjZmZmZmZmIiBkPSJNIDAgMjg4ICYjMTA7TCAyODggMjg4ICYjMTA7TCAyODggMCAmIzEwO0wgMCAwICYjMTA7eiIvPiYjeGE7ICA8L2c+JiN4YTsgIDxnIGlkPSJheGVzXzEiPiYjeGE7ICAgPGcgY2xpcC1wYXRoPSJ1cmwoI3A1ODRjMmZhOGVkKSI+JiN4YTsgICAgPGltYWdlIGhlaWdodD0iMjE4IiB3aWR0aD0iMjE4IiB5PSItMzQiIHg9IjM4Ljg4IiB0cmFuc2Zvcm09InNjYWxlKDEgLTEpdHJhbnNsYXRlKDAgLTIxOCkiIGlkPSJpbWFnZTVkMGY4NDA2NTMiIHhsaW5rOmhyZWY9ImRhdGE6aW1hZ2UvcG5nO2Jhc2U2NCwmIzEwO2lWQk9SdzBLR2dvQUFBQU5TVWhFVWdBQUFOb0FBQURhQ0FZQUFBREFIVnpiQUFCSTNrbEVRVlI0bk8yOTdaYWt1SzZ0UGJNZ0k3Sy8zcXMvRjdyR1dIV3FNNktnOHYwQkFubGFrbVVncTdyM1Bob2pFekFHVEFRUFU1SU44Zkx4Zi9BQnowYW5mSERxalZTSHk2Vk1sK3V5UVpWN1pXdjlqM1VmMHdETUl6Q1BYekNQQXg3REhUTUd6Qmd3WWNBVCsvSmpuWC9naGhram5yZ1Y1WHIraVJzbURKZ3hGdnVMbHErcUkrMnoxbS9yNWdIUDl4dW1hY0R6L1k0Zjd6ZGdHb0gzRitBZDVkL1h4RHovVGNhMDlRYzFyZXhEcmZ4T2xYbFpsMzFYWmRaNnI1ejMzU3JqY2oxdjFlMnpMK0hhNC92OTE5dUErVmMzNGYvWi95Q0xRZlBNdXdiUGdubkJ0VDM4eSs4T2MrVXUvSXZzMy8zUmY2cTFRVHZ6NFgzaUIvK1MzUGUvSGJ6VDlobW4vNy8ySS9WaXFiWWRVelMyei96Zy94ZDVjRDFxTms5RzNlbUZsbmw5ZjVzdTJjZFBNeXV1K21kWURqVHJ3ejBEZ0xXL0M3L0EvNm54VlpkYitkbEFkTzNmejdmWjlrOEE1dlhTdmVVVjdWZTRrTjUySnkraWtVRDAzRXV1OXl2TmcyeWV5SjNKZmphdGVwbjkvS1BWN1o5bFg4d1VyV2U4ZmpiV1RjYTZhQjllbVdjbnJuMEc2ck9VNzBoYzJPVTJ6bzI2bitVeFhBcVdsV3JQSHR4THovOE1PeGFuMVlyV2dpNkNMVk9mN2JPQVZQWXpYY2tqS2pnM3ZyelcraDlXdkJiWkVVL2hNdS9DQTh2YTBUL0JoYlNzSDdaMlAxclBCZC9xdE9ScjhKTmNRK0E0WExYcTVSdHo1SmhUUThtaTlWTXZZUFlCa2gzT2pYMWNVd25Yd1BYUDgybnp5WkFvKytSZFg1WnI2UzIzOW5YZ3M0dlVwY2VOekFERWRhNVFVY3VkZE5XTlk3V3RIT1ZuNTgxNzIyYnFoWFY2RXlFdCs1a3FGeVZFOUJDbnR0VXhXc3R0OUw2b21jcWlMOVJUeVU3NFhpWmduSUZoQW9icEI0YXBEVXNHQ0s5c1hBZEVpY215QjFVTE5qZkJzZTZaVGF1YnBQZUxORDhyMDlIVS9LY0xRalQwQ3JUT1c4L2xWd0I0Sk5PWUE4NVh0QWk2MWwzUlU3c0pOalNSaW5sZEM4NW5QODdIbFVYWGJTbmNaOFY5bnFzNEc1RHRHL0d5dWVOMkhXdTl0VjBtY1daYUM0YlBWS3VqZDQ4c2ZIcUFibTFmVXRkTDYrN29aUnBicXRZTFV2SUxic1ZWRE1tdlNPUGJicUh0S3FaUys5eFpyYTBGMmRHc2MvTzdFTGV4TjlIUk81RDRqR1hjdjE2bEc2dS9SZEhtNEUrYjVUcDZhZjBvaHV0VnNHZ2J4MHAxV25aYTk1L0ZPLzJaMmNxV3E3alZXMVA3a2dqNXdhNmpubysrTDJ2WjJvYzF6L1ZUMTd6bkpySWJlY1F5WUdiTmcrcGNCM1k3R1dKQjU4VnFGbXk2TEhKRnJXczZFVFBxT0kzTmNnVjk2T3p5czJwbmJjOEpqWXk2eWFNeWdPVTZhbVhEZWRmeGFHeVgybG5MZm9hYXRhQ0pZRHNHM0pocXMzeVArcG9ac0ovdnVNN3I2WXo5V2JJSnBVTHpNVm05WlQxZmYzek4wdnBoK3JGWEhjWjExM1BZR1R5bzlUSS9ZQ3EyWVZlMDFhL1ZZelYwcGFzb3o2UnR5NU1UcTBXQVpWU3RkZk8wNm9iWGpzNDJ0cDQvTy9yc1dXdmRaNW1HTGFlYVBtZ3RNT1NpRitCR3FxZnJXT3UwWmNIcnVMNDFMQXRBSXdiTW1EQlVRRWw1dWIwUHFBYXYxUS9HcHV2enRyeGNRYWpjeGkwK200WXlQb3ZBeVNpVkZRNDB2QXJmb3Rnc2NobVBRT1lkSjJOOGdRSUxUSmw5ZUFwWGJqc1d5cVBOK294R1dxZGgwbldzOVpZcThuNjk0emZXditqZHE3cWxXaTFRalFUZGZvaTZQSUpOYjdlYzFybk9ZMVl4QnRKeUc2djRyRWZSV3U2bHBXaHBpOVRNcytncGEydDdodUF6MUV3Z09oL3JyZDllWWp2dEtzcVdESlNsYmd3alErTWR1MWYxcEptcit6Z05PeXlSNmtRd3l2cWxtYkdjRGllQVk4ajB2T1UyenRPNEF6ZU5lVmZRVWpTdTIwcDZwRjFIaTlxV3kzZ1ZaRWZBc0ZSTnJOOVZyUGVlamRGNmN3SVJiRnhQTEdwTEE3d1hvRkRtY1o2QkFRcWMybVhVS3NhQWlIdW9JZHdQSFlPYjZndGI1OHV5c1pyZjNoZGlaUnUxMitpQndCQjVaUWpxZFltRjlXNFFQWDhHc3N4N1BNNjg2eU9DVFN4S2h2Z1E1a0N6MnNNeFdtWWJOT3A2b21GQmFsekw0MWJ2QithUkV4eTVPRTJVS1hJZmRTYlJVakN0aVBicENHUjduVW1CTjFrUVRrTTlHbVNMMHhBRGtYRWZJL0I0Ry9kWW5zdjRHWkJGOGQ4WnkxeW9udmtRWHRkWGE3bU5Gb1JaTUxVZFVEMFpqalVQR2k0N1RoT1lOQ0JaOTdIbG1tYU0xVTFuSGxuTjVta3MxYXlsV2xZNUduVmhiTmMwM1RsdEFkUURXUzlnVnIxVy9WYXlveFc3OU5reFJUdHIyZVNMWlVHbzlETFZTWkVTcnJiN1dHWXI3VFMvcDNCbjRqUHRLb3B0eXBaUk16M2Y0enF5blhJbFBiQmFrSDJXaW1YY3dLd0tudXZTT1FhYUtGZXJySzhsOGZHU0pyR2FUb3JvQWNXOTdxT1Y1TkFkNFZ6dUR4Uk9BS1dtMjN4V3pUSi82S3lucDNDV0FkUngyUkhJZWdCcndkRnpVZmZBZHR4R1BLZ2tVaHN2emM2dW5VN2xYL0RJMUxhUHBOc29zZG84V2ttUmFhM3V1NDlMMCszc282emJtemFieTZ5R2x0bkpFVXFDckdwbVpocDdBZXF0bTFLeUt5RTdBOWdaMSt6Szk0UFliYXdWTFlJcUd1M3hNeXlwZXA2cWNWSkV1NC9MSnJ1U2FHQUFXOUYwd3FRblRxdFQrQnF1WVN1YjV3V3lhWVV0cldZSTFyWFd3NW1hb0hIeW93VlpWc1VpZGJQcS9KUE1odFozSFQzZ0xNV1NzczlRc3lNMjJxbzJyQm05TWo0cjNVU2QrTERtWlhrNWpKMDg4YXg0bnN3Y2FsVzZsYnJmYkZreG9PZzNPNnRNRmtBcEZRUHE1TWRSeU02azh2ODkxczQ2NmpTK1dFdk5mb1hhUVIxejhsVnRWNjkyVWdTQXFXcGV3aVFhMHVXWnFKaVlqczFxTlJ2YmF0YnJKc0tvQjJkN28vVXhaRmxYTVFJc2dxc1ZXeDExQ2ErL2VFZThKNC9GOEVScVp0a0U0TzFnSzF0bWRYMFlxc2FwL3YyL1AvYVI1NWZEN050SWVUYmp5TU9yeERSd0Vwc0IrTndFU0xRdVZEV0p5NjZFckRVNCtFakNRcmJKQUhjMVhEd0VxK1U2Nmphd095bHdlYkdiek12ZnU2cC9CWGhSMytLd2o0R2NWMVViMW1kcGRLcGZ4MmNBTmxlU2t5SXl2MjlmdTVZTVlHUkZMTFlkZTMweEFxbFo0VEptL3ZTdndHUi9DU1lGR0JCRFppVTl6Z0IyVlRid08zellNb0NkVDViVVdVZnIrT3crV2pCSnZaNWtTY2JsUHBMMnA4SE13MVNyV2srcVh5dlhjcHE1ckdLUGJZT0dMVFVEWWpVN0MxUExiZHhNUXlabVFkYXJZcEhyeU9zemxsVW5yOTZSSjZwYk5WcUtsazNkUit2T1dPOSthR1NLZEdMUDB6SXNxNHpKY2lORnZKRWhYcHpINnowVGQ3R1lGdjFtQjlUczZyK2c5WG5JTWlwMjVXaDg2eTRmcVpwWTY2MVh4NjFVTkMrbEQ4UnFkaWJ0SDRIVU81ZzVlRVJuZVZPV0RNdmFYVWY5NUhVbUtSTEZjSkZwTnpGNkR3aUFyZCtzU29BQW53K1ZDeG03akMzSWVsVk5sMm5MdW84TVNldEM1SFVXWk5rTHVhMkFwYUpaNTJuRlo5WkRuNEFOM0V6em4yVTg4RnBkeDVhcWVhbCtEWmNGbERVdVV0YXppOWt5QmsvY3hsTE5ISmZ4U25leHFXWlhRQmFwbUQ3WTBiak1TbnhrNy9vTXlsVXVwZDdqbzlHV1NORzBlY0Nkc2N4VEM0QTlVSGxVMDdWdG9tbzYxYy9qSC9la3lGZ2tTNkp4a2VVSUV0dU5aTE1VVFpJZ1JXd0c1TlRuU2pXcnpJSk1MSUtzUjhVc3dJNm9XY1pGakN5amRGRjlyNWIzNFI3dHFNN2VSRnJIeTBKbUthVnNxd0I4V1plSDZRZkdjZS9BYmlWRnhETEpFczk0dlY3VzhWbGxWOFJtKzRGeWtKbHFacG1rOEk5QzVxblkwVFMrQjF2cmd0VGJYZWxPOGxiZXhUeHROY3F5cXpxcSticmlkclJpTjI4N2p0TlUyVGd1MlVkUnRXVlZuQlRwaWNjeThWbzVPb1JHaWtSdW81eHJCaFFFNVdWajJuVk1OYnNLc2dpdzdGMVdiOS96c3RPb0xPdEtXblc5STJaR2huZ0RqVE1kMWY2UlN4dG9YZFF1NzFyV0xpU3IycHFCSEFhZDZpK1RJbDdhM292SCtvZGRXU1AyYVNpV1RvSUFOUXd3bHJPUTlRQUtZRkV6RHpLeHM1Q2R5VGJ5SFZYRGRqYkxLR1o5di8ydWFUMHk1R2o4WlFFM08rWEFFc3pyRG10ZDUwZ21rc3NIVlM3VGRiU0lKRVdXYXJaaVplSXhiVDM5YXZ5Z0o3REhaNFcxbE96S1AzMDhBT1dvZk1zMGZERG00YXpUNjg5MFZudEpqeU14bXFkbWtjcDUyM3MxdkxjSVc2NmRCUkpuSHFXY3l6eUFyZmxJMmEzdm5wTWhBcDJoYWpvcE1neDFuOXF5dTF6bjlXd0FxczFTTU10a1hUUGJpTTdsWHNoU3JpTm5ISUU4WkphcjJBdVlybmNrd3hoWkQyUjl4N3J1d2MvTU51V1I5N0xCbVVkUUp1VkFxV1RhblpXcFFJYzlLYkx2b2dUR2V4MmRaNzBqUlBRSWtHWGFrWjV0d1dFQnBOZTE5bHNWY25xZWxja0NUaC9NaThHdVN1dWZ6VEFDUHl0ZUd6KzhMMkFDWHM3ZUlMUkZ5WTlJK1hwZFJYMFJXcGxSNVQ2TzQ3eTkwVml5ajh0OHJXN2xxVnd6L0txSTA0cTNXem5aeG5Kalg5VzRUa3Z0S3JQZS82RXRBczVUTmdUbHZYRmFLd2x5SkQ2VDVZd2I2ZTNEdHpINFNiRnExOEh2bFNTT1JNdWUyMmlwbWJVdlN5RjV2WFkzeVgzY2Q3OTNYdGVINlh2ZVRKdVZCREZqTTBxRUdEc3E1ejBWcytwazNFVnJINlpTdFZ4R3ZjTlc0c09ETE90ZWVTNFZsMXZBSFJudDBkdTNWcThmdjNlNGp2cHczZEJGQVBHWVNYM0E2RTNJZXZ1SjFnODBYZFZzMjJRcTAvekxibnpvOWpybjMzb0ZHSDFyMitEaFJsb2ZWT1l0dDh5RnpIdHFtamZPdW9WWFE2YnJuMG1BUUczUGF0YWJFRWtNd1pxT3hHanE4Q1p3VnVlMUJ4RFA2M3A4UFh0S1ptMC9xbldVcU9FNGJhbWVmNmFNTFJ5M0dNUmtXOWs2a0xqS09scDJoYUtsTEZPeDVaWjRLWHd1TzNnUk51M0srTTNhVjRmcjZDbmE2d2g0RUw2T2dMaWNJOVpZenFyYlNtSUEvbmRseFdBV1pKT3hua0dYQzR6Y3huM1hWaHhtZzFlUDhtQ1E0Z0hEUzdNNmdJcmlMNnQreHByZ1JXNWo1RDYyRWhwV1Bhc0IzbjdPZ1BQcXpJdFphdWJWN3grV1ZjVm9hL2NTR0VBTFBBRXVWRGVyRFMwRjg5TDF2Si9KV005Z0dlcUZhUjBsUWdtUnJIbXhXalRVYWpsc0RaaE83Uzh6b3c5TUN6WmRkc1NOTEJZOHQxSFhPK295Um5aMFVQRlJhejBRbW9FczBZOVduZGJCRWZiakFIeE1DZGc4TlFQS3ptVnZHMW5mQWxUSFpicGZ6d0x2Z0xYSE40NXFYcittWUtqTHJGL3Y5Q3dUbTFteFhjcU45SDRLMTFNenF5Nk1PdDQ2M3JZRjJaVURocTM1S0ZZNzE1ZFcxYlJPOVJYS1ZSeHF0ZU1kaHJEcEkvS3dLK3R1YktsWkZPL3BhZUF1OWxxa1JwR2Q3Z2J3M0x1TXVtWDNINXAxUlhpQVpNcy8yMXBwK2JQVzM1ZFdLNXF4V1ZHSGdOTXVwWFlsM1NRSlF5S1d5VUpHNnpuTHFBRXp5bDhtQUhlcmtZdGw0ak1wNHllbHBaNzN3NExXcjhiTTFzL2pldkdyVjNiSjlad2RTWCswZzFuc1o4TW41cWxVVnMyTzlhZU4wZW1PS0QrYUFqckh4UXhoeTNSYWV4M1JNTlp6bk1aVDdUNGVNSDRWbkZkbW1mVW9qQzUzMVhBSy9JR2VST0RwNi9obzF2RXpZN05XZXQzN29zK01VenpUbjZhMmpQSTdxWStvMGVIOXdnWGFMR1dLQmh0NzI3RGJxVWVKUk5uRzVEVWdUejliWmRiVUc3RnY3UmVnUHJSZWF5VkV2SGpOM05iTENuTFdVZHZQVGw2STlRREM5VWZrMU95NkFjYVZvdWt1UUcwYVBGRzZWelhWMmN0eDNVbWhiRjU2WGl5VDh2ZTJHZFM2S09raDYvUXVwam1kSE1tODc0UHJMdk5sSHhxUDJ1K3lLUGtSYmVPVmhkdDZFTFhLVy8xbWxyVitiQ0tySG1jVnFKWDBPSmgxNUFMcmMyY1gwalZTdDlmUlgxY2RMQk92ZWRzRXNWZ0IzbDNWQytNelg2SDJaaGh2c05yK3lveWoxTmZUOUhDdW54N0taQS9ZQ2lCNzl0V3lTSjFhWXhSYnltYk5aL1pyYmVOYktobkMxN2FYbWZ3T21FQzU4WnIzWFVYbmIyMWpwZlF0NDIwTjJEeTFpbUN5RDJXbjlQVzBjREc5WjlGK21XVnVyVmU3alZmK3FvdTJTTm1zK2JPUUdXTWR2ZS9UY2lFOTk3SGFSeFkyYlo3cnlER2J0WTFXTDFZekFUcXBabXdSVkY1OHBvRmlCYlAyTlZrdjRnRitNbXpldTBHQXVCL3RaMXVrWmoxdVkzUTNaOHQwRjhRM0NWUFIwb2tRM2huaXJHUXpPZUladzZaak1wbXlxbGtwL2daZ09wYXlmbnlDWWZMY1JzOTl0RWJ0RjBwbWpkNlh0djhVTy9PY1dCU2ZYV1dSd2xnSkRBdXVYalc3S090b0ZiYmdPeHF6eWJZYmJGR2lnODF5TGExTUl5c1kxUEpNeTBVVk8rMmVnY2xTS1hZeEk1VTdiZHcvK2VtV2ljOWExdFBvNkFLM1BzTW93Mml0NS8yMklMc2c2K2h0YW9GbHVZK1ZHa2F3Y1Rqa0tSZXZZOWRLbEV2NjJNVDkwa2tRcHh0QzNoMVNsVk4yMFZJb1BSOHBuUVd4K1VLZUkvYXBrSDAydmEzR3R6cUhvM1I4SzZacWRVaGYrMXFETUJraXU4d2tRMEx6WUxQYUYzM3VHaXc5dFZ4RkFlNk8rZ2JzdUpEMmVNVDYxMTZXM2VUY3htVzdzZHJudHU0SVlEOWR3U3k3eWtYc1VmV01HOWZxTC9QV3R3WVhXM1U2c281ZU9oL0k5YVhCV2E3TWd1MGRlT0ZFUjQ4N3FiZnhFaUI2bXNnMHpoak5oSVlGVXhTM1daQnF3UFFQV25SWkJySlRIdWxueFZpdGZyTFd0dHE4aTErclVROXduc3RvcVJzZlg1dWY3ak8zYVBXbHRlSTFONWxpd1BiYTI5bXFWVXk3aWxFQ0pQRkVnaDZqS01zVEFaTk5nbGgxZUovMnViNzBLWlVGbmU0N2pMbzZMclVzUUwyd1pUdVBXd2tPYTF0ZW40SE0rakJ6N3hwSTlhTUI5dmZQUUlXeG1waTY2RjlINTlHYTZFYXZJZUlFeUVISXl1YlpJenFPcWxuVTZWMjltVmpzNnZ6Q0lkaCtsYkwxdW5DZXk2am5NMnBtN1N1Q3JPOWxIbTU2WDR6NzBZRDZ1L1NnYXNFbWZtdVk5dWVMUjd1R1VrKzdpRUFhc25rRXBzSFBEaTY3c21PeUNDclozdnB4ZUMrTys5OWxQUjNUbVNTRzVUSm0zTWNJVWcreVk2K29TcVgzWDZsY0E4ZVpSM1lsOWJaNjNRZ1VUMndYbWNob3hJZ0dUS0NUOTRMTUtFSFUrMGlveEFRckxyTlZMSElST2J2b2pqWlpmem5HYVV5Zi9kSUVpYWRTWnhyVnlqaEc2dFBqUG5weG1GWC8rSHZnbW8vSkFQNmpNcDVpV1hGYnhVZzJFNWtaY21XTkFOSGJKRWFDQ0R3MVlQdGZSczBldURWaDVFUkk4UzdIclBWZXd6OU5RQms2ZlZkc21kZkliQ3ArYk16citobG9aZm5VaXhhTFBabG05UkZyeUJnNC9aR21QbDdyZlNXV2d2RjhOT0lqTzl4cWxDYU1wb3UzYk01Z3RXT3paUi90VENXQWN1aVZibit2WmFGTHdTYmY1dEh4UWFjT2JyVEZXL2FnaU9hdGZYdytaRUNRRE9GVDFOYzdVTDY5SWVxMDV2MVlidVYyRE8reEdnWk9HdVNOMEo4UngyY0MyZmhsbVJJb2U5a09SajdUMkhZdGdiMy9yRXFFOUpxWGVXeWMrK2ZhbGFsOExtdWw1YVA1VjJNZGI2K1hyNEZNNzdFeWpzZkV0RnA1cjBwaENMMERXcVA5dDRFYTNsUFVPblY5eEdpN0dxNFNwaDQxNDNWVzBrUGN4aW8rMDA5V3M0dmNlMzZmMnM4bUpqREpBUmt1N3dydzlwVXBiMEZtYmRmS01uNCtaSHF2cmxuQVdiQnhRb1RyWlcyYVVUN0hwdFA0YkhyMFI4c0l6bzl4SDM0bGlxV2hzbUkxS1h2Z2hpZnVSVHltMTNuQWJkT0o0ak45cmxmWmlQaUdWSlcvb0hZWHJXaGJ5cjA4czVkS3kxcTI3MHlYZThCRVdjWW9SanNKbWZHWmoveXhlc2JxMVlMSXFwOXQxOWEzcHRWTkp6MHlEWWdPTUM3ZTJwN2FMOVA3SG1CK0JqSXVzNUlnVy84WkFQQ0xlYXhwOWp4Nyt0RUV4R29iRFpqVlc4cVJ1dDVKajVMcGZWcHQ4T3A0S3RSS2lrVHJEa0tXdkFhTGFrY1VDS2hWcmRjcUZidkM5RUJqMExRUWtYS0lsT1UyUG5FbnhkTHJibmpnN3JxY0hMY0IvR2lNd0laZm1KNXZHYnNZVXVabHJvQmpWd0lmeTlyUFVjaWlmclVEa0xXdTF6RmMvSWVhNVRxT1JybWNEWmZyRVNUci9EeUMxTWQyRy9YOE0wamRsMmw5di9ONkh3MmlSdXp6bTY4czRNNUNtSTVyUmMyODRRbUFyV3F5cmJkTmREekxXZ2tRWGQ3S1BMWTZzb0VVWkZaVGV4WHRESEd2TlBVT1pDVnJYNkVTSUdiTGttWFd3NkFLckVMaHhpWGpxR0d5NHlrNzR4aW43Z2RTT0xWZS9YenUvc3VlYTRNdFYvRXpGQzZNM1RSazFtaFdoazhuUW9BYXVCN3JjUis5cElpbGNsSHlJd21aRVhwMDFRZTJGMVkxcmRXLzNxcXZ0K043U3JGK29FNXJ6L1hUeTFhZDRFOFNJUUxHRTNmTUdQSEFiVTEwTE82Z3pEOXgzOVRzb1pZZjYxUzdrYXh3VzlrS21hbG1WbHhtelFQWHdtZkdhRHFsRlFFRzdQR1pyTlBmK3RueGpGWmREekJldHR6RkE1QzFBT3U0bnpTclpuTkFubmkzUFBWeFdPS3pjVlJ4bW9aSlE2WG45Y0ZHcWhzQkowSXk3UEdXUUxLb2o2OW1UeU9qT0cyZ2x2TlYzOXEwcC9STk5kTi9uaDBGTG4xQnlFWEg3aU9iQm95WHZSN1Vub2IxcFBXbGpJRzdFREp2M3F1ZldkMXkvNnk2VWJlaGxMOGEwK3JqMUdybUFTUExHa1FObUN6Zm5ma1JlTDU5VVNwMkx4UkpYRCt0WmxaQ2hOUDdZYXEvVUxNaFZqT1p2MExKVE1WUzYvVDhwQmN5UGFIY2g2YkxldXhveGxHWFh3aFpGckRNYWFvNlkxTnhqTEtvQjhJNkxROHlWck1YVmlZR2FNUUN6VjJWODkvYit1ZXNZN2RSSUJMZ25wdktqUXFZZStFeTZyanJ1YnFiMmswc1ZHMGU4SHkvbFM2ajlUdlZnSzFvWHBrMXI0MEI0ODlpb3ZuQ2RJekdWNGdIRTd1T1BYYkVaZFRsMWkzZm0wK29HRSs5SnZhNGpwbTZWaEtEaitVQmw0WHNWZUFac0lBaVlMMFpaVkl1ME9sNUJ2Sk5UUWZnY1FjZXczMkx4MFM1TkhCYXpmYjFZeEdYN2ROZDlSNGJZT3M4UWZiOS9hWWdleWxCOC83WXNtTWFzd3BZd2ZhaUNudE1aeDk3dDdNYTVkV3hvTXZjN29HbWlyVUFPd0ZiVVMyNkh4M3R6V2hCOXR1ZGxDeUNURU9qUVJMM1VBUEk4M2ZnNHcxNHZyMnFCTWZkZ091MmxmRzhCZG51T3Q0TGQvSDV1QlhKandxeWQ4UlFaY0E3NDA0eVlCV2NSOVhwU0lQWU1qR2FudmV1UHIwdWdDd0NMT3N5Tm9DclhNZHNqTmJUWGRnTjJSdVZLVmdxbDFKZzAvRGRhWnQxbmFkbUdpZ05YVGwvQzVWc3p6aVdrRDNmNytRdU9wQmxFeUl3Nm1UR05ucHVvcjdRS2xYN2JNdW9HZGZyOGFlQUxoWExLRm4wc1FUckt0Qzh1ajJLWnNIMmlnVXNjUlczeEllT3Q2eDVEWTJsYkt4dSt1K1BmUnFyMlYwQlY3cU0rL3k5Z3F5S3plYjdsbDE4dk4vM3hNYzBBTyt2T1ZmeGlEc1pXUVNYck9NcGdEeHMybVdzaUEwYTVlMnJWY1pYbmxXV2lNVThkN0hsUGxyTDF2NjV5R3AyYTF2dkZDM1lySGhzSE5hM1grbDR5Z0pNSzVLR2psMUlCZFJXUjgvZmdXOS9mTUczNFhkOHcrK2JtbjNEYnh0Y1Mva08wOS9yOGxMbmptLzR2WUtzaU0ydWlNZU9xbHZXR0M3cmdpdjJaOEVtWUdrcU9UNDc0blllamRXU0xxSlVpWlFzcTJKSFFQdXRzVTMyZm1JcG1BbFlTOFY0bVZWc3hBS1JUS1dPelA5Ui83My9BVHp1TzFoLzQzZjhqZDgzZ1BhLzMvQTNmdHVnKzl1QVRBQmtGWHU4MzdZK3NoL3Z0LzZFUndSWUZrSkx1VGk3YU0zckwvWU5pMnU3MlF0dDVEMGFvNit1bzRvR3RJR3pZRXVNN0lqQXVrTE5HdkNaNmYyV2w4eW5yZUVMQVJzUngySlc0cU9sYXF4bWY1UmwzLzhBdnYzeDVvQzF3S1VCbEhJQlRpRGJZVk1Ka1RVVzYzWVRrU3kzNm5uV2s0MWsySUR5U3pWaGswb01tU1dGdllxV2RTVjF2ZVN3cVNPQVdaOUoxTXlFaDkxVU5FKzhXZGswWU1CRmJxS25haTNRL3NRRzJkOS92aFlBYWJqK3htK2J1c202UmJWK0s0QVR1R1Q5Yzc1dmJtS1I3RGdDR0pjaG1MZTJid0dvZ2VKcGRPZCtzL1l0Ri9jcmxsK2YwWkJka2FYMHJ0Z0RvK3BiWVBXcTJRbklBTlQ5YUQyZThnYWRVakFnY0JPMWlubVFlV3JtcGZjWk5JSHMvMXNnazdnc2dxdGMvM3VoWkRwTzA1QTkzdTk3SEpaTmRPREMrUjZ6SUFOeUY1SllkVng5OGZOVkUvMEVsTFg5Q2JQTzRTeHMwWHhVRmpYVFU3U3drM29kUVdTcEYrQUFOcUx0SG1xd3JHWFo3ZzhxSTdkUmxPemI4RHYraTcvd0RiL2h2L2dMWC9HWDRUcit2Z0hHcnFOQXRzVmxqeHNlNzdkRnhTUU9lMWR4R0tmdEVTd2pVUmJWeVNvWkwyc1I4dHhGcWF2LzlQNmFzRi83R29ETlBGZk9nKzJvcXhoQmxnSE1xRFArN3RXbFIxZjBnNW1zWElBeGZLb0ZtS2Rja1lKSlBWRXVubDhUSDgrM1YveDMrR3VENkwvNEMzOURvRnVtKzkrZjFUcnRPbjdEYjNqT2QzejcrdHZ1SnI3ZkY4QXkvV0c5TU9scGF6dGV6OGJoVStzdXplN2lpTnp4TFd2QmVQQ0NiYXJPVmU1aUJyQU9WUnQvQzk2M29mM0tBalNHQzRnQmkrS3dLTkhCQUFhcC9ZOC9sZzVwU1h6OEZ6dG9Xc2tFc0FYQU5tUi9QMzdINC8yRzk2Ky83NEJwOVlwZ2d6RnZUYjM1cU15TDNTempDNExWak91MmxPd0swS3gyWmVyMHFwcE1qNnJZQlc0akFJeS9lVDliaTFMVnFtZkU5SU9Xdk16akVqUHhsZ1ZhQkpoYUo2N2lZN2dYY1pZR1I2dVl3R2RCOWw4RjVmTnh3N2V2ditQNzE5K1dPT3dkTldEZVVLb3pnRVhyb24xbHpicFl1ZjI2ekhJN3ZUYXpaZUhQdHBYTGVsVXRtbnBsWGpzeTY2VEthNkJveFE2c0o1aWxmRlIvRm1BTVZqUnVrZUg3USsyTFlyS1B0MTNGbmlnaGt6aUwzVVdCYkYrMklmdjcvLzZHYjE5L3g0K3Z2Kzl1b3Y3THhHVXdwanh2TGJmcTlDcE02eUt4WXJrb0xzdTAveXJMS0VwVzFUTFRhRDRxYTlnSUM3U0ladS9wNXA3MHZRZVlnTlZRTUFIcytiWWtQUGFPNUZ1aFpxeHVHcWdTTk9WQ3pyL2oyOWZmRmxmeDY5c0MwbGZVYXVhNWpERG10UjF4dFhxZ1k5T3dlRXFtNTdPQVpXNE9aeTF5YjdQelZ3QjJVczJXYXV3NlJ1L3ZpTlNNNTczK3NCNzMwQ2o3ZnQvZFJOMlIvSTFBczJPek9pWVRHQVd5Ly83bnI5MVYvSW9Tc2g3UTlKVG5leXdEWmhZeUx6YUw2dldBbGxuWFl4blFlUG1JZS9qSmFyWnN4b3JXVWpNcGkyRHpzb3NacUJ4RiszNWZub3grM0hmMWtyNHRnVXVBMHlNN0JLcS9GVkE2VVNJWnlRS3lyNjg3WUF4YUpqYlRVNTYvMm5xQWkyRGplZ2ptVzhmcnJlUFpGYUJaWmRuNnJYYTAxaFhWV29wbU5ZRGZ6Y0hEcWJTU1pSV0wrOFpVb2tNQTAyREZvSld4bWxZeTdTNXVhZi9IWDN2UzQ2dFNNZ3N5RHpUUVBKQy95QTdlSlF2N1RNaWkvZmVBMUZPMzlabGt3T2dGS3dQWUpZcG03ZVJNRXNSS2ZtaWdMQldqUk1memJjOG04dHVuSXJlUjU2Mll6SVRzUDRqVnJBV2FubVpNdTIyNjdFcnJjUnZoMUwzU1ZjelU3d0dObDgrNmlaK2lhSDhrZDJLNWpSNWdNcytnc1Z2b2pQRGdPSXhIemN2SWVnMmNmcHlGUWZ0S01WbWxaUC81Qy9qNlVpcVpCVnNVbndGdE5XdmRJVGt1dXZDT1dxbFQ3M0gxK3BaOXBxc001RDlIUFgrRnUzamtzeDlsa2tudmUyb21aYTJub2hNS3hwM09ucHNvYVh6UGJaUXlIWnZwRG1nZGs1bVEvUWNsWUJab01nVmkyTHpQVXkrMzRpQ3Jmc3YwemJBbjNkOENyT2RDKzdmQUZzMTd4OG1zcTZvR0hkWUZXSHFabGN5S3phd1JIMXJCYUREd3g5djZjT2E5Zk1CU0QrNWxGZU5Cdnd5V250ZnVZcG40ZUxGVmpFSHJ5VGEyUGsrWjUxVDZFZkFzMDl0ZDRZWWUzY2ZQaGkzalRwNEY3SENNeGpCNU94MVJ1NDhNWENiVGFLaVpKRHdFTWxZb1ZyR1dxbG5BY1QrWm1maXdYTWRXUnpXTXFmOXA3OU5NZ29LM3RXSXB2Wnl4aSs3UUtic2lkbXUxNllpeVplZXpiVWpValdNMEx4RmlBYWJWakYxSGh1eFBiS3FtNDdGOXBIeXBadnpRcGVVcTZqaXVIT1doNGpYcGpQN1BYMlhpdzRPTVlmUFMrbnlCZUFCNHJyaDhqcjN3eWJZWjRIN2kzYnV5WDZsc1J4WHM0aHZTV0NoWnE4SFcrRVpXTTRhTFZTMEJtUVpHdTRiVzgyR3NadnI5SDA4RjdEZW9FUi92cjdXYjZFSDJGVzIzTVpQNmJvSFVxMnhaOXhKcS9SbTM2WXo3bU5uMmJGZklFVGN5czEyclBHbDFqTVk3Yk1WblVWcmZnK3hlUTFZbVAyekl2aEdJREpmbk9qNXd3L094UEVlRzkzczdmVytWczVweE1pVCtsR3ZJWkhvRW5OYStlVDFnWDF3dEFLM2xWamxRMzJBaU8rTCtSdld6Z0dXV28rTjQ1cnFPWHRheHBXWkEvTjRQcjJOYWQwSVBPcEVoc05XUVdTQkdrT2w1ZWRSbEd5RDgxUmdnN1AxcDRGcHVZMCtIOFJVd25kbFg1TUxDbUxlV1c4ZG8yVkhBc3NjN0E1eFhsajIyV1UxLzhHeWVtc2s4dTQwSnlKYjNLOHBJai8xOTlqcHIySUxNeWo3dWlaTnkvam5mOFhpL0xhOGQwS1B3TlVTZXN2WEdaOWFkdkFYR1ZRcVdWVFVMcnM4Q3pySXJBV1ByQlM2N1RlOTZjNVA3TnVmdjBBSXU0emFTQ3ltalBmUndLZ2FEM1VWTzhXZEdoaFN2OGw1ZlBiQ054T2Y0aStjOTZEelFBRnZOckpTOUJVYlBuZFBiSjVkNTIrdjVER2dXZU5aeTFucHVLcEdIMExJak1FWDd2ZUNta0IvcnlLckdzT21NSS9leHJiREprQ3ArKzIvWkliMnJIQVBvdmZhTnQ5L0tIc3RMZEg2ODMySjRHQ0N2akdHRE1lWFA3YWlMSi91d0VpcDYvcWpieU1zdCtIZytLbVBMcUpqMytXVXNjM1BwTGV0dFE4UGFNWnFsYWg1c2dmdjRYWTFiOU1BUzhQU1BSdFN2NHE2VmpiZXZYY2JYR2lDclg4eGFmMGJSdkMvcWFQcWVselhNZWptelQvM0haUWltUGNmSjFQL3NXTTBydjFMQkV2Vkg4NE1VeThSb2lXZlBQc1lsTHB1Ry9mZkhMTENzSDVTUVgrVVVPT1UzekN6bzlycktaWHkvdDlYTTY0eTJGSTB6anBGcEVNOWNTQlpzZXYrODd5dkJnekhsZGh5eHo0elZvdjFlQWRpQk5zZWo5eTAxazJrMG1KaVNIM1ZjeHIvYTR2K2dSS2xXM285T1VKM0NaWHp4NGJKZ3lpcGFyNTJGam1HVE10NC9sek5FMlQ4WTg3eHZhemxyUno3RFhtdTE3ZXo2RHJQSE9scWQyQm82L1lVRXo1L3BSMTNraDliM0gxd3ZmN1oyL3hHL3NWU21GU1NwcDRIU3Y5cTUxVkcvNkZMOXFxWVhpMlVVemNveWJtYTlNTlI0dDJIbTRyS0EwdXU4L1J5SjFZN0NaaDB2ZS94ZUpZcytzMDl3OFQ1TFlkc3hXaWJqcUdNMHBXN1RBTXpqbCsxeEZ3MEsvMnp0N2g2VzhkdnVLdkt2YW82bXl5anZ3cS9VekV0dTlQNFZKb0JGVi80QjRDS2c5UHBlMDlEbzVhdGdpOHFQQXRaN0ErbXh6M0pialdQa082eGx5by9Jc051NFR2V3JCL1pmd3VRa1IvbXp0VnJadkI5cHIzLzRiOWgvVTNxV1gzVXgxQ3dEV1plU2ZhakM2Q2RsSGVDeTZwYXR5OXRFNVJaRVY4T1diWmRuVjdpV1Y0RjB3WDdpWkVpa2FrR01waUhUUDlqSG9KVEpqWHZsQnJMTHVQOUkrdzRZcTluK2crekdUeVo1c1ZtM21nbGtHakFPa2hpK0VZZGcwNSs3dnN0SGlaRG93dkJ1b0QzQWVmdTUwajR6aHZzWlNsWWQwaHU5YjMyUTFxdm05S2lRMFlhc1RtanNhdlFrMTArN2tSbzJ5NFY4YW9DMW11bE1ZeTlNcmRFZkJXUjZSZWFIMGsvQUpwdkxOcGJhV2V1dDdTT1kzcHh5R1BPOFg3UE5GTDlPRjcyWC8yY2tVeTYwL2lGWU1xVVk3ZU50aWNtZWIxOHdqN3ZyTnl0QTlLOWs2cXloVmlaeEk4c3kyNFVzWEVkUHpYcGhnMU1Hd0liTUFzeFNNLzJEZlNkZ3M2d0ZtRlczQnpKWDFSUkVvM01TNDJ5WFQ5WURrQWR0K2dVUzFXbmo1dmJaYTh1cDAybjlNUzdaeFhtVW1HdzArNzQ0Z2FHVEhUb2JhZFV2WWpFMXJkUnNHczY1aHMzWURDZ2hpeWl4WEVncHZ3QTJUK0g0KzR5V3MrcTIxZjNZb1ZJUWZUR0FHanpJREp0UGdmY0VnT1VtZTVWZHVTOEFJLzUwMWlSUy9COGoxc3ppa3NKZk9xVHZCV1FNbTRaSUs1VlZwbFZMZDFUcjVVck5ydmhSZHRNNExtdXAyaXZ0akpjL09XWmo0Tmh6OGR4Q1Y5bFd3Rlo0Qkt4aG01YU5IenNnODJ3NmVMSFBIUXJuQW41Qis0dmRtVmxIM1U1eUh3VXVZQUhNVXJFeXF4aDNORE5zbkw3ZmxhNVV0UTNHbjZwbUFwZWU2bldXTVdEOFFSK0FqWGxscUNJWHNxVmMxZndPMkpkeExzQWFDVGF4SGlXTDdKYXNWOFB5Ykt6ZjdRak1QU0NMTlVIN1dPY1pybVYrS0ZSc2dxOW8zTkZzcGZ0blVpOVdPdDMzWnNkbVk1OWlXWkRCcXN1cC9Fd1N4SE1aRDJZakdTUXBtNXhweHBwdTR3TFpsN2NuaG5IZVZHc3NnSnN4RER0WWc5SDRFZWZBbTlDQVFhNU41OFJuL3JFL0taK0c4S2JnQVhwRXJjY1BHaG5DKzU1SG1aWnd5VWxwYUVTRkpsSTBhM1JIbFpvM29SdXhKengwYkRac2FyYVBBbkZTK2tBTUdDL3pkRE1Mc085ZVpmbDQxenF2S0pNaEhiQ3htNmczMFczTlFCWW1ObEJEOXZiWVZFd1ViSkMvRmE0QlV3SFNRRkR4OGhIemxHMnVBSHphNVlNTjZ6elVIOVk4Ny9WYXl0d1RWNDZQVmRFRXBHSkg2azR3RGN0OGRiRVRBQTlTTkI3NHkvMW9yWFErcXhsbkdxZHBLTlVNYUx1REdkZXhNS2JTZzB6S1hvMTFCMkRqWGVpcXJaak0ya2JQYTlqRVhkemN4aDJ5Mjl1akFrekRKZCtHbUZZMFM4bU9nbGREVlJxRHhPbzJXS0JSV3lZTUdBYjdwbW1wcFZieWxvM2YvckFHTzVZN2xwT1VxUVhZWkNpYTdpL2paSVlYaTFucGZNNDBsbW9tdnEyaFprY2dnMW9HVUE2ellqaThaSWhlOW1LMEJHeWVVTExycUNFemJ4UjBDRDNQc2RuYjZpNHF5RzV2endJd0RSZERKMVlyV3piVGt6ZDlqZDYyTWdIcVdjR3BZWnd4Rm0yY01WUnQxdHRIN20vVHRRVXdQaWxJOHhxM3c3YTdqQm93VnJSU3dlcWtDQStsaXRMNVBFcGZxMWs2Q1FMRUY2NEhISUE2NmVGbEhEbExJZXNGTm9ickFHeGVYTWJBOFRZOGRmK1dtSXdodStPaGJuczdjQUMyc3Yxd05YaGlWN2lTR3FhNmJER0dDbGhneklLb3Q0dmJrRHVuOGFFOFlFdWVOVmg2eW9CcFJhc2hLb2RRc2N2b3BmT3R6bWxXczgxdFhCcmxxQkpxa0x6a2lHdFduMWtVbzJuWmFjSEcrekJnWXhlUjQ3T1dwV0Q3QUZZWFVTQzdEWS90Vzc3aEFhMW9BaGRESithNWxHV3pjdUI1cXNFd3lQWHBRV1VCS051eHduSGI5TGE5Q3IwcG1nMlppdEdVb21ub2FrWGJsVWxEeG5HYWRobTlaWGRhcWRtTEgyZEZZRUhWQWRVM1Yxcm13YWZqTkFzMlhWZlhGL3VBcTJ3Y24yV2FwZXU3bWNZSFh0K2V1TDg5TmlVYk1lT0c1NlppZWg3WVl6VHRTaTZIdURaQndna1JWalhyV2wzS1M2RVlpbld6dXcxRFo3VzdGVGRxRzcvaE4zZWxGNmN4ZEphcTJTNWtDWjFPMTNNOFYrOVhmUkJSU2gvSWdaVjFLNnVWVmg4YW5PVUlOc0JPbW9nUlJaYXF5WHgwdmd6alNHVkt6YjZzMlVWSmVvaXpQMkRDSGMvS2JXUlhFdGd2UmdadlA5eHhkOUs2c0ZzdW9zQ2tyMW5lbjFZenJXU3lqVDRIdlgxUHU2c1l6VG9wYnFSdUlLdmFvM0FSeXppTklhb2Y0Tnc3cDYxWVRkekd5bHF1WUZiUm10NUFUNStaTG1lMzhkVll6NDBCM0hqTlNvSzB6QVZNL3FiTlpSekcwbGtYeU1vNDdYaHlKTHBBR2N4V25GUW1RVXAxMDlmdFRkV3gxcVBZajdSbHFNcXRHMFVyR1RKZ0ttTzA4aVRzZzh2SEtnZG94V2xXTXNTRnlGaldhdWE2amVWWnQ1VXFreHdCVUQ0NTNmSTVNK2JKVXVSQ0hqU0dTcys3c2RrQzIyMG9mUThObVhZZFBVV3o0N1U2V2JLdmk1U0JSbm5RUloxeEV6MVZzOVlQbU5UNjJYUWJ1UTJwWklpbmFMeEQ2eTVnS2RvZXEya2xLK01zMjBVc3QrY1B6MDJDUkc1Z0JqWmVEak9PUjAyckdDL3pPbTdFYTFsc1pSdDd6Y28wU2dMay9xeWlZb2JNY3lPQk1nUDVtV24vVmlaUnJrbkFCazlESlVESlZMdU8wajdMWmV5SzBaNk5FV1dSMjJoQnA4SFNpWkU5TlY4bk9GejFVc2VxMU14dWJBemJGYUowcWJIdng3RWJZQ1pGMkp2eXppSHFwRWE1UEJndVl3OWtzYkxaYW1ZcFFhUU81WVZkcHVkdHRYcWExK213L2wvS2F1amtXRnJST0c3ajg0cGNYR0R4ek9sazZnMzBCYzhuVlNjdGFzaTBjdFVqUDByd1pQL1ZWODZ4bVRYa0ttTy9GQ3hwZ1BXbFdNcDJZRGRzVVd5MmxlMXVvNzRGM2h6SW9sZ05pRlhOY2l1WDVkd1g0Nlh6SXplUm9aSnlEenBwRDRPbjI4MXFGblVGQUk3cjZQbkJtV1FJeDJwNm9MSHVHM3VpSE4vb2pRTFJBSnA5WjVabFhNZVV2Y0R2L3dKMi8rM1ZXT2RaTm52UllWNDh4blhNOVA3SDVqWXVveitXYitPR1ovR05abU8xWmZjTW5hOXNub0w1TVpHZnp0Zlhwd2NYbDdQcnVLOWZYRWdHajl2bnVZOThYbTR5UkRkYzc5QlN0d2l5VXZWc2w5RnpJNHUyckc1allWWnErNnhpeVFWbzdrZW40M3ZndWlqQm9hM0ZLOGRoZ0tOdVUrVTIzbGVJK0Z2TEpFVDBOd3JVL1dxMXN0VWZ0TmVKN1hsZmxwb3hkQnFjTXRrUngydnNQbkliR0VEUFJrK0t2VExMNTlYbEpUQjFCcExoMmorWThtc3Q5cW5jeGkzYjJMSXNjRHhpd3EzRW96azQxODRwZXpFTm1kV3BaZFZMbWdXT2RSaGVWL3l4MjFqZUhuYzNjYW9nczRFcjAvd2VXSjZpUlRGYW1maUlzNGtNbmJST3d5VmdNWWhzR2pZOXYzKzBkZnpHRmlaRE1pNWs1RHFXeXpWSSt6NzJyM2d2cDNxVm1sMzBraGR0Sm14ZTM1ZE96V3Z3UEdBOHFCakVWNnBMNXhtNWhqeTEvb3AxdGR0bytScmwwS3NZTWk5ZU85T2h6Y2JYaVFCb0tacWdOZEcxcDRIYmwwdmw4dFRLZ2kwcUI1YjdXZk5rNUlTQXZPdG9MZXV2ejhvMHluNHI0RmJJcWlkYnIzQVQ5VlRtSzlmUkdzMmhPNXNGTnF0aEhtQ2pXcmJnWk9CUWcyS1Y4eUc5N1J5MzBmdjJibXVNWmtIbUQ4dnlzNUJXOWpGU00yM1dNQ29QcnQwbDdBZXVQR2JPUmZSczFBMjBqQ0dRazFxV1kyWFRxWDQrd1NyUlVhMHZnWlA0ckhvQlMyOWM1bDJVZlBGdTlrSVZXOGJRQWJiN3lKQnBOWk9wb2RwdVVzTXBpNVFPTU4xR08yb3ViNDhXWkY2OEJ0UWpSaXk0SW5XTHN1TVNoK2wwdnAvNDZBUE9pOUVpdFpNMkZlZVM3YkRXSjh1QXlUcE85OXVKa0RyaFlhbllObThPdWVxOHMyVHYrREpmcVZyMmVEcFc4dzdBYnVOSTg0N3JHUUhWV25iL0lyZXg5azN1U3RXeWtHVTd0YVhjbWdmaTU4M3M1RWNaaCtsaHliS3NreVA2V21mWDBWTTVMNlpiamxHQzJPMDY2cE10WWFuNzFPbzZYbWUwWHhlQWNoMFRTWkR0ekp6bG5ndHpBKzNGMkdHUHRXSXlQUy9IZVNtclhmMEg5U1lyY2h1WFEzcTN6RkxoZHVqcVIyaXNOSDl2cHphYmRVTzIxSXlCdXdIVmNtK2NkY2FxRG10OUFtV1o3VUt5dXRseFdmMDF5WEgwUE84LzdSTlhNWlVxdDNiUkExMFhiRjdLUDNJZFdkRUNkL0hTdjQ4dFByUGNSanVTM2xWTmd4VkJGb09YZXpwYm16WGtpdnZKMkRXc0ZTNWVsamFjQVc1RytUemJhRjNnMWtaaWtmdG9nVlhYR2JmOWFHQ2o0NGZtUWNaMU1qSExpT1dSL25lcTY4SW1CK2YzZ1hobXdhV1hqUXdqdDAxUHVkeGJ0djdlSGhqR0NiZTdkZ2R0dDVHbnBmdFlRN1lQMDdKZHllWFVhbmR5bWNiS1ppbmF2cWM0RnRObFVjaWszVDZPMVNKM3NkeEhHYXMxeHpwR0o4ZFRMK05ZcnQ4QjA5dnovamY0ZXQxRngwM2Exa2YxUE9pV0JxMzJvaXBveUNMaWRTTWFjSG5uWXNIMEJ2K2RqSTIvTGExdlpCc3Q2T3lrU0FsZk5EVHJoc2Q2V3JYUzZYSXhUOVc4WjgwWU9rbkVNWEQ3OWY0STFDMS96VVhnN2ZHaDR6cHk1WEs1YjRTSXBXWXlId0hYYmEzcnZCY3lWajZBWUFNV2FEN1V3YU5PWjcyam9BOHdBNzhGVkFTWjhaWXIzMjFzcWRrRS9wWXR5THgzakhobGdQMTB0bWZzTHRZWng3a1luVFJnd0FNN3FMTHMyWUpmVHIweVZvME1ZYXNWcHdac1dmWWhLLzFvWTNnVnExajI1Q3k0ZWtES3FObmJlZ3ozZDZzMWRBZXQ1eWFnb1dGVjR6SmVSMjdqMG4vbVJkUDg3ZVdBc3lCcnVaSldjbVJadHUrY3VwUGFTdW52Zldqek9qSkpqM2ZjWGNjN25vYWFsYkhhOHJYa3NwRGhWOXphd0FNdDZrdGo4L3JROUg3NldqMEJrN3F3QmJnSVBEMGZYY1JpQXBrQUpzQzFIaXBObndPMWk5c255NTU2c2N2b3hXL1Z0dnRva051d0ExSGZGdjFnZ01zMFNCb3lQZDlPbUN3ZnB1eGJXMzFoUDR1YnNsWTFkaGtIVEhqaWpyMVBiU3ptbC8zNjRkTVJxQ3dMUWVOMXJWak5TL1hyL1UyMHpQTlJlNFp4M2p1c3g0OWxHQlpEeGhlV3dQQm1yT2RYV3I1VE9UL0wxbnJBTkxMUm1HZkE5SHhXMFNJbE05VnRVYkxibTR6T3I5M0dzci9NSHpIQzhPeURqblZHMG42T1RjbzFXSllidVgxazg3eTl4QmZ3Qmt2c2VDMXgyZ0xZaUhtZDM5M0paZHVsZkdtTEZhdjVJMFo2T3ErWDlnY1hkcll2VGVxMlV2MTYyMHZpTXdzeUM3Yk1SV3lwV1JZMG5yZmF5Zk5IWWN1NmlWYjVDSHhaMzNKbGRWSzNPcXhaaWJ4RWlCNnlwU0ZyS3R5OFFqYko5RWZ4TWQ1VTE4azhmdG5lcEMydnFOOEJFMVdidC9ubEt4SXdyQXk0VHBUdzE5Y2VvdFV5TnhuUzA1ZW02M3VRNldVeFhzN1lGNjFxUUI0MnFXdS9tSG1IYTIrY0R4cU1LYy9MOGF6bEZteldzcFZkVEt1WXpIOHZ4amJlMUZ0Y1JIMHNpUFF5cXhHN2xQdWJzMnFGMDlzVkNqZlBHS1lady9RRHc0VHRGNU5lbkp2WHh3amc4UVBUc0lBNGo5ODM4QjdEZllQaGdkdW1Za0FObUNSSDlIOTJKYk5ndGVxNXlSQnJJMTFtQVNaVEwxYlQrN0gzbjRST3ZnbUowelJjdkt3dlhPNGpZelhUc0htZzhUb2dWak5wRDg5Zm9XZ1diSC9DZ2V4alU3UGJmWUZMSzlnQ2haZlNyNmRXUDVvVm4ybklHTGh4bm5GNy83N0I5YUkvVi9HNmpNLzJaZjJjWG9mbC9NWVptS1lmbU1jZkdNYTVBTzZ4UWJiUDYvYzV5cnpPUXJJcktTWXdjWElrWTVYcjZGSHB1WkhzUW5xeG11VkM2bU42WU1vdmVwaS9Zeld1NzlQUWtHbkFnUDFDMDRDeHFsblF5SmMrSXE5b2tURllNbjlGbkJiOWJlQTlxcEg2V3MyMFd1M2dsR01idlk1cnJWVHl2ak9CVEk4azJWekkrVkVDOW80RkxBYXQ1WTZ2bDhUTENMeU93T3NkK0JoLzRIRmZnSHZjYjFzYkJUS0oxOFJxejZ6dWM5TmpJdXRtdEdNMWdFQ0xWV2lrWlR2bThpRHo5cG4xZC9rM3FTcjNrZWM5eGJDZ1l5V1RhVThTeEJzQ1ppMW4xUXp3czRnUmJGclZSbXlaUnExbVdzRTRIWitibG1YYUZmUWd1K0dCKytPSllmcUIrMk5Wc0lmNmJEVnNyR3phNUt1WHowSnQ5eklDYjlNQzNEQzk0L24ydXRWZjNNaHlSTWgrYmQ0QVBJcjErM051V3RXT0RUUnVQaVlqRmlsZkJObGV4KzVYTzJ3YmVDTTJWWk5GYjZvaHM4Q1M2UWo3UithOSttRTdqZmtqTVpvWHE3R0x5SzdqcW1hMzlUWGZTd3oxS0JSTHcrYXBGMCsxeTlncTA1RGQzbi9zS2lhUWViQUJPZEFHTlg5ZnRuMjVMN1BEOUIzRDI0emhQam5Ecm01ckEvWjUzY0ZkSHZaNHFqOThUSWJOeXhSRzR4OGpsL0ZTODlSREs1YUc3SjJtbnN2NFR1VXdwajF0eTZpWm5qOFNwMm5nL254ZjM2Zi8zUHJOUnN3S3RqSVRLTGZCTXVGUnE1blh0NlpmbFd0QjlxcmhlbUMvb2MzclBJTVdlUW9XYUJPMjcvTmxYdHhKNEFlQUoveExmWWROQThZZDJuSU5NM0RzTWxwQU5qdXN0WEhkS0NFaTY3bExvQld2ZVdiOSt1S2UvRjFWVFp0M2NYdVE2WG45cDJNMEdGT2U1Mk5iYmZDbVorSTBFN2p2KzQ5VzNQZDNSSE5zMXF0bU1YQkdOOEE4NzVBSlhCbzREWmpNeStmYUFzMVFzdzIyZFIrdkU1Q0ZUVWFNUk1PenhIb1VMZzJhNWVyMTlxdFpsbkVqaDNFMkJ4ZC9HV2NmTm4yeGU4b2wwOGhkdERLTi9PVm4wL3A2bnFIU1paZW8ybmU4L3ZuMzlzc3c0akxlVmJKQ3U1RkgxSXlUSHZYMHVTVStLc2hrS3NBSllCblE5R2ZEYWlaVEFYY0Y3aFhBT1BmQkpoM2EreUg5cEFoREo1M3djbTAzQnhWcmF5VkU5STVaNVdTKzUzZ0RKbUJBOFpTMVRvcUVJL3Y1c3hEWTlEd3JHSkxMTU9aYngyOHBtVGQvQ0xidmV5cC9kUmtsbTZqQnN2ck4ycGxHSHp6dWV4UEk3aG9taHF3VnExbWY4N2pXMWFDSm1na1g3SUppdVEzZmhqeHNBSERIdy9UQWVsTDdBTnFEaXRtaXBFaXJiMjNmcGo1bXBoMnNiT0pPaGk2a05vWk52Z2lyTEZLeXEySXpubnFRY1JrblJEYkkxcC9GZlh2aTl6Ky9iWkRkVmR4VXB2RDNER0UyMCtoQnhTN2pEWSsxRTFvbFBrU3hQSFZqMklDNlAwMGcwd2tSK2Q2MG1qa2d2WTZBdUpIemZjU0lmUWp5b3VhQWxZRThhOVhWblhFbHZWaHRXV2ZIYTNVOTM1MWNHa2FkaFFveVVUVjVLMWJvUXJKbEFNdENGcmsxMW5JdlpMd2NLdHJ5QSsrdmI4L2xnVTRGbVU1OGlGdFlROWV2WnNEK0dnUU4zZzNQZGJUSEdwZk5LR094akF1cGxVMmJCRStpWk5wRmpKNnVVWi9uSzRCNS9JSDcrQUJmZ2d2RGU1L2FHWnV4Lys2YUdhTzFZTXVNZ2RUejJtWHNWVkFBR0laNWN4ODFjTU80WE9uek5QVEJKbVlCbG9Fc28yaFhxQmt2bTdEdEtqWklYeGxCcHBNZ2UvOVdLeGFyMVF3b1I5ZnZnSEVDWk1Jd3phWExxQk1mV1JkU1BtdSszam05ZjhldVlxMEV5cnJ0ZlFTQTc4QWJNQS9EZG83MzlaWGpTNXoyS0dJMHk3SUprVlF5SkRzZTBsS3hGc2pOUklqeWhRVXlQVnBFd3dZQVZmK2FaZUppUkg5U0I4WVV6cktuWkhyK1NJekd5eHRrMzRGeHhwZHhMbjdjM1lLTTFhcWxYanhkbWxBK0FlMDl3eVpxOWlLUWlNdW9JZkpjU0U3elI1K3pWcjQ3MWVYdllsai8xdGp1NVIwWWhtVUE4MjNZYzR4UDNGZDMwbjlsdVRhdFd0cGtpTmJXNURQSkVIMndhUDZNbW9tSnFyRUxPVTI3MGdIcmlCRUxOb2JMc3BIV0g0M05aRjg4ZndZMlhhNEFFeFdUNFZVYU1oNEl2UDhVWkRzbVk0dmlOVm0vQWJmR1pzWG5MUzZqd09hNWtGSlh3QVJxUmRNd1dUYzNpZVAyeHUvSFU0bVUxOGZpUW83ampIbjl2VzRkcnkyN3M5MUhCa2tETjZQK29mbWltVDBnUkVrUnZkenFhN01zSThjQ25JN1htckJaeGdDT3hyeDhMSjhCV2hxMnhVWFVnQTNqdEtuWTh0aEwrZTVGRFZjbXNlRXBWajVlRTdkeEdmMVJLQTcvY1ZlSzFJMUdpZkRucVZWUFg5Y2N4K2tNcGN4UHkvSXdMYW8yREFKWStWa01qZXR3T1hUOXUycHM2YXhqZE9GN2luWjJtQldQa21aVjY0TU5NRHUxSjVxUDNNYnNmZWd5TlZ0LzJ0Y0JiQnNrUE5pajVma1pzVmFhSG9CYk56Szl2VHhUOW1MQm9sMUpEVllyemM4Mm8weGlTRmVOL3N3MVZJUFRsbkc1Uk9iSlZyWEpnV1p2UnFsY0dqaFp2elVwRTZONUI0bktva3prR2V1QkRkQ3BmOEIwSmIzNW42MW1XOW1xWE1BR0Z3QVhNSDVpbVNGamwvSG14R1l0OXpGU3VLWHBDbFoydnpWWTNxQ0FYa1hUNjNXL3FBQW05UVEyY1VjSnVwZHBqOVU4VlFQcWE1ZmRSTzFLYmprRnRYM2FWOHdxR21CRGx0MFhXL1RzandmYmRwd3FHN25zc1JwQmtvR3NKN3pzQnExVUxnQ0ZlZ0Z3QWRQOVdQVUlldHRsYkxtUll0WUZaNW1HY3BqbTNaR3dZQUl0ZSs2bE5aSWZhdnVSbG5YNTZoWlcrNVJZYlM3cmpPT2lhanJCS0hxMlB3SkQxeGJzbUt5TzNaYUdqcnh4ajFuMWU5ekZxSzRWcDdFTENkaXdjVFp5ZXlvN2NpVXR5Q2FxSHFtYUZaU0hVeCt1NWJ5bTdjYWhBUU9XMFFyeUdVbi9tQWNjWnhmdFZ4R1VLbWJCMVlyUGxqcnFBNUlMbW8zaGdscm1xZWMrRGlpL2k0SEtCK3dwZjcyZnU3RThyMjd1ZlhGN2QvZHhUYmc1cXFhdno0SHFsdytMcmpmS0krNmN0MDIyZjYzWHJHZDhOR3hibVFPYldBbmJzdWZGR3QwQVhEMXViRDF2d1FXWXJpR3dxOWRXUHV3UXNJcnBaZitkSFBHb2UyMGxPTzM0akxmYjB2cGlyQ293MXJGNUtsZ2VjTDhoem1xcUFDcm1MZkRWOGtEN2w4K0c0ZG8zM2QxRFVUZUdVMSt6WGZuMkNKYlR6NWV0NXQwcDl2V3FYMDNGYXdCY1pZdmpObUQ3R0VhZ2VMT1dXZ1hBdmlpc1Q1REJBaXJsQWhDcWw1eWZ3Q1NmaHdVWUwxcy9IQmlsNXRsdHJKVXFCaTVLR0ZTV0JTdmFScFkxYk5xZG5JMjYxckZrZVhVWmRaeW1YVWJ2Mm1iSStIclZhdGdFTGFORXJaSDlubmxQbzdicVdyQUI3WmlOclFadU9kSTI0VjhWYlowU2c3WE56eVpjZ0sxZXdONHZ0Y3pyckdEN3Q2T3RCekU5a0N5b3JQbHVpNFF3VXFxangrTExTQUVVYnNlRGtaVXQxOWtlZjVYcTF2ZHJvT2FsYzBWMnNOY0tlQkwrYnhZMkFLRzZBUjV3V0dGTGlqNkJKZFpTTDVuMkFMYXZxeUd6VXZxV21zaytMUGpLTzNHZEhIRS9ncmtEVEQyTUt2UHcxeFdXZ1M4d2ZlNFRYWjh0VDJ5N2luNEZYRWVzRnpZQVRwS2tCZzRJb0FzYlZZTWw3VmltdTNxVjVYbkFkTGtkcjlXWlJiMk5CbW92MytmWmpxalpOQXo3dXhjamdMekUwWExndHNwRjIvZVd1WWM0OTRiaXlvMzhwd0lXM1NGNllOUHpjcUY3d0VtR1Vsc0xQSzdQY0FGdzR5OXB2d2VZbkd0YjJlcFlqTlZNNnVxcG5tY1FMelh1MHVCK0xwbVhCSWFPa2IzTFUwWjljTUtKdDRtZ0RNQzdLdWV3SGNxNmMxMEJYL1JnWE1ZZGpMYUp0cE1MMkVxU3lMd0ZuSHNlQ2xndXI4dHN1SXBwcDRMdDYyMFZBempkWC85S0N3TW9kVnY5WTl0NU5lcnA3MlVlditCai9JRVhlV1pNZHhwN1E2T3NoSWJ1VXBIZHoycCtWSDhEVFdITVorSDdKRE1QVWFZeDI5QmxraHBla0ZqWHMyTTFhNWxoVzlwcnF4dmdBd2Y0MEZrdXBnZm5hTHFOTVdBeVpaRGE1V1Vta09PblNNMFluRWp4c2xaOXQzeGhDd2hhaVRSY09rVVAyTmxIMlplZURsUTJHdXU4dW5vS2JLOFkzOC9wM0dBTHE5bXV5WWZlT29EWjEzVkExYUo2MXJMVlFXaXBHMkFESjh0V2hqSlNQSzQvR0pEcE5tUUEyOHRhcXRkTysrdnRyU1JIRkoreExjSCtWTTNYOVViTTQ0eHArTEg4aUpYbEttb2xrd3ZmY2htaDFsdGRMWHI3RVV1U2c4dll0ZVQ1OWJMNUdJRjVWT2RBMXlLL3lvQWZZTFkvQ3ljWjByS015clZnaTFRdGNpRXpzQUVJMVEyd2dkUEwyL25Sazl5VzFTcFh3Nlhid29vazZ6THhtYlcrM2JmRzZqWVorNmxqdGNna3V5YnpNb1ppeG9nSmMva1RFUXhVcEdTc2Ftd0RTb1ZqOTVIM0xTTkR2SFY2ZTBjLzVQcktLbGpoUGh2YkhQSk9JK2lzWHZGTTZsNjJQUW9iYnkvN1dOcFlBZ2VVTVp3MlZqdlBLdEFjdUtTdDViVHRKdTVsT2ZmU3lrQmFuZEpYMkl6UmpPOW1ETXN2dTR6Zmw1ZWthcUFFSklGZ1F2MXFkakhwVU5hS1ppVXhMRVc3bzM2Nzh4MDFjT3B2R3BiWWN2bFZtcjJ6T29Lczk5bEtNeG15N3l3VFU5bXVaZWpTQmJDVisyN0R4c2YyUUYvcXFYME41WG16MnJXTXQ5ZnVWQVl3S1c4blFmSlpTUDFkV2xsSDNWYXZyOHhMa0Zod3lVVTVRQ00rTGhmdDlHUDdFWXJ0WWhlNFpyWE02clkwY0MrM09xT0JFaGFwejdEZFZka2JTdGhXWlJPM2NSNUw5MUN1Rlg2RzNISWJXMm9telhXdEp5UHBYZlM5c0VYYmNOM1dzUUVidVAxY2ZQQXl4dnRqVVBSOGJ4TEVXcitYMlRFWWIxTzMxMCtFWkUzY3graFpyWGtjTUk4L2xqZE9NVlI2MlZJMGdlRWRKWEJzN0JZT0tHR3kxSTduRFRXVGM5VFQrak1ZMWJ3UDJlR3hqa0FObjNYUi93ell2R056dWI0TFcvSGpXZU9SRXp6ZkU2UEp0TWZGNU8yaUlWcHNHVmRTQXlYemtoQ3g0clFCaS9zNGpQT1M1dGV1b3diT0c2RWhZRWxjWmltYVRtcEU3dU9keW5UY2RxL1ZUTTZ4Zk9VUWp4UmQ2dkcxcDVldHhGN29Pbm83MG1aZDNGeldBa2R2MTdPTjUzWkc3aXhiejFoTHk3eUVRaFNuSFZHeDFyYVJrbG5uNG4zdmxsSnhFbVJZd1pMUkU3YjdPT054LzRFM0dkZG9xWmpWQkk3TkpLYVQrdnJyWXRkUkZFMURKdk9OMkV6T0xaTUVpWlRQdTU0T1pSMzVnSHE5bDdDd01vUDhyZ1ZybXd4c2ZGeXZ6WFkyS084eXRsUWhHNmQ1eVE1cmZYWmJ1MFBiVHBJY01mMmRzUHNZcWRyMys1cnE5MXpGZHpVdmNNbFQxZ0xuMG9EZE9PdllpdE40YXFpWi9MWjFTODA4eUtKSHhBQmd6SHp3VVYvWVhtY295cnpsVE9kMjBVQUROcXROVmx1aTlwNnhLTTdwelRUS3RCV0wrZXRzeU03WWJIemVZdHA5WE9yT0NycGExZVp4L1ptbTFtQmVpY3QwK2w5Y1I2Lyswc0E2VG90Z3V3TWZiOERqRGp6ZlhvdE1vNzRkeWVmQUxxUCtmQ3pJUEZaU2ltYkIyRktXakZJZFNmdnJObVZ1QUh0NzgzQkgrOUhIMSszamJTSklaSnFONC94MXRpc3AyM245YWoxbXZmOUNmMDhDMkZKZXF0cGp1SzhxOW4xM0lVWFpXT0gwODJFQ0Q1ZUxqVFRsUGpOMklTa0pvbDNHSis3bHpZSFVpN09NSG1UZXRiaGQ4eTNYeVIreHNaOTVsS2p3QUxvS05xc05kbnZQM2VXdG0wMVBJa1RLczY1aXV5OHVpdGU4cktPZkdHa1pmeGU2ekZLMUIyNjQ0MW03a0VEOXl6NGp5bkdQR2tydmVURXZJV0s1ajhxdC9INEhubTlmOExqZktyRFlmZHpQZmI5bDZmUDJJTE5EbElaNUlIcHA4eFkwWjJIalkxdHQwTzNJV3NhRjVzL0Nna3Z2NjdOVUxLcVRkU1BQeEd2bGR5ODN3TnY2VTdUTHo5ZmU4TUNNUlRFV1NKNEFWdGprd2hlNHhHVmt5Q3cxRTlPZ2VhbCt5allLWkJ5WGlhcEZjWm1HekFLczVUR2xzbzZ0SkVLVXZwZnRJNENzN2FLNm1UanZiT28rVXZvV1lIcDdUOFdrVHErS1JkdDdiWStneWlTRHJKc1dxNW9rU1I3ck8rdG5qSGhBZmpWemlkZWVid0R3QStPbzN0SWlYNk9YYll5YXgwa1JkaDJWdW1uSUhzTzlna3k3am1jaE82Um95L25FTVkrVlVkU05FVmdzZ0x4aFZ4blk5REhQV090aXM4NC9BNWc5UGU0cVJ0dGI2N2pkUFJuV01pRlNiOGVmdTE3V0NqZGhCbkFEaHVWeG51Y2JnUGNmR045VzJIVHlnN09OODdiRDJxeGtpS0ZzSDI5TFRLWWhFMkEwWlBYTCtOcVFaUURibW50VTBUZ1dXODY5QnU0ellkUEgxTWQxVHpaNW9VWHVWcm1jVFlqWUlQWEdjbHpIV3MvdHJOdDhQRmFObjdEUWQzajUvbGJYRVE4SWJNTXdBWGhpbm43Z2p2VlZieG9PempaYThabVlGNmV0ODkvdmtzTGZZN0k5RGl2Qjh0ekg1WHhpeUt6cmtqK3JRNHBtM2UyOHhFVUxObXViVmp1OE8wZlBIZHZhYjNaZEQyQzZmZ3V5bnUyajlkenVYamQ2QXIvcXV2UlUyT293WUZrVzExSERkc09TV2wrZWpQaU9ZY0RpU3JMcnFKTWcxdGVqM1VhWnJ0dC9iSmxGbmNJdkliUEE2b1dNenp1NmZwdjlhTjRJam4yOW5jNzNZTlA3OEtEelZJMjNQV05uNEFJeUdjZGMwcU1uSHV0WnovTmVlMXNtMzVGWXhsV2ZWWDBMdGdFRDVtRUczb0JobWpGUFAwcmdXcER0SnlJbmg0LzE4aExBdElwWnl0V2paQzBWaXo0VDJiYXBhSzFzSGdPbWx5M1lJbkF5THFSMzNQWjU5TWRoMGc1dExjRDAvQldRSGUyanM5cWZDeFBHYlJzTm1hVnEzbWZQRjU2R1RYNXUvWTRuSHNNZHc3RCtuc0FLSE83QU1DM1FBU2hmeHFyc1ExMkdBaGV3QURhUHc2WmlTNExtQms1MlBLcjRMQWRaQ3pDM3c5cHl0eUpDby80ekw0YXErNy82WFVodi94RndtUXNybzE3U0xtKzc2QUszUWFrdi90NllLNXM4OGV4TVZuYS9HZHJIc0Y4QlVOWjk0TFplMm91NkZjQ05XS0FETnZDcS9ZMTYvc3YyR2dJTldKbmsrRnpJV3QxSjV0b3NmRjUya2VldC9ySjZYN0VMNmRYUjYzcnNTc0RxK2V0aXNqT1FXYkJuVGNkcGRSSnJWN3lzUFhEZkZQcEc2NWI5NzhBQktOKy9NdFh0MSsvM0VMaGtYeDVncmZHTHNuMEVXUTlnWmQ0aWFWRjJMNU1wWk5pT3FCcnY4NGhkQVJndld5cGt4MHlSeXNWd25JVW5xM1JzSEtPSjFRbVRuZ0VDTjBFTDRrcnV4MW92YlBXdUZSbGRYN2V0aG1GUzh6MlFjVG52Vjg0NU90L291anowaExYVmg5V2JscmNzbzJwSDdVZ001bTNiQzVsOGhieXVOK2JLZ1hwZXpTd3I0N1VsanVNUklrZStwLzFtdTF6aUF2QisvVVNKaGhLQUhZelNGZXdaOFhFRXNzejFIWDR5ZklGWnlxTWIwVXBnSEZXMUhoZXlkUTdsdWhpeURHQzhueWd4RVdVR3I0RHNyTzNmeFE0U2Z5WmNSOHE0SFpudngzSlBsKys2Zk5pMDFlWmxhcXViN1ZKZUExbjJHbHdTZlIybUpWN2JrWDZ6cythMXhhcFRsMS9qS3ZLK2VqcVRyYlpsdG8vMjg5bHF4bE9naGtXZlMvVGRlQzZwQmxtZmk3MlArcUl2M2NkWTJiZys3MGUyNFdQeHVXYktENzJwdUFYT0VYZnZLSlMydTVsWE1lQTRaTlkrZWx5NENLVE1NYUkyMjhmcE8xN0wvSzRBNlR0cTN3eDVQL1crN0NlK3JXV3JZemtMbWZWUVp3OWtyWE0wYVdpZG1OVGhPMWlVbHBlcDV6N2FqY3UvTGp4am42MWs3ZU8zRXlSSFFDM0w4aEQxam4yMFZFMURWY2JsL2E0K0E2ZVA3Wm5sMW1YVTdTcklzcUtRSG9MVkM5dFZTWXpQdEI3SU1uWWVrbk11bzdhcjNFWXJUbXZWczJJc3ZsWTRtWExVUFBkUmptMnAyOCtHRE9oSTczc3gwV2ZGWHpiWXgrSHRkWmRpWll2VCtOSCtJalh6TEg4TUg4eGU4OVJsV1ZlckdydVF1N3BOTG14aUk0N0g4cnAreG9Wa3lMeHRvK05ZeTYxdHVxOWFMeWFTc3N4SWtON1JIMmZ0aU11WVdaZUp1N0pxNW0zZmFrL2ViVDZ2Y0Y0Q1EweW41blc4NWczcFloZnpUTHQwRytTNHNvNFZpOWZiKyt4NzNxeTE3c3V3TldXKy9FdHJxWWlzai9aWEEzRk5JRi91c3dlNjQ4ZlBaQnE5OVQxMmxkc29GZythTFM5c080TTNVa2R5M2U4bDIzSTlYVi92bDlmSnRvc3JPRmJyUFhlUzErbjI2SFhlY25aZGRUdlJYL2hSZFlsR2R2eHN5NmhadkgwN0FXSzVoZDQramxvcjAvZ1pONkRJV3VyRzdpVlFLaDdnZVVkbDdCWmxMcjNoVURYSVZuK1l2NDdyZU11dGNtMWZvcFU5N3RRVkY5TS93YTZCb2gxN3hZbU9uTnZZYnNmMTMwbDhSNC9HL2ZtS3ArZEZrY1JFcWF3L3ZlOHNaQzFYMVZ0L0JqS2dBUnJ3N3dib3MyS3ozanF0K3RtK3VZeWRkUnQ3dkJncjlnR3NJVkcrV2xpd0xmTmpDTVh1SXZxeFdKUWNpZFo3YmZiT0lXTk4wSUJyWEtJcmdmM1piaElmODhqRmZIVUsvcWpiMkZQMzZ1NFpWalY5d1Z2enNvMzFWKzdYaHZXNmRyZmR5cGFsUUFPTzM5MzVpNVU2cll2c1Z5anBtV1ArbTVVL1k3MWpEajFWODlaYjg2Mkx1WVl5bCtxMzFsdm5jcVg5czN1VVQ5aFoxVHNLampmUzR3cjdwOERjU29TYzJSL3ZPM3ZSUjVEbHRzL0haa2RBVENzYWNDeSt1TUt1VGxlTC9hb0xOMDUyL0h5MytJeWR1ZnRmbFpsdXVZN1JrOUkveTdwQSs3ZmJVV0M5aS84elFiM3k1dktyYmlndDkxSGIwVGpyYXRBL0M4SmZEdHEvN1E3K1dYWjFIOXl2ZERPdkh1MlJyV09ORUxuYWpvTDR5MEU3YXI4SzBNOXlZLyszV21iVXlSbkxRTi9iZDNiRS9qR2cvVk1DL2MrMC8rbm5lUGJDL0V5WDhWZkVaZHIrZjRCUXVrTjQyc2RoQUFBQUFFbEZUa1N1UW1DQyIvPiYjeGE7ICAgPC9nPiYjeGE7ICAgPGcgaWQ9InBhdGNoXzIiPiYjeGE7ICAgIDxwYXRoIHN0eWxlPSJmaWxsOiBub25lOyBzdHJva2U6ICMwMDAwMDA7IHN0cm9rZS13aWR0aDogMjsgc3Ryb2tlLWxpbmVqb2luOiBtaXRlciIgY2xpcC1wYXRoPSJ1cmwoI3A1ODRjMmZhOGVkKSIgZD0iTSAzOC44OCAzNC41NiAmIzEwO0wgMjU2LjMyIDM0LjU2ICYjMTA7TCAyNTYuMzIgMjUyICYjMTA7TCAzOC44OCAyNTIgJiMxMDtMIDM4Ljg4IDM0LjU2ICYjMTA7eiIvPiYjeGE7ICAgPC9nPiYjeGE7ICA8L2c+JiN4YTsgPC9nPiYjeGE7IDxkZWZzPiYjeGE7ICA8Y2xpcFBhdGggaWQ9InA1ODRjMmZhOGVkIj4mI3hhOyAgIDxyZWN0IGhlaWdodD0iMjE3LjQ0IiB3aWR0aD0iMjE3LjQ0IiB5PSIzNC41NiIgeD0iMzguODgiLz4mI3hhOyAgPC9jbGlwUGF0aD4mI3hhOyA8L2RlZnM+JiN4YTs8L3N2Zz4=;" vertex="1" parent="1">
          <mxGeometry x="570" y="200" width="290" height="290" as="geometry" />
        </mxCell>
        <mxCell id="COKu5k5BRvisHS9Ge0iB-5" value="" style="shape=image;verticalLabelPosition=bottom;labelBackgroundColor=default;verticalAlign=top;aspect=fixed;imageAspect=0;image=data:image/svg+xml,PHN2ZyB4bWxucz0iaHR0cDovL3d3dy53My5vcmcvMjAwMC9zdmciIHhtbG5zOnhsaW5rPSJodHRwOi8vd3d3LnczLm9yZy8xOTk5L3hsaW5rIiB2ZXJzaW9uPSIxLjEiIHZpZXdCb3g9IjAgMCAyODggMjg4IiBoZWlnaHQ9IjI4OHB0IiB3aWR0aD0iMjg4cHQiPiYjeGE7IDxtZXRhZGF0YT4mI3hhOyAgJiN4YTsgICAmI3hhOyAgICAmI3hhOyAgICAyMDI0LTA1LTAyVDA5OjE2OjM5LjQ5ODI4NyYjeGE7ICAgIGltYWdlL3N2Zyt4bWwmI3hhOyAgICAmI3hhOyAgICAgJiN4YTsgICAgICBNYXRwbG90bGliIHYzLjUuMywgaHR0cHM6Ly9tYXRwbG90bGliLm9yZy8mI3hhOyAgICAgJiN4YTsgICAgJiN4YTsgICAmI3hhOyAgJiN4YTsgPC9tZXRhZGF0YT4mI3hhOyA8ZGVmcz4mI3hhOyAgPHN0eWxlIHR5cGU9InRleHQvY3NzIj4qe3N0cm9rZS1saW5lam9pbjogcm91bmQ7IHN0cm9rZS1saW5lY2FwOiBidXR0fTwvc3R5bGU+JiN4YTsgPC9kZWZzPiYjeGE7IDxnIGlkPSJmaWd1cmVfMSI+JiN4YTsgIDxnIGlkPSJwYXRjaF8xIj4mI3hhOyAgIDxwYXRoIHN0eWxlPSJmaWxsOiAjZmZmZmZmIiBkPSJNIDAgMjg4ICYjMTA7TCAyODggMjg4ICYjMTA7TCAyODggMCAmIzEwO0wgMCAwICYjMTA7eiIvPiYjeGE7ICA8L2c+JiN4YTsgIDxnIGlkPSJheGVzXzEiPiYjeGE7ICAgPGcgY2xpcC1wYXRoPSJ1cmwoI3A1ODRjMmZhOGVkKSI+JiN4YTsgICAgPGltYWdlIGhlaWdodD0iMjE4IiB3aWR0aD0iMjE4IiB5PSItMzQiIHg9IjM4Ljg4IiB0cmFuc2Zvcm09InNjYWxlKDEgLTEpdHJhbnNsYXRlKDAgLTIxOCkiIGlkPSJpbWFnZTVkMGY4NDA2NTMiIHhsaW5rOmhyZWY9ImRhdGE6aW1hZ2UvcG5nO2Jhc2U2NCwmIzEwO2lWQk9SdzBLR2dvQUFBQU5TVWhFVWdBQUFOb0FBQURhQ0FZQUFBREFIVnpiQUFCSTNrbEVRVlI0bk8yOTdaYWt1SzZ0UGJNZ0k3Sy8zcXMvRjdyR1dIV3FNNktnOHYwQkFubGFrbVVncTdyM1Bob2pFekFHVEFRUFU1SU44Zkx4Zi9BQnowYW5mSERxalZTSHk2Vk1sK3V5UVpWN1pXdjlqM1VmMHdETUl6Q1BYekNQQXg3REhUTUd6Qmd3WWNBVCsvSmpuWC9naGhram5yZ1Y1WHIraVJzbURKZ3hGdnVMbHErcUkrMnoxbS9yNWdIUDl4dW1hY0R6L1k0Zjd6ZGdHb0gzRitBZDVkL1h4RHovVGNhMDlRYzFyZXhEcmZ4T2xYbFpsMzFYWmRaNnI1ejMzU3JqY2oxdjFlMnpMK0hhNC92OTE5dUErVmMzNGYvWi95Q0xRZlBNdXdiUGdubkJ0VDM4eSs4T2MrVXUvSXZzMy8zUmY2cTFRVHZ6NFgzaUIvK1MzUGUvSGJ6VDlobW4vNy8ySS9WaXFiWWRVelMyei96Zy94ZDVjRDFxTms5RzNlbUZsbmw5ZjVzdTJjZFBNeXV1K21kWURqVHJ3ejBEZ0xXL0M3L0EvNm54VlpkYitkbEFkTzNmejdmWjlrOEE1dlhTdmVVVjdWZTRrTjUySnkraWtVRDAzRXV1OXl2TmcyeWV5SjNKZmphdGVwbjkvS1BWN1o5bFg4d1VyV2U4ZmpiV1RjYTZhQjllbVdjbnJuMEc2ck9VNzBoYzJPVTJ6bzI2bitVeFhBcVdsV3JQSHR4THovOE1PeGFuMVlyV2dpNkNMVk9mN2JPQVZQWXpYY2tqS2pnM3ZyelcraDlXdkJiWkVVL2hNdS9DQTh2YTBUL0JoYlNzSDdaMlAxclBCZC9xdE9ScjhKTmNRK0E0WExYcTVSdHo1SmhUUThtaTlWTXZZUFlCa2gzT2pYMWNVd25Yd1BYUDgybnp5WkFvKytSZFg1WnI2UzIzOW5YZ3M0dlVwY2VOekFERWRhNVFVY3VkZE5XTlk3V3RIT1ZuNTgxNzIyYnFoWFY2RXlFdCs1a3FGeVZFOUJDbnR0VXhXc3R0OUw2b21jcWlMOVJUeVU3NFhpWmduSUZoQW9icEI0YXBEVXNHQ0s5c1hBZEVpY215QjFVTE5qZkJzZTZaVGF1YnBQZUxORDhyMDlIVS9LY0xRalQwQ3JUT1c4L2xWd0I0Sk5PWUE4NVh0QWk2MWwzUlU3c0pOalNSaW5sZEM4NW5QODdIbFVYWGJTbmNaOFY5bnFzNEc1RHRHL0d5dWVOMkhXdTl0VjBtY1daYUM0YlBWS3VqZDQ4c2ZIcUFibTFmVXRkTDYrN29aUnBicXRZTFV2SUxic1ZWRE1tdlNPUGJicUh0S3FaUys5eFpyYTBGMmRHc2MvTzdFTGV4TjlIUk81RDRqR1hjdjE2bEc2dS9SZEhtNEUrYjVUcDZhZjBvaHV0VnNHZ2J4MHAxV25aYTk1L0ZPLzJaMmNxV3E3alZXMVA3a2dqNXdhNmpubysrTDJ2WjJvYzF6L1ZUMTd6bkpySWJlY1F5WUdiTmcrcGNCM1k3R1dKQjU4VnFGbXk2TEhKRnJXczZFVFBxT0kzTmNnVjk2T3p5czJwbmJjOEpqWXk2eWFNeWdPVTZhbVhEZWRmeGFHeVgybG5MZm9hYXRhQ0pZRHNHM0pocXMzeVArcG9ac0ovdnVNN3I2WXo5V2JJSnBVTHpNVm05WlQxZmYzek4wdnBoK3JGWEhjWjExM1BZR1R5bzlUSS9ZQ3EyWVZlMDFhL1ZZelYwcGFzb3o2UnR5NU1UcTBXQVpWU3RkZk8wNm9iWGpzNDJ0cDQvTy9yc1dXdmRaNW1HTGFlYVBtZ3RNT1NpRitCR3FxZnJXT3UwWmNIcnVMNDFMQXRBSXdiTW1EQlVRRWw1dWIwUHFBYXYxUS9HcHV2enRyeGNRYWpjeGkwK200WXlQb3ZBeVNpVkZRNDB2QXJmb3Rnc2NobVBRT1lkSjJOOGdRSUxUSmw5ZUFwWGJqc1d5cVBOK294R1dxZGgwbldzOVpZcThuNjk0emZXditqZHE3cWxXaTFRalFUZGZvaTZQSUpOYjdlYzFybk9ZMVl4QnRKeUc2djRyRWZSV3U2bHBXaHBpOVRNcytncGEydDdodUF6MUV3Z09oL3JyZDllWWp2dEtzcVdESlNsYmd3alErTWR1MWYxcEptcit6Z05PeXlSNmtRd3l2cWxtYkdjRGllQVk4ajB2T1UyenRPNEF6ZU5lVmZRVWpTdTIwcDZwRjFIaTlxV3kzZ1ZaRWZBc0ZSTnJOOVZyUGVlamRGNmN3SVJiRnhQTEdwTEE3d1hvRkRtY1o2QkFRcWMybVhVS3NhQWlIdW9JZHdQSFlPYjZndGI1OHV5c1pyZjNoZGlaUnUxMitpQndCQjVaUWpxZFltRjlXNFFQWDhHc3N4N1BNNjg2eU9DVFN4S2h2Z1E1a0N6MnNNeFdtWWJOT3A2b21GQmFsekw0MWJ2QithUkV4eTVPRTJVS1hJZmRTYlJVakN0aVBicENHUjduVW1CTjFrUVRrTTlHbVNMMHhBRGtYRWZJL0I0Ry9kWW5zdjRHWkJGOGQ4WnkxeW9udmtRWHRkWGE3bU5Gb1JaTUxVZFVEMFpqalVQR2k0N1RoT1lOQ0JaOTdIbG1tYU0xVTFuSGxuTjVta3MxYXlsV2xZNUduVmhiTmMwM1RsdEFkUURXUzlnVnIxVy9WYXlveFc3OU5reFJUdHIyZVNMWlVHbzlETFZTWkVTcnJiN1dHWXI3VFMvcDNCbjRqUHRLb3B0eXBaUk16M2Y0enF5blhJbFBiQmFrSDJXaW1YY3dLd0tudXZTT1FhYUtGZXJySzhsOGZHU0pyR2FUb3JvQWNXOTdxT1Y1TkFkNFZ6dUR4Uk9BS1dtMjN4V3pUSi82S3lucDNDV0FkUngyUkhJZWdCcndkRnpVZmZBZHR4R1BLZ2tVaHN2emM2dW5VN2xYL0RJMUxhUHBOc29zZG84V2ttUmFhM3V1NDlMMCszc282emJtemFieTZ5R2x0bkpFVXFDckdwbVpocDdBZXF0bTFLeUt5RTdBOWdaMSt6Szk0UFliYXdWTFlJcUd1M3hNeXlwZXA2cWNWSkV1NC9MSnJ1U2FHQUFXOUYwd3FRblRxdFQrQnF1WVN1YjV3V3lhWVV0cldZSTFyWFd3NW1hb0hIeW93VlpWc1VpZGJQcS9KUE1odFozSFQzZ0xNV1NzczlRc3lNMjJxbzJyQm05TWo0cjNVU2QrTERtWlhrNWpKMDg4YXg0bnN3Y2FsVzZsYnJmYkZreG9PZzNPNnRNRmtBcEZRUHE1TWRSeU02azh2ODkxczQ2NmpTK1dFdk5mb1hhUVIxejhsVnRWNjkyVWdTQXFXcGV3aVFhMHVXWnFKaVlqczFxTlJ2YmF0YnJKc0tvQjJkN28vVXhaRmxYTVFJc2dxc1ZXeDExQ2ErL2VFZThKNC9GOEVScVp0a0U0TzFnSzF0bWRYMFlxc2FwL3YyL1AvYVI1NWZEN050SWVUYmp5TU9yeERSd0Vwc0IrTndFU0xRdVZEV0p5NjZFckRVNCtFakNRcmJKQUhjMVhEd0VxK1U2Nmphd095bHdlYkdiek12ZnU2cC9CWGhSMytLd2o0R2NWMVViMW1kcGRLcGZ4MmNBTmxlU2t5SXl2MjlmdTVZTVlHUkZMTFlkZTMweEFxbFo0VEptL3ZTdndHUi9DU1lGR0JCRFppVTl6Z0IyVlRid08zellNb0NkVDViVVdVZnIrT3crV2pCSnZaNWtTY2JsUHBMMnA4SE13MVNyV2srcVh5dlhjcHE1ckdLUGJZT0dMVFVEWWpVN0MxUExiZHhNUXlabVFkYXJZcEhyeU9zemxsVW5yOTZSSjZwYk5WcUtsazNkUit2T1dPOSthR1NLZEdMUDB6SXNxNHpKY2lORnZKRWhYcHpINnowVGQ3R1lGdjFtQjlUczZyK2c5WG5JTWlwMjVXaDg2eTRmcVpwWTY2MVh4NjFVTkMrbEQ4UnFkaWJ0SDRIVU81ZzVlRVJuZVZPV0RNdmFYVWY5NUhVbUtSTEZjSkZwTnpGNkR3aUFyZCtzU29BQW53K1ZDeG03akMzSWVsVk5sMm5MdW84TVNldEM1SFVXWk5rTHVhMkFwYUpaNTJuRlo5WkRuNEFOM0V6em4yVTg4RnBkeDVhcWVhbCtEWmNGbERVdVV0YXppOWt5QmsvY3hsTE5ISmZ4U25leHFXWlhRQmFwbUQ3WTBiak1TbnhrNy9vTXlsVXVwZDdqbzlHV1NORzBlY0Nkc2N4VEM0QTlVSGxVMDdWdG9tbzYxYy9qSC9la3lGZ2tTNkp4a2VVSUV0dU5aTE1VVFpJZ1JXd0c1TlRuU2pXcnpJSk1MSUtzUjhVc3dJNm9XY1pGakN5amRGRjlyNWIzNFI3dHFNN2VSRnJIeTBKbUthVnNxd0I4V1plSDZRZkdjZS9BYmlWRnhETEpFczk0dlY3VzhWbGxWOFJtKzRGeWtKbHFacG1rOEk5QzVxblkwVFMrQjF2cmd0VGJYZWxPOGxiZXhUeHROY3F5cXpxcSticmlkclJpTjI4N2p0TlUyVGd1MlVkUnRXVlZuQlRwaWNjeThWbzVPb1JHaWtSdW81eHJCaFFFNVdWajJuVk1OYnNLc2dpdzdGMVdiOS96c3RPb0xPdEtXblc5STJaR2huZ0RqVE1kMWY2UlN4dG9YZFF1NzFyV0xpU3IycHFCSEFhZDZpK1RJbDdhM292SCtvZGRXU1AyYVNpV1RvSUFOUXd3bHJPUTlRQUtZRkV6RHpLeHM1Q2R5VGJ5SFZYRGRqYkxLR1o5di8ydWFUMHk1R2o4WlFFM08rWEFFc3pyRG10ZDUwZ21rc3NIVlM3VGRiU0lKRVdXYXJaaVplSXhiVDM5YXZ5Z0o3REhaNFcxbE96S1AzMDhBT1dvZk1zMGZERG00YXpUNjg5MFZudEpqeU14bXFkbWtjcDUyM3MxdkxjSVc2NmRCUkpuSHFXY3l6eUFyZmxJMmEzdm5wTWhBcDJoYWpvcE1neDFuOXF5dTF6bjlXd0FxczFTTU10a1hUUGJpTTdsWHNoU3JpTm5ISUU4WkphcjJBdVlybmNrd3hoWkQyUjl4N3J1d2MvTU51V1I5N0xCbVVkUUp1VkFxV1RhblpXcFFJYzlLYkx2b2dUR2V4MmRaNzBqUlBRSWtHWGFrWjV0d1dFQnBOZTE5bHNWY25xZWxja0NUaC9NaThHdVN1dWZ6VEFDUHl0ZUd6KzhMMkFDWHM3ZUlMUkZ5WTlJK1hwZFJYMFJXcGxSNVQ2TzQ3eTkwVml5ajh0OHJXN2xxVnd6L0txSTA0cTNXem5aeG5Kalg5VzRUa3Z0S3JQZS82RXRBczVUTmdUbHZYRmFLd2x5SkQ2VDVZd2I2ZTNEdHpINFNiRnExOEh2bFNTT1JNdWUyMmlwbWJVdlN5RjV2WFkzeVgzY2Q3OTNYdGVINlh2ZVRKdVZCREZqTTBxRUdEc3E1ejBWcytwazNFVnJINlpTdFZ4R3ZjTlc0c09ETE90ZWVTNFZsMXZBSFJudDBkdTNWcThmdjNlNGp2cHczZEJGQVBHWVNYM0E2RTNJZXZ1SjFnODBYZFZzMjJRcTAvekxibnpvOWpybjMzb0ZHSDFyMitEaFJsb2ZWT1l0dDh5RnpIdHFtamZPdW9WWFE2YnJuMG1BUUczUGF0YWJFRWtNd1pxT3hHanE4Q1p3VnVlMUJ4RFA2M3A4UFh0S1ptMC9xbldVcU9FNGJhbWVmNmFNTFJ5M0dNUmtXOWs2a0xqS09scDJoYUtsTEZPeDVaWjRLWHd1TzNnUk51M0srTTNhVjRmcjZDbmE2d2g0RUw2T2dMaWNJOVpZenFyYlNtSUEvbmRseFdBV1pKT3hua0dYQzR6Y3huM1hWaHhtZzFlUDhtQ1E0Z0hEUzdNNmdJcmlMNnQreHByZ1JXNWo1RDYyRWhwV1Bhc0IzbjdPZ1BQcXpJdFphdWJWN3grV1ZjVm9hL2NTR0VBTFBBRXVWRGVyRFMwRjg5TDF2Si9KV005Z0dlcUZhUjBsUWdtUnJIbXhXalRVYWpsc0RaaE83Uzh6b3c5TUN6WmRkc1NOTEJZOHQxSFhPK295Um5aMFVQRlJhejBRbW9FczBZOVduZGJCRWZiakFIeE1DZGc4TlFQS3ptVnZHMW5mQWxUSFpicGZ6d0x2Z0xYSE40NXFYcittWUtqTHJGL3Y5Q3dUbTFteFhjcU45SDRLMTFNenF5Nk1PdDQ2M3JZRjJaVURocTM1S0ZZNzE1ZFcxYlJPOVJYS1ZSeHF0ZU1kaHJEcEkvS3dLK3R1YktsWkZPL3BhZUF1OWxxa1JwR2Q3Z2J3M0x1TXVtWDNINXAxUlhpQVpNcy8yMXBwK2JQVzM1ZFdLNXF4V1ZHSGdOTXVwWFlsM1NRSlF5S1d5VUpHNnpuTHFBRXp5bDhtQUhlcmtZdGw0ak1wNHllbHBaNzN3NExXcjhiTTFzL2pldkdyVjNiSjlad2RTWCswZzFuc1o4TW41cWxVVnMyTzlhZU4wZW1PS0QrYUFqckh4UXhoeTNSYWV4M1JNTlp6bk1aVDdUNGVNSDRWbkZkbW1mVW9qQzUzMVhBSy9JR2VST0RwNi9obzF2RXpZN05XZXQzN29zK01VenpUbjZhMmpQSTdxWStvMGVIOXdnWGFMR1dLQmh0NzI3RGJxVWVKUk5uRzVEVWdUejliWmRiVUc3RnY3UmVnUHJSZWF5VkV2SGpOM05iTENuTFdVZHZQVGw2STlRREM5VWZrMU95NkFjYVZvdWt1UUcwYVBGRzZWelhWMmN0eDNVbWhiRjU2WGl5VDh2ZTJHZFM2S09raDYvUXVwam1kSE1tODc0UHJMdk5sSHhxUDJ1K3lLUGtSYmVPVmhkdDZFTFhLVy8xbWxyVitiQ0tySG1jVnFKWDBPSmgxNUFMcmMyY1gwalZTdDlmUlgxY2RMQk92ZWRzRXNWZ0IzbDNWQytNelg2SDJaaGh2c05yK3lveWoxTmZUOUhDdW54N0taQS9ZQ2lCNzl0V3lTSjFhWXhSYnltYk5aL1pyYmVOYktobkMxN2FYbWZ3T21FQzU4WnIzWFVYbmIyMWpwZlF0NDIwTjJEeTFpbUN5RDJXbjlQVzBjREc5WjlGK21XVnVyVmU3alZmK3FvdTJTTm1zK2JPUUdXTWR2ZS9UY2lFOTk3SGFSeFkyYlo3cnlER2J0WTFXTDFZekFUcXBabXdSVkY1OHBvRmlCYlAyTlZrdjRnRitNbXpldTBHQXVCL3RaMXVrWmoxdVkzUTNaOHQwRjhRM0NWUFIwb2tRM2huaXJHUXpPZUladzZaak1wbXlxbGtwL2daZ09wYXlmbnlDWWZMY1JzOTl0RWJ0RjBwbWpkNlh0djhVTy9PY1dCU2ZYV1dSd2xnSkRBdXVYalc3S090b0ZiYmdPeHF6eWJZYmJGR2lnODF5TGExTUl5c1kxUEpNeTBVVk8rMmVnY2xTS1hZeEk1VTdiZHcvK2VtV2ljOWExdFBvNkFLM1BzTW93Mml0NS8yMklMc2c2K2h0YW9GbHVZK1ZHa2F3Y1Rqa0tSZXZZOWRLbEV2NjJNVDkwa2tRcHh0QzNoMVNsVk4yMFZJb1BSOHBuUVd4K1VLZUkvYXBrSDAydmEzR3R6cUhvM1I4SzZacWRVaGYrMXFETUJraXU4d2tRMEx6WUxQYUYzM3VHaXc5dFZ4RkFlNk8rZ2JzdUpEMmVNVDYxMTZXM2VUY3htVzdzZHJudHU0SVlEOWR3U3k3eWtYc1VmV01HOWZxTC9QV3R3WVhXM1U2c281ZU9oL0k5YVhCV2E3TWd1MGRlT0ZFUjQ4N3FiZnhFaUI2bXNnMHpoak5oSVlGVXhTM1daQnF3UFFQV25SWkJySlRIdWxueFZpdGZyTFd0dHE4aTErclVROXduc3RvcVJzZlg1dWY3ak8zYVBXbHRlSTFONWxpd1BiYTI5bXFWVXk3aWxFQ0pQRkVnaDZqS01zVEFaTk5nbGgxZUovMnViNzBLWlVGbmU0N2pMbzZMclVzUUwyd1pUdVBXd2tPYTF0ZW40SE0rakJ6N3hwSTlhTUI5dmZQUUlXeG1waTY2RjlINTlHYTZFYXZJZUlFeUVISXl1YlpJenFPcWxuVTZWMjltVmpzNnZ6Q0lkaCtsYkwxdW5DZXk2am5NMnBtN1N1Q3JPOWxIbTU2WDR6NzBZRDZ1L1NnYXNFbWZtdVk5dWVMUjd1R1VrKzdpRUFhc25rRXBzSFBEaTY3c21PeUNDclozdnB4ZUMrTys5OWxQUjNUbVNTRzVUSm0zTWNJVWcreVk2K29TcVgzWDZsY0E4ZVpSM1lsOWJaNjNRZ1VUMndYbWNob3hJZ0dUS0NUOTRMTUtFSFUrMGlveEFRckxyTlZMSElST2J2b2pqWlpmem5HYVV5Zi9kSUVpYWRTWnhyVnlqaEc2dFBqUG5weG1GWC8rSHZnbW8vSkFQNmpNcDVpV1hGYnhVZzJFNWtaY21XTkFOSGJKRWFDQ0R3MVlQdGZSczBldURWaDVFUkk4UzdIclBWZXd6OU5RQms2ZlZkc21kZkliQ3ArYk16citobG9aZm5VaXhhTFBabG05UkZyeUJnNC9aR21QbDdyZlNXV2d2RjhOT0lqTzl4cWxDYU1wb3UzYk01Z3RXT3paUi90VENXQWN1aVZibit2WmFGTHdTYmY1dEh4UWFjT2JyVEZXL2FnaU9hdGZYdytaRUNRRE9GVDFOYzdVTDY5SWVxMDV2MVlidVYyRE8reEdnWk9HdVNOMEo4UngyY0MyZmhsbVJJb2U5a09SajdUMkhZdGdiMy9yRXFFOUpxWGVXeWMrK2ZhbGFsOExtdWw1YVA1VjJNZGI2K1hyNEZNNzdFeWpzZkV0RnA1cjBwaENMMERXcVA5dDRFYTNsUFVPblY5eEdpN0dxNFNwaDQxNDNWVzBrUGN4aW8rMDA5V3M0dmNlMzZmMnM4bUpqREpBUmt1N3dydzlwVXBiMEZtYmRmS01uNCtaSHF2cmxuQVdiQnhRb1RyWlcyYVVUN0hwdFA0YkhyMFI4c0l6bzl4SDM0bGlxV2hzbUkxS1h2Z2hpZnVSVHltMTNuQWJkT0o0ak45cmxmWmlQaUdWSlcvb0hZWHJXaGJ5cjA4czVkS3kxcTI3MHlYZThCRVdjWW9SanNKbWZHWmoveXhlc2JxMVlMSXFwOXQxOWEzcHRWTkp6MHlEWWdPTUM3ZTJwN2FMOVA3SG1CK0JqSXVzNUlnVy84WkFQQ0xlYXhwOWp4Nyt0RUV4R29iRFpqVlc4cVJ1dDVKajVMcGZWcHQ4T3A0S3RSS2lrVHJEa0tXdkFhTGFrY1VDS2hWcmRjcUZidkM5RUJqMExRUWtYS0lsT1UyUG5FbnhkTHJibmpnN3JxY0hMY0IvR2lNd0laZm1KNXZHYnNZVXVabHJvQmpWd0lmeTlyUFVjaWlmclVEa0xXdTF6RmMvSWVhNVRxT1JybWNEWmZyRVNUci9EeUMxTWQyRy9YOE0wamRsMmw5di9ONkh3MmlSdXp6bTY4czRNNUNtSTVyUmMyODRRbUFyV3F5cmJkTmREekxXZ2tRWGQ3S1BMWTZzb0VVWkZaVGV4WHRESEd2TlBVT1pDVnJYNkVTSUdiTGttWFd3NkFLckVMaHhpWGpxR0d5NHlrNzR4aW43Z2RTT0xWZS9YenUvc3VlYTRNdFYvRXpGQzZNM1RSazFtaFdoazhuUW9BYXVCN3JjUis5cElpbGNsSHlJd21aRVhwMDFRZTJGMVkxcmRXLzNxcXZ0K043U3JGK29FNXJ6L1hUeTFhZDRFOFNJUUxHRTNmTUdQSEFiVTEwTE82Z3pEOXgzOVRzb1pZZjYxUzdrYXh3VzlrS21hbG1WbHhtelFQWHdtZkdhRHFsRlFFRzdQR1pyTlBmK3RueGpGWmREekJldHR6RkE1QzFBT3U0bnpTclpuTkFubmkzUFBWeFdPS3pjVlJ4bW9aSlE2WG45Y0ZHcWhzQkowSXk3UEdXUUxLb2o2OW1UeU9qT0cyZ2x2TlYzOXEwcC9STk5kTi9uaDBGTG4xQnlFWEg3aU9iQm95WHZSN1Vub2IxcFBXbGpJRzdFREp2M3F1ZldkMXkvNnk2VWJlaGxMOGEwK3JqMUdybUFTUExHa1FObUN6Zm5ma1JlTDU5VVNwMkx4UkpYRCt0WmxaQ2hOUDdZYXEvVUxNaFZqT1p2MExKVE1WUzYvVDhwQmN5UGFIY2g2YkxldXhveGxHWFh3aFpGckRNYWFvNlkxTnhqTEtvQjhJNkxROHlWck1YVmlZR2FNUUN6VjJWODkvYit1ZXNZN2RSSUJMZ25wdktqUXFZZStFeTZyanJ1YnFiMmswc1ZHMGU4SHkvbFM2ajlUdlZnSzFvWHBrMXI0MEI0ODlpb3ZuQ2RJekdWNGdIRTd1T1BYYkVaZFRsMWkzZm0wK29HRSs5SnZhNGpwbTZWaEtEaitVQmw0WHNWZUFac0lBaVlMMFpaVkl1ME9sNUJ2Sk5UUWZnY1FjZXczMkx4MFM1TkhCYXpmYjFZeEdYN2ROZDlSNGJZT3M4UWZiOS9hWWdleWxCOC83WXNtTWFzd3BZd2ZhaUNudE1aeDk3dDdNYTVkV3hvTXZjN29HbWlyVUFPd0ZiVVMyNkh4M3R6V2hCOXR1ZGxDeUNURU9qUVJMM1VBUEk4M2ZnNHcxNHZyMnFCTWZkZ091MmxmRzhCZG51T3Q0TGQvSDV1QlhKandxeWQ4UlFaY0E3NDA0eVlCV2NSOVhwU0lQWU1qR2FudmV1UHIwdWdDd0NMT3N5Tm9DclhNZHNqTmJUWGRnTjJSdVZLVmdxbDFKZzAvRGRhWnQxbmFkbUdpZ05YVGwvQzVWc3p6aVdrRDNmNytRdU9wQmxFeUl3Nm1UR05ucHVvcjdRS2xYN2JNdW9HZGZyOGFlQUxoWExLRm4wc1FUckt0Qzh1ajJLWnNIMmlnVXNjUlczeEllT3Q2eDVEWTJsYkt4dSt1K1BmUnFyMlYwQlY3cU0rL3k5Z3F5S3plYjdsbDE4dk4vM3hNYzBBTyt2T1ZmeGlEc1pXUVNYck9NcGdEeHMybVdzaUEwYTVlMnJWY1pYbmxXV2lNVThkN0hsUGxyTDF2NjV5R3AyYTF2dkZDM1lySGhzSE5hM1grbDR5Z0pNSzVLR2psMUlCZFJXUjgvZmdXOS9mTUczNFhkOHcrK2JtbjNEYnh0Y1Mva08wOS9yOGxMbmptLzR2WUtzaU0ydWlNZU9xbHZXR0M3cmdpdjJaOEVtWUdrcU9UNDc0blllamRXU0xxSlVpWlFzcTJKSFFQdXRzVTMyZm1JcG1BbFlTOFY0bVZWc3hBS1JUS1dPelA5Ui83My9BVHp1TzFoLzQzZjhqZDgzZ1BhLzMvQTNmdHVnKzl1QVRBQmtGWHU4MzdZK3NoL3Z0LzZFUndSWUZrSkx1VGk3YU0zckwvWU5pMnU3MlF0dDVEMGFvNit1bzRvR3RJR3pZRXVNN0lqQXVrTE5HdkNaNmYyV2w4eW5yZUVMQVJzUngySlc0cU9sYXF4bWY1UmwzLzhBdnYzeDVvQzF3S1VCbEhJQlRpRGJZVk1Ka1RVVzYzWVRrU3kzNm5uV2s0MWsySUR5U3pWaGswb01tU1dGdllxV2RTVjF2ZVN3cVNPQVdaOUoxTXlFaDkxVU5FKzhXZGswWU1CRmJxS25haTNRL3NRRzJkOS92aFlBYWJqK3htK2J1c202UmJWK0s0QVR1R1Q5Yzc1dmJtS1I3RGdDR0pjaG1MZTJid0dvZ2VKcGRPZCtzL1l0Ri9jcmxsK2YwWkJka2FYMHJ0Z0RvK3BiWVBXcTJRbklBTlQ5YUQyZThnYWRVakFnY0JPMWlubVFlV3JtcGZjWk5JSHMvMXNnazdnc2dxdGMvM3VoWkRwTzA1QTkzdTk3SEpaTmRPREMrUjZ6SUFOeUY1SllkVng5OGZOVkUvMEVsTFg5Q2JQTzRTeHMwWHhVRmpYVFU3U3drM29kUVdTcEYrQUFOcUx0SG1xd3JHWFo3ZzhxSTdkUmxPemI4RHYraTcvd0RiL2h2L2dMWC9HWDRUcit2Z0hHcnFOQXRzVmxqeHNlNzdkRnhTUU9lMWR4R0tmdEVTd2pVUmJWeVNvWkwyc1I4dHhGcWF2LzlQNmFzRi83R29ETlBGZk9nKzJvcXhoQmxnSE1xRFArN3RXbFIxZjBnNW1zWElBeGZLb0ZtS2Rja1lKSlBWRXVubDhUSDgrM1YveDMrR3VENkwvNEMzOURvRnVtKzkrZjFUcnRPbjdEYjNqT2QzejcrdHZ1SnI3ZkY4QXkvV0c5TU9scGF6dGV6OGJoVStzdXplN2lpTnp4TFd2QmVQQ0NiYXJPVmU1aUJyQU9WUnQvQzk2M29mM0tBalNHQzRnQmkrS3dLTkhCQUFhcC9ZOC9sZzVwU1h6OEZ6dG9Xc2tFc0FYQU5tUi9QMzdINC8yRzk2Ky83NEJwOVlwZ2d6RnZUYjM1cU15TDNTempDNExWak91MmxPd0swS3gyWmVyMHFwcE1qNnJZQlc0akFJeS9lVDliaTFMVnFtZkU5SU9Xdk16akVqUHhsZ1ZhQkpoYUo2N2lZN2dYY1pZR1I2dVl3R2RCOWw4RjVmTnh3N2V2ditQNzE5K1dPT3dkTldEZVVLb3pnRVhyb24xbHpicFl1ZjI2ekhJN3ZUYXpaZUhQdHBYTGVsVXRtbnBsWGpzeTY2VEthNkJveFE2c0o1aWxmRlIvRm1BTVZqUnVrZUg3USsyTFlyS1B0MTNGbmlnaGt6aUwzVVdCYkYrMklmdjcvLzZHYjE5L3g0K3Z2Kzl1b3Y3THhHVXdwanh2TGJmcTlDcE02eUt4WXJrb0xzdTAveXJMS0VwVzFUTFRhRDRxYTlnSUM3U0ladS9wNXA3MHZRZVlnTlZRTUFIcytiWWtQUGFPNUZ1aFpxeHVHcWdTTk9WQ3pyL2oyOWZmRmxmeDY5c0MwbGZVYXVhNWpERG10UjF4dFhxZ1k5T3dlRXFtNTdPQVpXNE9aeTF5YjdQelZ3QjJVczJXYXV3NlJ1L3ZpTlNNNTczK3NCNzMwQ2o3ZnQvZFJOMlIvSTFBczJPek9pWVRHQVd5Ly83bnI5MVYvSW9Tc2g3UTlKVG5leXdEWmhZeUx6YUw2dldBbGxuWFl4blFlUG1JZS9qSmFyWnN4b3JXVWpNcGkyRHpzb3NacUJ4RiszNWZub3grM0hmMWtyNHRnVXVBMHlNN0JLcS9GVkE2VVNJWnlRS3lyNjg3WUF4YUpqYlRVNTYvMm5xQWkyRGplZ2ptVzhmcnJlUFpGYUJaWmRuNnJYYTAxaFhWV29wbU5ZRGZ6Y0hEcWJTU1pSV0wrOFpVb2tNQTAyREZvSld4bWxZeTdTNXVhZi9IWDN2UzQ2dFNNZ3N5RHpUUVBKQy95QTdlSlF2N1RNaWkvZmVBMUZPMzlabGt3T2dGS3dQWUpZcG03ZVJNRXNSS2ZtaWdMQldqUk1memJjOG04dHVuSXJlUjU2Mll6SVRzUDRqVnJBV2FubVpNdTIyNjdFcnJjUnZoMUwzU1ZjelU3d0dObDgrNmlaK2lhSDhrZDJLNWpSNWdNcytnc1Z2b2pQRGdPSXhIemN2SWVnMmNmcHlGUWZ0S01WbWxaUC81Qy9qNlVpcVpCVnNVbndGdE5XdmRJVGt1dXZDT1dxbFQ3M0gxK3BaOXBxc001RDlIUFgrRnUzamtzeDlsa2tudmUyb21aYTJub2hNS3hwM09ucHNvYVh6UGJaUXlIWnZwRG1nZGs1bVEvUWNsWUJab01nVmkyTHpQVXkrMzRpQ3Jmc3YwemJBbjNkOENyT2RDKzdmQUZzMTd4OG1zcTZvR0hkWUZXSHFabGN5S3phd1JIMXJCYUREd3g5djZjT2E5Zk1CU0QrNWxGZU5Cdnd5V250ZnVZcG40ZUxGVmpFSHJ5VGEyUGsrWjUxVDZFZkFzMDl0ZDRZWWUzY2ZQaGkzalRwNEY3SENNeGpCNU94MVJ1NDhNWENiVGFLaVpKRHdFTWxZb1ZyR1dxbG5BY1QrWm1maXdYTWRXUnpXTXFmOXA3OU5NZ29LM3RXSXB2Wnl4aSs3UUtic2lkbXUxNllpeVplZXpiVWpValdNMEx4RmlBYWJWakYxSGh1eFBiS3FtNDdGOXBIeXBadnpRcGVVcTZqaXVIT1doNGpYcGpQN1BYMlhpdzRPTVlmUFMrbnlCZUFCNHJyaDhqcjN3eWJZWjRIN2kzYnV5WDZsc1J4WHM0aHZTV0NoWnE4SFcrRVpXTTRhTFZTMEJtUVpHdTRiVzgyR3NadnI5SDA4RjdEZW9FUi92cjdXYjZFSDJGVzIzTVpQNmJvSFVxMnhaOXhKcS9SbTM2WXo3bU5uMmJGZklFVGN5czEyclBHbDFqTVk3Yk1WblVWcmZnK3hlUTFZbVAyekl2aEdJREpmbk9qNXd3L094UEVlRzkzczdmVytWczVweE1pVCtsR3ZJWkhvRW5OYStlVDFnWDF3dEFLM2xWamxRMzJBaU8rTCtSdld6Z0dXV28rTjQ1cnFPWHRheHBXWkEvTjRQcjJOYWQwSVBPcEVoc05XUVdTQkdrT2w1ZWRSbEd5RDgxUmdnN1AxcDRGcHVZMCtIOFJVd25kbFg1TUxDbUxlV1c4ZG8yVkhBc3NjN0E1eFhsajIyV1UxLzhHeWVtc2s4dTQwSnlKYjNLOHBJai8xOTlqcHIySUxNeWo3dWlaTnkvam5mOFhpL0xhOGQwS1B3TlVTZXN2WEdaOWFkdkFYR1ZRcVdWVFVMcnM4Q3pySXJBV1ByQlM2N1RlOTZjNVA3TnVmdjBBSXU0emFTQ3ltalBmUndLZ2FEM1VWTzhXZEdoaFN2OGw1ZlBiQ054T2Y0aStjOTZEelFBRnZOckpTOUJVYlBuZFBiSjVkNTIrdjVER2dXZU5aeTFucHVLcEdIMExJak1FWDd2ZUNta0IvcnlLckdzT21NSS9leHJiREprQ3ArKzIvWkliMnJIQVBvdmZhTnQ5L0tIc3RMZEg2ODMySjRHQ0N2akdHRE1lWFA3YWlMSi91d0VpcDYvcWpieU1zdCtIZytLbVBMcUpqMytXVXNjM1BwTGV0dFE4UGFNWnFsYWg1c2dmdjRYWTFiOU1BUzhQU1BSdFN2NHE2VmpiZXZYY2JYR2lDclg4eGFmMGJSdkMvcWFQcWVselhNZWptelQvM0haUWltUGNmSjFQL3NXTTBydjFMQkV2Vkg4NE1VeThSb2lXZlBQc1lsTHB1Ry9mZkhMTENzSDVTUVgrVVVPT1UzekN6bzlycktaWHkvdDlYTTY0eTJGSTB6anBGcEVNOWNTQlpzZXYrODd5dkJnekhsZGh5eHo0elZvdjFlQWRpQk5zZWo5eTAxazJrMG1KaVNIM1ZjeHIvYTR2K2dSS2xXM285T1VKM0NaWHp4NGJKZ3lpcGFyNTJGam1HVE10NC9sek5FMlQ4WTg3eHZhemxyUno3RFhtdTE3ZXo2RHJQSE9scWQyQm82L1lVRXo1L3BSMTNraDliM0gxd3ZmN1oyL3hHL3NWU21GU1NwcDRIU3Y5cTUxVkcvNkZMOXFxWVhpMlVVemNveWJtYTlNTlI0dDJIbTRyS0EwdXU4L1J5SjFZN0NaaDB2ZS94ZUpZcytzMDl3OFQ1TFlkc3hXaWJqcUdNMHBXN1RBTXpqbCsxeEZ3MEsvMnp0N2g2VzhkdnVLdkt2YW82bXl5anZ3cS9VekV0dTlQNFZKb0JGVi80QjRDS2c5UHBlMDlEbzVhdGdpOHFQQXRaN0ErbXh6M0pialdQa082eGx5by9Jc051NFR2V3JCL1pmd3VRa1IvbXp0VnJadkI5cHIzLzRiOWgvVTNxV1gzVXgxQ3dEV1plU2ZhakM2Q2RsSGVDeTZwYXR5OXRFNVJaRVY4T1diWmRuVjdpV1Y0RjB3WDdpWkVpa2FrR01waUhUUDlqSG9KVEpqWHZsQnJMTHVQOUkrdzRZcTluK2crekdUeVo1c1ZtM21nbGtHakFPa2hpK0VZZGcwNSs3dnN0SGlaRG93dkJ1b0QzQWVmdTUwajR6aHZzWlNsWWQwaHU5YjMyUTFxdm05S2lRMFlhc1RtanNhdlFrMTArN2tSbzJ5NFY4YW9DMW11bE1ZeTlNcmRFZkJXUjZSZWFIMGsvQUpwdkxOcGJhV2V1dDdTT1kzcHh5R1BPOFg3UE5GTDlPRjcyWC8yY2tVeTYwL2lGWU1xVVk3ZU50aWNtZWIxOHdqN3ZyTnl0QTlLOWs2cXloVmlaeEk4c3kyNFVzWEVkUHpYcGhnMU1Hd0liTUFzeFNNLzJEZlNkZ3M2d0ZtRlczQnpKWDFSUkVvM01TNDJ5WFQ5WURrQWR0K2dVUzFXbmo1dmJaYTh1cDAybjlNUzdaeFhtVW1HdzArNzQ0Z2FHVEhUb2JhZFV2WWpFMXJkUnNHczY1aHMzWURDZ2hpeWl4WEVncHZ3QTJUK0g0KzR5V3MrcTIxZjNZb1ZJUWZUR0FHanpJREp0UGdmY0VnT1VtZTVWZHVTOEFJLzUwMWlSUy9COGoxc3ppa3NKZk9xVHZCV1FNbTRaSUs1VlZwbFZMZDFUcjVVck5ydmhSZHRNNExtdXAyaXZ0akpjL09XWmo0Tmh6OGR4Q1Y5bFd3Rlo0Qkt4aG01YU5IenNnODJ3NmVMSFBIUXJuQW41Qis0dmRtVmxIM1U1eUh3VXVZQUhNVXJFeXF4aDNORE5zbkw3ZmxhNVV0UTNHbjZwbUFwZWU2bldXTVdEOFFSK0FqWGxscUNJWHNxVmMxZndPMkpkeExzQWFDVGF4SGlXTDdKYXNWOFB5Ykt6ZjdRak1QU0NMTlVIN1dPY1pybVYrS0ZSc2dxOW8zTkZzcGZ0blVpOVdPdDMzWnNkbVk1OWlXWkRCcXN1cC9Fd1N4SE1aRDJZakdTUXBtNXhweHBwdTR3TFpsN2NuaG5IZVZHc3NnSnN4RER0WWc5SDRFZWZBbTlDQVFhNU41OFJuL3JFL0taK0c4S2JnQVhwRXJjY1BHaG5DKzU1SG1aWnd5VWxwYUVTRkpsSTBhM1JIbFpvM29SdXhKengwYkRac2FyYVBBbkZTK2tBTUdDL3pkRE1Mc085ZVpmbDQxenF2S0pNaEhiQ3htNmczMFczTlFCWW1ObEJEOXZiWVZFd1ViSkMvRmE0QlV3SFNRRkR4OGhIemxHMnVBSHphNVlNTjZ6elVIOVk4Ny9WYXl0d1RWNDZQVmRFRXBHSkg2azR3RGN0OGRiRVRBQTlTTkI3NHkvMW9yWFErcXhsbkdxZHBLTlVNYUx1REdkZXhNS2JTZzB6S1hvMTFCMkRqWGVpcXJaak0ya2JQYTlqRVhkemN4aDJ5Mjl1akFrekRKZCtHbUZZMFM4bU9nbGREVlJxRHhPbzJXS0JSV3lZTUdBYjdwbW1wcFZieWxvM2YvckFHTzVZN2xwT1VxUVhZWkNpYTdpL2paSVlYaTFucGZNNDBsbW9tdnEyaFprY2dnMW9HVUE2ellqaThaSWhlOW1LMEJHeWVVTExycUNFemJ4UjBDRDNQc2RuYjZpNHF5RzV2endJd0RSZERKMVlyV3piVGt6ZDlqZDYyTWdIcVdjR3BZWnd4Rm0yY01WUnQxdHRIN20vVHRRVXdQaWxJOHhxM3c3YTdqQm93VnJSU3dlcWtDQStsaXRMNVBFcGZxMWs2Q1FMRUY2NEhISUE2NmVGbEhEbExJZXNGTm9ickFHeGVYTWJBOFRZOGRmK1dtSXdodStPaGJuczdjQUMyc3Yxd05YaGlWN2lTR3FhNmJER0dDbGhneklLb3Q0dmJrRHVuOGFFOFlFdWVOVmg2eW9CcFJhc2hLb2RRc2N2b3BmT3R6bWxXczgxdFhCcmxxQkpxa0x6a2lHdFduMWtVbzJuWmFjSEcrekJnWXhlUjQ3T1dwV0Q3QUZZWFVTQzdEWS90Vzc3aEFhMW9BaGRESithNWxHV3pjdUI1cXNFd3lQWHBRV1VCS051eHduSGI5TGE5Q3IwcG1nMlppdEdVb21ub2FrWGJsVWxEeG5HYWRobTlaWGRhcWRtTEgyZEZZRUhWQWRVM1Yxcm13YWZqTkFzMlhWZlhGL3VBcTJ3Y24yV2FwZXU3bWNZSFh0K2V1TDg5TmlVYk1lT0c1NlppZWg3WVl6VHRTaTZIdURaQndna1JWalhyV2wzS1M2RVlpbld6dXcxRFo3VzdGVGRxRzcvaE4zZWxGNmN4ZEphcTJTNWtDWjFPMTNNOFYrOVhmUkJSU2gvSWdaVjFLNnVWVmg4YW5PVUlOc0JPbW9nUlJaYXF5WHgwdmd6alNHVkt6YjZzMlVWSmVvaXpQMkRDSGMvS2JXUlhFdGd2UmdadlA5eHhkOUs2c0ZzdW9zQ2tyMW5lbjFZenJXU3lqVDRIdlgxUHU2c1l6VG9wYnFSdUlLdmFvM0FSeXppTklhb2Y0Tnc3cDYxWVRkekd5bHF1WUZiUm10NUFUNStaTG1lMzhkVll6NDBCM0hqTlNvSzB6QVZNL3FiTlpSekcwbGtYeU1vNDdYaHlKTHBBR2N4V25GUW1RVXAxMDlmdFRkV3gxcVBZajdSbHFNcXRHMFVyR1RKZ0ttTzA4aVRzZzh2SEtnZG94V2xXTXNTRnlGaldhdWE2amVWWnQ1VXFreHdCVUQ0NTNmSTVNK2JKVXVSQ0hqU0dTcys3c2RrQzIyMG9mUThObVhZZFBVV3o0N1U2V2JLdmk1U0JSbm5RUloxeEV6MVZzOVlQbU5UNjJYUWJ1UTJwWklpbmFMeEQ2eTVnS2RvZXEya2xLK01zMjBVc3QrY1B6MDJDUkc1Z0JqWmVEak9PUjAyckdDL3pPbTdFYTFsc1pSdDd6Y28wU2dMay9xeWlZb2JNY3lPQk1nUDVtV24vVmlaUnJrbkFCazlESlVESlZMdU8wajdMWmV5SzBaNk5FV1dSMjJoQnA4SFNpWkU5TlY4bk9GejFVc2VxMU14dWJBemJGYUowcWJIdng3RWJZQ1pGMkp2eXppSHFwRWE1UEJndVl3OWtzYkxaYW1ZcFFhUU81WVZkcHVkdHRYcWExK213L2wvS2F1amtXRnJST0c3ajg0cGNYR0R4ek9sazZnMzBCYzhuVlNjdGFzaTBjdFVqUDByd1pQL1ZWODZ4bVRYa0ttTy9GQ3hwZ1BXbFdNcDJZRGRzVVd5MmxlMXVvNzRGM2h6SW9sZ05pRlhOY2l1WDVkd1g0Nlh6SXplUm9aSnlEenBwRDRPbjI4MXFGblVGQUk3cjZQbkJtV1FJeDJwNm9MSHVHM3VpSE4vb2pRTFJBSnA5WjVabFhNZVV2Y0R2L3dKMi8rM1ZXT2RaTm52UllWNDh4blhNOVA3SDVqWXVveitXYitPR1ovR05abU8xWmZjTW5hOXNub0w1TVpHZnp0Zlhwd2NYbDdQcnVLOWZYRWdHajl2bnVZOThYbTR5UkRkYzc5QlN0d2l5VXZWc2w5RnpJNHUyckc1allWWnErNnhpeVFWbzdrZW40M3ZndWlqQm9hM0ZLOGRoZ0tOdVUrVTIzbGVJK0Z2TEpFVDBOd3JVL1dxMXN0VWZ0TmVKN1hsZmxwb3hkQnFjTXRrUngydnNQbkliR0VEUFJrK0t2VExMNTlYbEpUQjFCcExoMmorWThtc3Q5cW5jeGkzYjJMSXNjRHhpd3EzRW96azQxODRwZXpFTm1kV3BaZFZMbWdXT2RSaGVWL3l4MjFqZUhuYzNjYW9nczRFcjAvd2VXSjZpUlRGYW1maUlzNGtNbmJST3d5VmdNWWhzR2pZOXYzKzBkZnpHRmlaRE1pNWs1RHFXeXpWSSt6NzJyM2d2cDNxVm1sMzBraGR0Sm14ZTM1ZE96V3Z3UEdBOHFCakVWNnBMNXhtNWhqeTEvb3AxdGR0bytScmwwS3NZTWk5ZU85T2h6Y2JYaVFCb0tacWdOZEcxcDRIYmwwdmw4dFRLZ2kwcUI1YjdXZk5rNUlTQXZPdG9MZXV2ejhvMHluNHI0RmJJcWlkYnIzQVQ5VlRtSzlmUkdzMmhPNXNGTnF0aEhtQ2pXcmJnWk9CUWcyS1Y4eUc5N1J5MzBmdjJibXVNWmtIbUQ4dnlzNUJXOWpGU00yM1dNQ29QcnQwbDdBZXVQR2JPUmZSczFBMjBqQ0dRazFxV1kyWFRxWDQrd1NyUlVhMHZnWlA0ckhvQlMyOWM1bDJVZlBGdTlrSVZXOGJRQWJiN3lKQnBOWk9wb2RwdVVzTXBpNVFPTU4xR08yb3ViNDhXWkY2OEJ0UWpSaXk0SW5XTHN1TVNoK2wwdnAvNDZBUE9pOUVpdFpNMkZlZVM3YkRXSjh1QXlUcE85OXVKa0RyaFlhbllObThPdWVxOHMyVHYrREpmcVZyMmVEcFc4dzdBYnVOSTg0N3JHUUhWV25iL0lyZXg5azN1U3RXeWtHVTd0YVhjbWdmaTU4M3M1RWNaaCtsaHliS3NreVA2V21mWDBWTTVMNlpiamxHQzJPMDY2cE10WWFuNzFPbzZYbWUwWHhlQWNoMFRTWkR0ekp6bG5ndHpBKzNGMkdHUHRXSXlQUy9IZVNtclhmMEg5U1lyY2h1WFEzcTN6RkxoZHVqcVIyaXNOSDl2cHphYmRVTzIxSXlCdXdIVmNtK2NkY2FxRG10OUFtV1o3VUt5dXRseFdmMDF5WEgwUE84LzdSTlhNWlVxdDNiUkExMFhiRjdLUDNJZFdkRUNkL0hTdjQ4dFByUGNSanVTM2xWTmd4VkJGb09YZXpwYm16WGtpdnZKMkRXc0ZTNWVsamFjQVc1RytUemJhRjNnMWtaaWtmdG9nVlhYR2JmOWFHQ2o0NGZtUWNaMU1qSExpT1dSL25lcTY4SW1CK2YzZ1hobXdhV1hqUXdqdDAxUHVkeGJ0djdlSGhqR0NiZTdkZ2R0dDVHbnBmdFlRN1lQMDdKZHllWFVhbmR5bWNiS1ppbmF2cWM0RnRObFVjaWszVDZPMVNKM3NkeEhHYXMxeHpwR0o4ZFRMK05ZcnQ4QjA5dnovamY0ZXQxRngwM2Exa2YxUE9pV0JxMzJvaXBveUNMaWRTTWFjSG5uWXNIMEJ2K2RqSTIvTGExdlpCc3Q2T3lrU0FsZk5EVHJoc2Q2V3JYUzZYSXhUOVc4WjgwWU9rbkVNWEQ3OWY0STFDMS96VVhnN2ZHaDR6cHk1WEs1YjRTSXBXWXlId0hYYmEzcnZCY3lWajZBWUFNV2FEN1V3YU5PWjcyam9BOHdBNzhGVkFTWjhaWXIzMjFzcWRrRS9wWXR5THgzakhobGdQMTB0bWZzTHRZWng3a1luVFJnd0FNN3FMTHMyWUpmVHIweVZvME1ZYXNWcHdac1dmWWhLLzFvWTNnVnExajI1Q3k0ZWtES3FObmJlZ3ozZDZzMWRBZXQ1eWFnb1dGVjR6SmVSMjdqMG4vbVJkUDg3ZVdBc3lCcnVaSldjbVJadHUrY3VwUGFTdW52Zldqek9qSkpqM2ZjWGNjN25vYWFsYkhhOHJYa3NwRGhWOXphd0FNdDZrdGo4L3JROUg3NldqMEJrN3F3QmJnSVBEMGZYY1JpQXBrQUpzQzFIaXBObndPMWk5c255NTU2c2N2b3hXL1Z0dnRva051d0ExSGZGdjFnZ01zMFNCb3lQZDlPbUN3ZnB1eGJXMzFoUDR1YnNsWTFkaGtIVEhqaWpyMVBiU3ptbC8zNjRkTVJxQ3dMUWVOMXJWak5TL1hyL1UyMHpQTlJlNFp4M2p1c3g0OWxHQlpEeGhlV3dQQm1yT2RYV3I1VE9UL0wxbnJBTkxMUm1HZkE5SHhXMFNJbE05VnRVYkxibTR6T3I5M0dzci9NSHpIQzhPeURqblZHMG42T1RjbzFXSllidVgxazg3eTl4QmZ3Qmt2c2VDMXgyZ0xZaUhtZDM5M0paZHVsZkdtTEZhdjVJMFo2T3ErWDlnY1hkcll2VGVxMlV2MTYyMHZpTXdzeUM3Yk1SV3lwV1JZMG5yZmF5Zk5IWWN1NmlWYjVDSHhaMzNKbGRWSzNPcXhaaWJ4RWlCNnlwU0ZyS3R5OFFqYko5RWZ4TWQ1VTE4azhmdG5lcEMydnFOOEJFMVdidC9ubEt4SXdyQXk0VHBUdzE5Y2VvdFV5TnhuUzA1ZW02M3VRNldVeFhzN1lGNjFxUUI0MnFXdS9tSG1IYTIrY0R4cU1LYy9MOGF6bEZteldzcFZkVEt1WXpIOHZ4amJlMUZ0Y1JIMHNpUFF5cXhHN2xQdWJzMnFGMDlzVkNqZlBHS1lady9RRHc0VHRGNU5lbkp2WHh3amc4UVBUc0lBNGo5ODM4QjdEZllQaGdkdW1Za0FObUNSSDlIOTJKYk5ndGVxNXlSQnJJMTFtQVNaVEwxYlQrN0gzbjRST3ZnbUowelJjdkt3dlhPNGpZelhUc0htZzhUb2dWak5wRDg5Zm9XZ1diSC9DZ2V4alU3UGJmWUZMSzlnQ2haZlNyNmRXUDVvVm4ybklHTGh4bm5GNy83N0I5YUkvVi9HNmpNLzJaZjJjWG9mbC9NWVptS1lmbU1jZkdNYTVBTzZ4UWJiUDYvYzV5cnpPUXJJcktTWXdjWElrWTVYcjZGSHB1WkhzUW5xeG11VkM2bU42WU1vdmVwaS9Zeld1NzlQUWtHbkFnUDFDMDRDeHFsblF5SmMrSXE5b2tURllNbjlGbkJiOWJlQTlxcEg2V3MyMFd1M2dsR01idlk1cnJWVHl2ak9CVEk4azJWekkrVkVDOW80RkxBYXQ1WTZ2bDhUTENMeU93T3NkK0JoLzRIRmZnSHZjYjFzYkJUS0oxOFJxejZ6dWM5TmpJdXRtdEdNMWdFQ0xWV2lrWlR2bThpRHo5cG4xZC9rM3FTcjNrZWM5eGJDZ1l5V1RhVThTeEJzQ1ppMW4xUXp3czRnUmJGclZSbXlaUnExbVdzRTRIWitibG1YYUZmUWd1K0dCKytPSllmcUIrMk5Wc0lmNmJEVnNyR3phNUt1WHowSnQ5eklDYjlNQzNEQzk0L24ydXRWZjNNaHlSTWgrYmQ0QVBJcjErM051V3RXT0RUUnVQaVlqRmlsZkJObGV4KzVYTzJ3YmVDTTJWWk5GYjZvaHM4Q1M2UWo3UithOSttRTdqZmtqTVpvWHE3R0x5SzdqcW1hMzlUWGZTd3oxS0JSTHcrYXBGMCsxeTlncTA1RGQzbi9zS2lhUWViQUJPZEFHTlg5ZnRuMjVMN1BEOUIzRDI0emhQam5Ecm01ckEvWjUzY0ZkSHZaNHFqOThUSWJOeXhSRzR4OGpsL0ZTODlSREs1YUc3SjJtbnN2NFR1VXdwajF0eTZpWm5qOFNwMm5nL254ZjM2Zi8zUHJOUnN3S3RqSVRLTGZCTXVGUnE1blh0NlpmbFd0QjlxcmhlbUMvb2MzclBJTVdlUW9XYUJPMjcvTmxYdHhKNEFlQUoveExmWWROQThZZDJuSU5NM0RzTWxwQU5qdXN0WEhkS0NFaTY3bExvQld2ZVdiOSt1S2UvRjFWVFp0M2NYdVE2WG45cDJNMEdGT2U1Mk5iYmZDbVorSTBFN2p2KzQ5VzNQZDNSSE5zMXF0bU1YQkdOOEE4NzVBSlhCbzREWmpNeStmYUFzMVFzdzIyZFIrdkU1Q0ZUVWFNUk1PenhIb1VMZzJhNWVyMTlxdFpsbkVqaDNFMkJ4ZC9HV2NmTm4yeGU4b2wwOGhkdERLTi9PVm4wL3A2bnFIU1paZW8ybmU4L3ZuMzlzc3c0akxlVmJKQ3U1RkgxSXlUSHZYMHVTVStLc2hrS3NBSllCblE5R2ZEYWlaVEFYY0Y3aFhBT1BmQkpoM2EreUg5cEFoREo1M3djbTAzQnhWcmF5VkU5STVaNVdTKzUzZ0RKbUJBOFpTMVRvcUVJL3Y1c3hEWTlEd3JHSkxMTU9aYngyOHBtVGQvQ0xidmV5cC9kUmtsbTZqQnN2ck4ycGxHSHp6dWV4UEk3aG9taHF3VnExbWY4N2pXMWFDSm1na1g3SUppdVEzZmhqeHNBSERIdy9UQWVsTDdBTnFEaXRtaXBFaXJiMjNmcGo1bXBoMnNiT0pPaGk2a05vWk52Z2lyTEZLeXEySXpubnFRY1JrblJEYkkxcC9GZlh2aTl6Ky9iWkRkVmR4VXB2RDNER0UyMCtoQnhTN2pEWSsxRTFvbFBrU3hQSFZqMklDNlAwMGcwd2tSK2Q2MG1qa2d2WTZBdUpIemZjU0lmUWp5b3VhQWxZRThhOVhWblhFbHZWaHRXV2ZIYTNVOTM1MWNHa2FkaFFveVVUVjVLMWJvUXJKbEFNdENGcmsxMW5JdlpMd2NLdHJ5QSsrdmI4L2xnVTRGbVU1OGlGdFlROWV2WnNEK0dnUU4zZzNQZGJUSEdwZk5LR094akF1cGxVMmJCRStpWk5wRmpKNnVVWi9uSzRCNS9JSDcrQUJmZ2d2RGU1L2FHWnV4Lys2YUdhTzFZTXVNZ2RUejJtWHNWVkFBR0laNWN4ODFjTU80WE9uek5QVEJKbVlCbG9Fc28yaFhxQmt2bTdEdEtqWklYeGxCcHBNZ2UvOVdLeGFyMVF3b1I5ZnZnSEVDWk1Jd3phWExxQk1mV1JkU1BtdSszam05ZjhldVlxMEV5cnJ0ZlFTQTc4QWJNQS9EZG83MzlaWGpTNXoyS0dJMHk3SUprVlF5SkRzZTBsS3hGc2pOUklqeWhRVXlQVnBFd3dZQVZmK2FaZUppUkg5U0I4WVV6cktuWkhyK1NJekd5eHRrMzRGeHhwZHhMbjdjM1lLTTFhcWxYanhkbWxBK0FlMDl3eVpxOWlLUWlNdW9JZkpjU0U3elI1K3pWcjQ3MWVYdllsai8xdGp1NVIwWWhtVUE4MjNZYzR4UDNGZDMwbjlsdVRhdFd0cGtpTmJXNURQSkVIMndhUDZNbW9tSnFyRUxPVTI3MGdIcmlCRUxOb2JMc3BIV0g0M05aRjg4ZndZMlhhNEFFeFdUNFZVYU1oNEl2UDhVWkRzbVk0dmlOVm0vQWJmR1pzWG5MUzZqd09hNWtGSlh3QVJxUmRNd1dUYzNpZVAyeHUvSFU0bVUxOGZpUW83ampIbjl2VzRkcnkyN3M5MUhCa2tETjZQK29mbWltVDBnUkVrUnZkenFhN01zSThjQ25JN1htckJaeGdDT3hyeDhMSjhCV2hxMnhVWFVnQTNqdEtuWTh0aEwrZTVGRFZjbXNlRXBWajVlRTdkeEdmMVJLQTcvY1ZlSzFJMUdpZkRucVZWUFg5Y2N4K2tNcGN4UHkvSXdMYW8yREFKWStWa01qZXR3T1hUOXUycHM2YXhqZE9GN2luWjJtQldQa21aVjY0TU5NRHUxSjVxUDNNYnNmZWd5TlZ0LzJ0Y0JiQnNrUE5pajVma1pzVmFhSG9CYk56Szl2VHhUOW1MQm9sMUpEVllyemM4Mm8weGlTRmVOL3N3MVZJUFRsbkc1Uk9iSlZyWEpnV1p2UnFsY0dqaFp2elVwRTZONUI0bktva3prR2V1QkRkQ3BmOEIwSmIzNW42MW1XOW1xWE1BR0Z3QVhNSDVpbVNGamwvSG14R1l0OXpGU3VLWHBDbFoydnpWWTNxQ0FYa1hUNjNXL3FBQW05UVEyY1VjSnVwZHBqOVU4VlFQcWE1ZmRSTzFLYmprRnRYM2FWOHdxR21CRGx0MFhXL1RzandmYmRwd3FHN25zc1JwQmtvR3NKN3pzQnExVUxnQ0ZlZ0Z3QWRQOVdQVUlldHRsYkxtUll0WUZaNW1HY3BqbTNaR3dZQUl0ZSs2bE5aSWZhdnVSbG5YNTZoWlcrNVJZYlM3cmpPT2lhanJCS0hxMlB3SkQxeGJzbUt5TzNaYUdqcnh4ajFuMWU5ekZxSzRWcDdFTENkaXdjVFp5ZXlvN2NpVXR5Q2FxSHFtYUZaU0hVeCt1NWJ5bTdjYWhBUU9XMFFyeUdVbi9tQWNjWnhmdFZ4R1VLbWJCMVlyUGxqcnFBNUlMbW8zaGdscm1xZWMrRGlpL2k0SEtCK3dwZjcyZnU3RThyMjd1ZlhGN2QvZHhUYmc1cXFhdno0SHFsdytMcmpmS0krNmN0MDIyZjYzWHJHZDhOR3hibVFPYldBbmJzdWZGR3QwQVhEMXViRDF2d1FXWXJpR3dxOWRXUHV3UXNJcnBaZitkSFBHb2UyMGxPTzM0akxmYjB2cGlyQ293MXJGNUtsZ2VjTDhoem1xcUFDcm1MZkRWOGtEN2w4K0c0ZG8zM2QxRFVUZUdVMSt6WGZuMkNKYlR6NWV0NXQwcDl2V3FYMDNGYXdCY1pZdmpObUQ3R0VhZ2VMT1dXZ1hBdmlpc1Q1REJBaXJsQWhDcWw1eWZ3Q1NmaHdVWUwxcy9IQmlsNXRsdHJKVXFCaTVLR0ZTV0JTdmFScFkxYk5xZG5JMjYxckZrZVhVWmRaeW1YVWJ2Mm1iSStIclZhdGdFTGFORXJaSDlubmxQbzdicVdyQUI3WmlOclFadU9kSTI0VjhWYlowU2c3WE56eVpjZ0sxZXdONHZ0Y3pyckdEN3Q2T3RCekU5a0N5b3JQbHVpNFF3VXFxangrTExTQUVVYnNlRGtaVXQxOWtlZjVYcTF2ZHJvT2FsYzBWMnNOY0tlQkwrYnhZMkFLRzZBUjV3V0dGTGlqNkJKZFpTTDVuMkFMYXZxeUd6VXZxV21zaytMUGpLTzNHZEhIRS9ncmtEVEQyTUt2UHcxeFdXZ1M4d2ZlNFRYWjh0VDJ5N2luNEZYRWVzRnpZQVRwS2tCZzRJb0FzYlZZTWw3VmltdTNxVjVYbkFkTGtkcjlXWlJiMk5CbW92MytmWmpxalpOQXo3dXhjamdMekUwWExndHNwRjIvZVd1WWM0OTRiaXlvMzhwd0lXM1NGNllOUHpjcUY3d0VtR1Vsc0xQSzdQY0FGdzR5OXB2d2VZbkd0YjJlcFlqTlZNNnVxcG5tY1FMelh1MHVCK0xwbVhCSWFPa2IzTFUwWjljTUtKdDRtZ0RNQzdLdWV3SGNxNmMxMEJYL1JnWE1ZZGpMYUp0cE1MMkVxU3lMd0ZuSHNlQ2xndXI4dHN1SXBwcDRMdDYyMFZBempkWC85S0N3TW9kVnY5WTl0NU5lcnA3MlVlditCai9JRVhlV1pNZHhwN1E2T3NoSWJ1VXBIZHoycCtWSDhEVFdITVorSDdKRE1QVWFZeDI5QmxraHBla0ZqWHMyTTFhNWxoVzlwcnF4dmdBd2Y0MEZrdXBnZm5hTHFOTVdBeVpaRGE1V1Vta09PblNNMFluRWp4c2xaOXQzeGhDd2hhaVRSY09rVVAyTmxIMlplZURsUTJHdXU4dW5vS2JLOFkzOC9wM0dBTHE5bXV5WWZlT29EWjEzVkExYUo2MXJMVlFXaXBHMkFESjh0V2hqSlNQSzQvR0pEcE5tUUEyOHRhcXRkTysrdnRyU1JIRkoreExjSCtWTTNYOVViTTQ0eHArTEg4aUpYbEttb2xrd3ZmY2htaDFsdGRMWHI3RVV1U2c4dll0ZVQ1OWJMNUdJRjVWT2RBMXlLL3lvQWZZTFkvQ3ljWjByS015clZnaTFRdGNpRXpzQUVJMVEyd2dkUEwyL25Sazl5VzFTcFh3Nlhid29vazZ6THhtYlcrM2JmRzZqWVorNmxqdGNna3V5YnpNb1ppeG9nSmMva1RFUXhVcEdTc2Ftd0RTb1ZqOTVIM0xTTkR2SFY2ZTBjLzVQcktLbGpoUGh2YkhQSk9JK2lzWHZGTTZsNjJQUW9iYnkvN1dOcFlBZ2VVTVp3MlZqdlBLdEFjdUtTdDViVHRKdTVsT2ZmU3lrQmFuZEpYMkl6UmpPOW1ETXN2dTR6Zmw1ZWthcUFFSklGZ1F2MXFkakhwVU5hS1ppVXhMRVc3bzM2Nzh4MDFjT3B2R3BiWWN2bFZtcjJ6T29Lczk5bEtNeG15N3l3VFU5bXVaZWpTQmJDVisyN0R4c2YyUUYvcXFYME41WG16MnJXTXQ5ZnVWQVl3S1c4blFmSlpTUDFkV2xsSDNWYXZyOHhMa0Zod3lVVTVRQ00rTGhmdDlHUDdFWXJ0WWhlNFpyWE02clkwY0MrM09xT0JFaGFwejdEZFZka2JTdGhXWlJPM2NSNUw5MUN1Rlg2RzNISWJXMm9telhXdEp5UHBYZlM5c0VYYmNOM1dzUUVidVAxY2ZQQXl4dnRqVVBSOGJ4TEVXcitYMlRFWWIxTzMxMCtFWkUzY3graFpyWGtjTUk4L2xqZE9NVlI2MlZJMGdlRWRKWEJzN0JZT0tHR3kxSTduRFRXVGM5VFQrak1ZMWJ3UDJlR3hqa0FObjNYUi93ell2R056dWI0TFcvSGpXZU9SRXp6ZkU2UEp0TWZGNU8yaUlWcHNHVmRTQXlYemtoQ3g0clFCaS9zNGpQT1M1dGV1b3diT0c2RWhZRWxjWmltYVRtcEU3dU9keW5UY2RxL1ZUTTZ4Zk9VUWp4UmQ2dkcxcDVldHhGN29Pbm83MG1aZDNGeldBa2R2MTdPTjUzWkc3aXhiejFoTHk3eUVRaFNuSFZHeDFyYVJrbG5uNG4zdmxsSnhFbVJZd1pMUkU3YjdPT054LzRFM0dkZG9xWmpWQkk3TkpLYVQrdnJyWXRkUkZFMURKdk9OMkV6T0xaTUVpWlRQdTU0T1pSMzVnSHE5bDdDd01vUDhyZ1ZybXd4c2ZGeXZ6WFkyS084eXRsUWhHNmQ1eVE1cmZYWmJ1MFBiVHBJY01mMmRzUHNZcWRyMys1cnE5MXpGZHpVdmNNbFQxZ0xuMG9EZE9PdllpdE40YXFpWi9MWjFTODA4eUtKSHhBQmd6SHp3VVYvWVhtY295cnpsVE9kMjBVQUROcXROVmx1aTlwNnhLTTdwelRUS3RCV0wrZXRzeU03WWJIemVZdHA5WE9yT0NycGExZVp4L1ptbTFtQmVpY3QwK2w5Y1I2Lyswc0E2VG90Z3V3TWZiOERqRGp6ZlhvdE1vNzRkeWVmQUxxUCtmQ3pJUEZaU2ltYkIyRktXakZJZFNmdnJObVZ1QUh0NzgzQkgrOUhIMSszamJTSklaSnFONC94MXRpc3AyM245YWoxbXZmOUNmMDhDMkZKZXF0cGp1SzhxOW4xM0lVWFpXT0gwODJFQ0Q1ZUxqVFRsUGpOMklTa0pvbDNHSis3bHpZSFVpN09NSG1UZXRiaGQ4eTNYeVIreHNaOTVsS2p3QUxvS05xc05kbnZQM2VXdG0wMVBJa1RLczY1aXV5OHVpdGU4cktPZkdHa1pmeGU2ekZLMUIyNjQ0MW03a0VEOXl6NGp5bkdQR2tydmVURXZJV0s1ajhxdC9INEhubTlmOExqZktyRFlmZHpQZmI5bDZmUDJJTE5EbElaNUlIcHA4eFkwWjJIalkxdHQwTzNJV3NhRjVzL0Nna3Z2NjdOVUxLcVRkU1BQeEd2bGR5ODN3TnY2VTdUTHo5ZmU4TUNNUlRFV1NKNEFWdGprd2hlNHhHVmt5Q3cxRTlPZ2VhbCt5allLWkJ5WGlhcEZjWm1HekFLczVUR2xzbzZ0SkVLVXZwZnRJNENzN2FLNm1UanZiT28rVXZvV1lIcDdUOFdrVHErS1JkdDdiWStneWlTRHJKc1dxNW9rU1I3ck8rdG5qSGhBZmpWemlkZWVid0R3QStPbzN0SWlYNk9YYll5YXgwa1JkaDJWdW1uSUhzTzlna3k3am1jaE82Um95L25FTVkrVlVkU05FVmdzZ0x4aFZ4blk5REhQV090aXM4NC9BNWc5UGU0cVJ0dGI2N2pkUFJuV01pRlNiOGVmdTE3V0NqZGhCbkFEaHVWeG51Y2JnUGNmR045VzJIVHlnN09OODdiRDJxeGtpS0ZzSDI5TFRLWWhFMkEwWlBYTCtOcVFaUURibW50VTBUZ1dXODY5QnU0ellkUEgxTWQxVHpaNW9VWHVWcm1jVFlqWUlQWEdjbHpIV3MvdHJOdDhQRmFObjdEUWQzajUvbGJYRVE4SWJNTXdBWGhpbm43Z2p2VlZieG9PempaYThabVlGNmV0ODkvdmtzTGZZN0k5RGl2Qjh0ekg1WHhpeUt6cmtqK3JRNHBtM2UyOHhFVUxObXViVmp1OE8wZlBIZHZhYjNaZEQyQzZmZ3V5bnUyajlkenVYamQ2QXIvcXV2UlUyT293WUZrVzExSERkc09TV2wrZWpQaU9ZY0RpU3JMcnFKTWcxdGVqM1VhWnJ0dC9iSmxGbmNJdkliUEE2b1dNenp1NmZwdjlhTjRJam4yOW5jNzNZTlA3OEtEelZJMjNQV05uNEFJeUdjZGMwcU1uSHV0WnovTmVlMXNtMzVGWXhsV2ZWWDBMdGdFRDVtRUczb0JobWpGUFAwcmdXcER0SnlJbmg0LzE4aExBdElwWnl0V2paQzBWaXo0VDJiYXBhSzFzSGdPbWx5M1lJbkF5THFSMzNQWjU5TWRoMGc1dExjRDAvQldRSGUyanM5cWZDeFBHYlJzTm1hVnEzbWZQRjU2R1RYNXUvWTRuSHNNZHc3RCtuc0FLSE83QU1DM1FBU2hmeHFyc1ExMkdBaGV3QURhUHc2WmlTNExtQms1MlBLcjRMQWRaQ3pDM3c5cHl0eUpDby80ekw0YXErNy82WFVodi94RndtUXNybzE3U0xtKzc2QUszUWFrdi90NllLNXM4OGV4TVZuYS9HZHJIc0Y4QlVOWjk0TFplMm91NkZjQ05XS0FETnZDcS9ZMTYvc3YyR2dJTldKbmsrRnpJV3QxSjV0b3NmRjUya2VldC9ySjZYN0VMNmRYUjYzcnNTc0RxK2V0aXNqT1FXYkJuVGNkcGRSSnJWN3lzUFhEZkZQcEc2NWI5NzhBQktOKy9NdFh0MSsvM0VMaGtYeDVncmZHTHNuMEVXUTlnWmQ0aWFWRjJMNU1wWk5pT3FCcnY4NGhkQVJndld5cGt4MHlSeXNWd25JVW5xM1JzSEtPSjFRbVRuZ0VDTjBFTDRrcnV4MW92YlBXdUZSbGRYN2V0aG1GUzh6MlFjVG52Vjg0NU90L291anowaExYVmg5V2JscmNzbzJwSDdVZ001bTNiQzVsOGhieXVOK2JLZ1hwZXpTd3I0N1VsanVNUklrZStwLzFtdTF6aUF2QisvVVNKaGhLQUhZelNGZXdaOFhFRXNzejFIWDR5ZklGWnlxTWIwVXBnSEZXMUhoZXlkUTdsdWhpeURHQzhueWd4RVdVR3I0RHNyTzNmeFE0U2Z5WmNSOHE0SFpudngzSlBsKys2Zk5pMDFlWmxhcXViN1ZKZUExbjJHbHdTZlIybUpWN2JrWDZ6cythMXhhcFRsMS9qS3ZLK2VqcVRyYlpsdG8vMjg5bHF4bE9naGtXZlMvVGRlQzZwQmxtZmk3MlArcUl2M2NkWTJiZys3MGUyNFdQeHVXYktENzJwdUFYT0VYZnZLSlMydTVsWE1lQTRaTlkrZWx5NENLVE1NYUkyMjhmcE8xN0wvSzRBNlR0cTN3eDVQL1crN0NlK3JXV3JZemtMbWZWUVp3OWtyWE0wYVdpZG1OVGhPMWlVbHBlcDV6N2FqY3UvTGp4am42MWs3ZU8zRXlSSFFDM0w4aEQxam4yMFZFMURWY2JsL2E0K0E2ZVA3Wm5sMW1YVTdTcklzcUtRSG9MVkM5dFZTWXpQdEI3SU1uWWVrbk11bzdhcjNFWXJUbXZWczJJc3ZsWTRtWExVUFBkUmptMnAyOCtHRE9oSTczc3gwV2ZGWHpiWXgrSHRkWmRpWll2VCtOSCtJalh6TEg4TUg4eGU4OVJsV1ZlckdydVF1N3BOTG14aUk0N0g4cnAreG9Wa3lMeHRvK05ZeTYxdHVxOWFMeWFTc3N4SWtON1JIMmZ0aU11WVdaZUp1N0pxNW0zZmFrL2ViVDZ2Y0Y0Q1EweW41blc4NWczcFloZnpUTHQwRytTNHNvNFZpOWZiKyt4NzNxeTE3c3V3TldXKy9FdHJxWWlzai9aWEEzRk5JRi91c3dlNjQ4ZlBaQnE5OVQxMmxkc29GZythTFM5c080TTNVa2R5M2U4bDIzSTlYVi92bDlmSnRvc3JPRmJyUFhlUzErbjI2SFhlY25aZGRUdlJYL2hSZFlsR2R2eHN5NmhadkgwN0FXSzVoZDQramxvcjAvZ1pONkRJV3VyRzdpVlFLaDdnZVVkbDdCWmxMcjNoVURYSVZuK1l2NDdyZU11dGNtMWZvcFU5N3RRVkY5TS93YTZCb2gxN3hZbU9uTnZZYnNmMTMwbDhSNC9HL2ZtS3ArZEZrY1JFcWF3L3ZlOHNaQzFYMVZ0L0JqS2dBUnJ3N3dib3MyS3ozanF0K3RtK3VZeWRkUnQ3dkJncjlnR3NJVkcrV2xpd0xmTmpDTVh1SXZxeFdKUWNpZFo3YmZiT0lXTk4wSUJyWEtJcmdmM1piaElmODhqRmZIVUsvcWpiMkZQMzZ1NFpWalY5d1Z2enNvMzFWKzdYaHZXNmRyZmR5cGFsUUFPTzM5MzVpNVU2cll2c1Z5anBtV1ArbTVVL1k3MWpEajFWODlaYjg2Mkx1WVl5bCtxMzFsdm5jcVg5czN1VVQ5aFoxVHNLampmUzR3cjdwOERjU29TYzJSL3ZPM3ZSUjVEbHRzL0haa2RBVENzYWNDeSt1TUt1VGxlTC9hb0xOMDUyL0h5MytJeWR1ZnRmbFpsdXVZN1JrOUkveTdwQSs3ZmJVV0M5aS84elFiM3k1dktyYmlndDkxSGIwVGpyYXRBL0M4SmZEdHEvN1E3K1dYWjFIOXl2ZERPdkh1MlJyV09ORUxuYWpvTDR5MEU3YXI4SzBNOXlZLyszV21iVXlSbkxRTi9iZDNiRS9qR2cvVk1DL2MrMC8rbm5lUGJDL0V5WDhWZkVaZHIrZjRCUXVrTjQyc2RoQUFBQUFFbEZUa1N1UW1DQyIvPiYjeGE7ICAgPC9nPiYjeGE7ICAgPGcgaWQ9InBhdGNoXzIiPiYjeGE7ICAgIDxwYXRoIHN0eWxlPSJmaWxsOiBub25lOyBzdHJva2U6ICMwMDAwMDA7IHN0cm9rZS13aWR0aDogMjsgc3Ryb2tlLWxpbmVqb2luOiBtaXRlciIgY2xpcC1wYXRoPSJ1cmwoI3A1ODRjMmZhOGVkKSIgZD0iTSAzOC44OCAzNC41NiAmIzEwO0wgMjU2LjMyIDM0LjU2ICYjMTA7TCAyNTYuMzIgMjUyICYjMTA7TCAzOC44OCAyNTIgJiMxMDtMIDM4Ljg4IDM0LjU2ICYjMTA7eiIvPiYjeGE7ICAgPC9nPiYjeGE7ICA8L2c+JiN4YTsgPC9nPiYjeGE7IDxkZWZzPiYjeGE7ICA8Y2xpcFBhdGggaWQ9InA1ODRjMmZhOGVkIj4mI3hhOyAgIDxyZWN0IGhlaWdodD0iMjE3LjQ0IiB3aWR0aD0iMjE3LjQ0IiB5PSIzNC41NiIgeD0iMzguODgiLz4mI3hhOyAgPC9jbGlwUGF0aD4mI3hhOyA8L2RlZnM+JiN4YTs8L3N2Zz4=;" vertex="1" parent="1">
          <mxGeometry x="310" y="200" width="290" height="290" as="geometry" />
        </mxCell>
        <mxCell id="COKu5k5BRvisHS9Ge0iB-7" value="&lt;font style=&quot;font-size: 14px;&quot;&gt;Grid Search&lt;/font&gt;" style="text;html=1;align=center;verticalAlign=middle;whiteSpace=wrap;rounded=0;" vertex="1" parent="1">
          <mxGeometry x="89" y="460" width="220" height="30" as="geometry" />
        </mxCell>
        <mxCell id="COKu5k5BRvisHS9Ge0iB-8" value="&lt;font style=&quot;font-size: 14px;&quot;&gt;Random Search&lt;/font&gt;" style="text;html=1;align=center;verticalAlign=middle;whiteSpace=wrap;rounded=0;" vertex="1" parent="1">
          <mxGeometry x="348" y="460" width="220" height="30" as="geometry" />
        </mxCell>
        <mxCell id="COKu5k5BRvisHS9Ge0iB-9" value="&lt;font style=&quot;font-size: 14px;&quot;&gt;Adaptive Selection&lt;/font&gt;" style="text;html=1;align=center;verticalAlign=middle;whiteSpace=wrap;rounded=0;" vertex="1" parent="1">
          <mxGeometry x="608" y="460" width="220" height="30" as="geometry" />
        </mxCell>
        <mxCell id="COKu5k5BRvisHS9Ge0iB-10" value="&lt;font color=&quot;#ffffff&quot;&gt;1&lt;/font&gt;" style="ellipse;whiteSpace=wrap;html=1;aspect=fixed;fillColor=#1A1A1A;strokeColor=none;" vertex="1" parent="1">
          <mxGeometry x="120" y="278" width="25" height="25" as="geometry" />
        </mxCell>
        <mxCell id="COKu5k5BRvisHS9Ge0iB-11" value="&lt;font color=&quot;#ffffff&quot;&gt;8&lt;/font&gt;" style="ellipse;whiteSpace=wrap;html=1;aspect=fixed;fillColor=#1A1A1A;strokeColor=none;" vertex="1" parent="1">
          <mxGeometry x="186.5" y="390" width="25" height="25" as="geometry" />
        </mxCell>
        <mxCell id="COKu5k5BRvisHS9Ge0iB-12" value="&lt;font color=&quot;#ffffff&quot;&gt;5&lt;/font&gt;" style="ellipse;whiteSpace=wrap;html=1;aspect=fixed;fillColor=#1A1A1A;strokeColor=none;" vertex="1" parent="1">
          <mxGeometry x="186.5" y="334.5" width="25" height="25" as="geometry" />
        </mxCell>
        <mxCell id="COKu5k5BRvisHS9Ge0iB-13" value="&lt;font color=&quot;#ffffff&quot;&gt;4&lt;/font&gt;" style="ellipse;whiteSpace=wrap;html=1;aspect=fixed;fillColor=#1A1A1A;strokeColor=none;" vertex="1" parent="1">
          <mxGeometry x="120" y="334.5" width="25" height="25" as="geometry" />
        </mxCell>
        <mxCell id="COKu5k5BRvisHS9Ge0iB-14" value="&lt;font color=&quot;#ffffff&quot;&gt;6&lt;/font&gt;" style="ellipse;whiteSpace=wrap;html=1;aspect=fixed;fillColor=#1A1A1A;strokeColor=none;" vertex="1" parent="1">
          <mxGeometry x="250" y="334.5" width="25" height="25" as="geometry" />
        </mxCell>
        <mxCell id="COKu5k5BRvisHS9Ge0iB-15" value="&lt;font color=&quot;#ffffff&quot;&gt;7&lt;/font&gt;" style="ellipse;whiteSpace=wrap;html=1;aspect=fixed;fillColor=#1A1A1A;strokeColor=none;" vertex="1" parent="1">
          <mxGeometry x="120" y="390" width="25" height="25" as="geometry" />
        </mxCell>
        <mxCell id="COKu5k5BRvisHS9Ge0iB-16" value="&lt;font color=&quot;#ffffff&quot;&gt;9&lt;/font&gt;" style="ellipse;whiteSpace=wrap;html=1;aspect=fixed;fillColor=#1A1A1A;strokeColor=none;" vertex="1" parent="1">
          <mxGeometry x="250" y="390" width="25" height="25" as="geometry" />
        </mxCell>
        <mxCell id="COKu5k5BRvisHS9Ge0iB-17" value="&lt;font color=&quot;#ffffff&quot;&gt;2&lt;/font&gt;" style="ellipse;whiteSpace=wrap;html=1;aspect=fixed;fillColor=#1A1A1A;strokeColor=none;" vertex="1" parent="1">
          <mxGeometry x="186.5" y="278" width="25" height="25" as="geometry" />
        </mxCell>
        <mxCell id="COKu5k5BRvisHS9Ge0iB-18" value="&lt;font color=&quot;#ffffff&quot;&gt;3&lt;/font&gt;" style="ellipse;whiteSpace=wrap;html=1;aspect=fixed;fillColor=#1A1A1A;strokeColor=none;" vertex="1" parent="1">
          <mxGeometry x="250" y="278" width="25" height="25" as="geometry" />
        </mxCell>
        <mxCell id="COKu5k5BRvisHS9Ge0iB-20" value="&lt;font color=&quot;#ffffff&quot;&gt;1&lt;/font&gt;" style="ellipse;whiteSpace=wrap;html=1;aspect=fixed;fillColor=#1A1A1A;strokeColor=none;" vertex="1" parent="1">
          <mxGeometry x="389" y="253" width="25" height="25" as="geometry" />
        </mxCell>
        <mxCell id="COKu5k5BRvisHS9Ge0iB-23" value="&lt;font color=&quot;#ffffff&quot;&gt;2&lt;/font&gt;" style="ellipse;whiteSpace=wrap;html=1;aspect=fixed;fillColor=#1A1A1A;strokeColor=none;" vertex="1" parent="1">
          <mxGeometry x="430" y="275" width="25" height="25" as="geometry" />
        </mxCell>
        <mxCell id="COKu5k5BRvisHS9Ge0iB-24" value="&lt;font color=&quot;#ffffff&quot;&gt;3&lt;/font&gt;" style="ellipse;whiteSpace=wrap;html=1;aspect=fixed;fillColor=#1A1A1A;strokeColor=none;" vertex="1" parent="1">
          <mxGeometry x="500" y="250" width="25" height="25" as="geometry" />
        </mxCell>
        <mxCell id="COKu5k5BRvisHS9Ge0iB-25" value="&lt;font color=&quot;#ffffff&quot;&gt;3&lt;/font&gt;" style="ellipse;whiteSpace=wrap;html=1;aspect=fixed;fillColor=#1A1A1A;strokeColor=none;" vertex="1" parent="1">
          <mxGeometry x="730" y="390" width="25" height="25" as="geometry" />
        </mxCell>
        <mxCell id="COKu5k5BRvisHS9Ge0iB-26" value="&lt;font color=&quot;#ffffff&quot;&gt;4&lt;/font&gt;" style="ellipse;whiteSpace=wrap;html=1;aspect=fixed;fillColor=#1A1A1A;strokeColor=none;" vertex="1" parent="1">
          <mxGeometry x="690" y="356.5" width="25" height="25" as="geometry" />
        </mxCell>
        <mxCell id="COKu5k5BRvisHS9Ge0iB-27" value="&lt;font color=&quot;#ffffff&quot;&gt;4&lt;/font&gt;" style="ellipse;whiteSpace=wrap;html=1;aspect=fixed;fillColor=#1A1A1A;strokeColor=none;" vertex="1" parent="1">
          <mxGeometry x="380" y="334.5" width="25" height="25" as="geometry" />
        </mxCell>
        <mxCell id="COKu5k5BRvisHS9Ge0iB-28" value="&lt;font color=&quot;#ffffff&quot;&gt;5&lt;/font&gt;" style="ellipse;whiteSpace=wrap;html=1;aspect=fixed;fillColor=#1A1A1A;strokeColor=none;" vertex="1" parent="1">
          <mxGeometry x="735" y="284" width="25" height="25" as="geometry" />
        </mxCell>
        <mxCell id="COKu5k5BRvisHS9Ge0iB-29" value="&lt;font color=&quot;#ffffff&quot;&gt;5&lt;/font&gt;" style="ellipse;whiteSpace=wrap;html=1;aspect=fixed;fillColor=#1A1A1A;strokeColor=none;" vertex="1" parent="1">
          <mxGeometry x="485" y="291" width="25" height="25" as="geometry" />
        </mxCell>
        <mxCell id="COKu5k5BRvisHS9Ge0iB-31" value="&lt;font color=&quot;#ffffff&quot;&gt;6&lt;/font&gt;" style="ellipse;whiteSpace=wrap;html=1;aspect=fixed;fillColor=#1A1A1A;strokeColor=none;" vertex="1" parent="1">
          <mxGeometry x="770" y="291" width="25" height="25" as="geometry" />
        </mxCell>
        <mxCell id="COKu5k5BRvisHS9Ge0iB-32" value="&lt;font color=&quot;#ffffff&quot;&gt;6&lt;/font&gt;" style="ellipse;whiteSpace=wrap;html=1;aspect=fixed;fillColor=#1A1A1A;strokeColor=none;" vertex="1" parent="1">
          <mxGeometry x="500" y="330.5" width="25" height="25" as="geometry" />
        </mxCell>
        <mxCell id="COKu5k5BRvisHS9Ge0iB-33" value="&lt;font color=&quot;#ffffff&quot;&gt;7&lt;/font&gt;" style="ellipse;whiteSpace=wrap;html=1;aspect=fixed;fillColor=#1A1A1A;strokeColor=none;" vertex="1" parent="1">
          <mxGeometry x="630" y="400" width="25" height="25" as="geometry" />
        </mxCell>
        <mxCell id="COKu5k5BRvisHS9Ge0iB-34" value="&lt;font color=&quot;#ffffff&quot;&gt;7&lt;/font&gt;" style="ellipse;whiteSpace=wrap;html=1;aspect=fixed;fillColor=#1A1A1A;strokeColor=none;" vertex="1" parent="1">
          <mxGeometry x="364" y="400" width="25" height="25" as="geometry" />
        </mxCell>
        <mxCell id="COKu5k5BRvisHS9Ge0iB-35" value="&lt;font color=&quot;#ffffff&quot;&gt;8&lt;/font&gt;" style="ellipse;whiteSpace=wrap;html=1;aspect=fixed;fillColor=#1A1A1A;strokeColor=none;" vertex="1" parent="1">
          <mxGeometry x="630" y="359.5" width="25" height="25" as="geometry" />
        </mxCell>
        <mxCell id="COKu5k5BRvisHS9Ge0iB-36" value="&lt;font color=&quot;#ffffff&quot;&gt;8&lt;/font&gt;" style="ellipse;whiteSpace=wrap;html=1;aspect=fixed;fillColor=#1A1A1A;strokeColor=none;" vertex="1" parent="1">
          <mxGeometry x="445.5" y="384.5" width="25" height="25" as="geometry" />
        </mxCell>
        <mxCell id="COKu5k5BRvisHS9Ge0iB-37" value="&lt;font color=&quot;#ffffff&quot;&gt;9&lt;/font&gt;" style="ellipse;whiteSpace=wrap;html=1;aspect=fixed;fillColor=#1A1A1A;strokeColor=none;" vertex="1" parent="1">
          <mxGeometry x="608" y="381.5" width="25" height="25" as="geometry" />
        </mxCell>
        <mxCell id="COKu5k5BRvisHS9Ge0iB-38" value="&lt;font color=&quot;#ffffff&quot;&gt;9&lt;/font&gt;" style="ellipse;whiteSpace=wrap;html=1;aspect=fixed;fillColor=#1A1A1A;strokeColor=none;" vertex="1" parent="1">
          <mxGeometry x="510" y="375" width="25" height="25" as="geometry" />
        </mxCell>
        <mxCell id="COKu5k5BRvisHS9Ge0iB-39" value="&lt;font color=&quot;#ffffff&quot;&gt;1&lt;/font&gt;" style="ellipse;whiteSpace=wrap;html=1;aspect=fixed;fillColor=#1A1A1A;strokeColor=none;" vertex="1" parent="1">
          <mxGeometry x="640" y="247" width="25" height="25" as="geometry" />
        </mxCell>
        <mxCell id="COKu5k5BRvisHS9Ge0iB-40" value="&lt;font color=&quot;#ffffff&quot;&gt;2&lt;/font&gt;" style="ellipse;whiteSpace=wrap;html=1;aspect=fixed;fillColor=#1A1A1A;strokeColor=none;" vertex="1" parent="1">
          <mxGeometry x="680" y="277" width="25" height="25" as="geometry" />
        </mxCell>
      </root>
    </mxGraphModel>
  </diagram>
</mxfile>
